<?xml version="1.0" encoding="iso-8859-1"?>
<!-- Generator: Adobe Illustrator 18.0.0, SVG Export Plug-In . SVG Version: 6.00 Build 0)  -->
<!DOCTYPE svg PUBLIC "-//W3C//DTD SVG 1.1//EN" "http://www.w3.org/Graphics/SVG/1.1/DTD/svg11.dtd">
<svg version="1.1" id="Capa_1" xmlns="http://www.w3.org/2000/svg" xmlns:xlink="http://www.w3.org/1999/xlink" x="0px" y="0px"
	 viewBox="0 0 297 297" style="enable-background:new 0 0 297 297;" xml:space="preserve">
<path d="M294.908,142.226c-0.566-0.756-14.168-18.72-38.881-36.693c-32.842-23.887-70.023-36.511-107.525-36.511
	c-37.501,0-74.683,12.624-107.526,36.51C16.262,123.506,2.658,141.47,2.092,142.226c-2.789,3.718-2.789,8.831,0,12.549
	c0.566,0.756,14.17,18.72,38.884,36.694c32.844,23.885,70.025,36.51,107.526,36.51c37.502,0,74.683-12.625,107.525-36.511
	c24.713-17.974,38.315-35.938,38.881-36.693C297.697,151.057,297.697,145.943,294.908,142.226z M141.274,90.398
	c-5.92,17.643-10.027,51.152-10.027,58.102c0,6.949,4.107,40.459,10.027,58.102c-28.893-3.574-51.336-28.258-51.336-58.102
	C89.939,118.656,112.382,93.973,141.274,90.398z M155.73,206.602c5.92-17.643,10.028-51.152,10.028-58.102
	c0-6.949-4.108-40.459-10.028-58.102c28.893,3.574,51.336,28.258,51.336,58.102C207.065,178.344,184.622,203.027,155.73,206.602z
	 M24.153,148.5c5.686-6.283,15.785-16.427,29.681-26.457c9.118-6.581,18.458-12.157,27.996-16.725
	c-8.088,12.443-12.807,27.268-12.807,43.182s4.719,30.738,12.807,43.182c-9.538-4.567-18.878-10.144-27.996-16.725
	C39.937,164.925,29.836,154.779,24.153,148.5z M243.167,174.957c-9.115,6.581-18.456,12.156-27.991,16.724
	c8.086-12.442,12.805-27.268,12.805-43.181s-4.719-30.738-12.805-43.181c9.535,4.567,18.876,10.143,27.991,16.724
	c13.897,10.032,23.998,20.178,29.68,26.457C267.162,154.783,257.063,164.927,243.167,174.957z"/>
<g>
</g>
<g>
</g>
<g>
</g>
<g>
</g>
<g>
</g>
<g>
</g>
<g>
</g>
<g>
</g>
<g>
</g>
<g>
</g>
<g>
</g>
<g>
</g>
<g>
</g>
<g>
</g>
<g>
</g>
</svg>
