<?xml version="1.0" encoding="utf-8"?>
<!-- Generator: Adobe Illustrator 23.0.3, SVG Export Plug-In . SVG Version: 6.00 Build 0)  -->
<svg version="1.1" id="Слой_1" xmlns="http://www.w3.org/2000/svg" xmlns:xlink="http://www.w3.org/1999/xlink" x="0px" y="0px"
	 viewBox="0 0 158 91.8" style="enable-background:new 0 0 158 91.8;" xml:space="preserve">
<style type="text/css">
	.st0{fill:none;stroke:#000000;stroke-width:0.8;stroke-miterlimit:10;}
	.st1{fill:none;stroke:#000000;stroke-width:0.79;stroke-miterlimit:10;}
	.st2{fill:none;stroke:#000000;stroke-width:0.81;stroke-miterlimit:10;}
</style>
<path d="M45.2,27.9V9h11v0.8H46v8.4h9.1V19H46v9h-0.8V27.9z M65.8,8.8l8.7,19v0.1h-1.3L71,23H60.2L58,27.9h-1.3v-0.1l8.7-19H65.8z
	 M65.6,11.1c-0.3,0.8-0.5,1.3-0.6,1.6l-4.2,9.2h9.7l-4.2-9.2C66.1,12.2,65.9,11.7,65.6,11.1z M93.9,19.8l5.8,8v0.1h-0.9l-5.8-8h-5.8
	v8h-0.8V9h7c1.6,0,2.9,0.5,4,1.6c1.1,1,1.7,2.3,1.7,3.9c0,1.4-0.5,2.6-1.5,3.6C96.7,19.1,95.4,19.7,93.9,19.8z M87.2,19.1h6.2
	c1.4,0,2.6-0.5,3.5-1.4s1.4-2,1.4-3.3s-0.5-2.4-1.4-3.3c-0.9-0.9-2.1-1.4-3.5-1.4h-6.2V19.1z"/>
<rect x="133" y="63" width="0.8" height="18.9"/>
<path d="M72.9,63v0.8h6.4v0.1c0.1,0,0.2,0,0.2,0c0.2,0,0.4,0,0.6,0v-0.1h6.4V63H72.9z"/>
<path d="M69.7,73.6c-0.6-0.4-1.1-0.8-1.8-1.1c-0.6-0.3-1.4-0.6-2.3-1c0,0-0.1,0-0.1-0.1c-0.1,0-0.1,0-0.1,0s-0.1,0-0.1-0.1
	c-0.9-0.3-1.5-0.5-1.8-0.7c-0.3-0.1-0.7-0.4-1.3-0.7c-0.6-0.4-1-0.8-1.2-1.2c-0.2-0.4-0.3-0.9-0.3-1.5c0-1.1,0.4-1.9,1.3-2.5
	c0.9-0.6,1.9-0.9,3.2-0.9c1.8,0,3.5,0.5,4.9,1.6l0.6-0.9c-1.6-1.2-3.4-1.8-5.5-1.8c-1.6,0-2.9,0.4-4,1.3c-1.1,0.8-1.7,1.9-1.7,3.3
	c0,0.6,0.1,1.2,0.4,1.7s0.5,0.9,0.9,1.3c0.3,0.3,0.8,0.7,1.4,1s1.1,0.6,1.5,0.8c0.4,0.1,1,0.4,1.7,0.6c1.7,0.6,2.9,1.2,3.7,1.9
	c0.8,0.6,1.2,1.5,1.2,2.6c0,1.2-0.5,2.2-1.4,2.9c-0.9,0.7-2.1,1.1-3.5,1.1c-2.2,0-4.2-0.7-5.8-2.1l-0.7,1c1.8,1.5,4,2.2,6.5,2.2
	c1.8,0,3.2-0.5,4.3-1.4s1.7-2.2,1.7-3.7c0-0.7-0.1-1.4-0.4-2C70.7,74.5,70.2,74,69.7,73.6z"/>
<path d="M118.1,63h-5.5v18.9h5.5c2.9,0,5.2-0.9,7-2.6c1.8-1.8,2.7-4,2.7-6.8s-0.9-5-2.7-6.8C123.2,63.9,120.9,63,118.1,63z
	 M124.5,78.7c-1.6,1.6-3.7,2.4-6.4,2.4h-4.8V63.7h4.7c2.6,0,4.7,0.8,6.4,2.4c1.6,1.6,2.5,3.7,2.5,6.3
	C126.9,75,126.1,77.1,124.5,78.7z"/>
<path d="M156.8,67.5c-0.8-1.5-1.9-2.7-3.4-3.5c-1.4-0.9-3.1-1.3-4.9-1.3c-1.8,0-3.5,0.4-4.9,1.3s-2.6,2-3.4,3.5
	c-0.8,1.5-1.2,3.1-1.2,5c0,1.8,0.4,3.4,1.2,4.9s1.9,2.7,3.4,3.5c1.5,0.9,3.1,1.3,4.9,1.3c1.8,0,3.4-0.4,4.9-1.3s2.6-2,3.4-3.5
	c0.8-1.5,1.2-3.1,1.2-4.9C158,70.6,157.6,69,156.8,67.5z M154.7,78.9c-1.6,1.7-3.7,2.6-6.2,2.6s-4.6-0.9-6.2-2.6
	c-1.6-1.7-2.4-3.9-2.4-6.4c0-2.6,0.8-4.7,2.4-6.4c1.6-1.7,3.7-2.6,6.2-2.6s4.6,0.9,6.2,2.6c1.6,1.7,2.4,3.8,2.4,6.4
	C157.2,75,156.4,77.1,154.7,78.9z"/>
<path d="M105.5,76c0,0.7-0.1,1.3-0.3,1.9s-0.5,1.1-0.8,1.5c-0.4,0.4-0.8,0.8-1.3,1.1c-0.5,0.3-1.1,0.6-1.7,0.7
	c-0.6,0.1-1.3,0.2-2,0.2c-1.8,0-3.3-0.5-4.5-1.5c-1.1-1-1.7-2.3-1.7-4v-13h-0.8v13c0,1.9,0.7,3.5,2,4.6s3,1.7,5,1.7
	c1.9,0,3.6-0.6,4.9-1.7c1.4-1.1,2-2.6,2-4.6v-13h-0.8V76z"/>
<path d="M0,54.9V36h5.5c2.8,0,5.2,0.9,7,2.7c1.8,1.8,2.7,4.1,2.7,6.8c0,2.8-0.9,5-2.7,6.8c-1.8,1.8-4.1,2.6-7,2.6H0z M0.8,54.1h4.7
	c2.6,0,4.8-0.8,6.4-2.4s2.4-3.7,2.4-6.3c0-2.6-0.8-4.7-2.5-6.3c-1.6-1.6-3.8-2.4-6.4-2.4H0.7L0.8,54.1L0.8,54.1z M21.1,54.1h10.2
	v0.8h-11V36H31v0.8H21v8h8.6v0.8H21v8.5H21.1z M40.7,55.2c-2.4,0-4.6-0.7-6.4-2.2l0.5-0.6c1.6,1.4,3.6,2.1,5.9,2.1
	c1.5,0,2.8-0.4,3.7-1.1c0.9-0.8,1.4-1.8,1.4-3.1c0-1.2-0.4-2.1-1.2-2.8c-0.8-0.7-2.1-1.3-3.9-2c-0.1,0-0.2-0.1-0.4-0.1
	c-0.5-0.2-0.9-0.3-1.1-0.4s-0.6-0.3-1.1-0.5c-0.4-0.2-0.8-0.4-1.1-0.6c-0.2-0.2-0.5-0.4-0.9-0.6c-0.3-0.3-0.6-0.6-0.7-0.8
	s-0.3-0.6-0.4-1s-0.2-0.8-0.2-1.2c0-1.4,0.5-2.4,1.6-3.3c1.1-0.8,2.4-1.2,4-1.2c2.1,0,3.9,0.6,5.4,1.7l-0.4,0.6
	c-1.4-1.1-3.1-1.6-5-1.6c-1.3,0-2.5,0.3-3.4,1s-1.4,1.6-1.4,2.7c0,0.4,0,0.7,0.1,1s0.2,0.6,0.4,0.8c0.1,0.2,0.4,0.4,0.6,0.7
	c0.3,0.2,0.5,0.4,0.7,0.6c0.2,0.1,0.5,0.3,0.9,0.5s0.7,0.3,0.9,0.4c0.2,0.1,0.6,0.2,1,0.4c0.3,0.1,0.5,0.2,0.6,0.2
	c0.9,0.4,1.7,0.7,2.3,1c0.6,0.3,1.2,0.7,1.8,1.1c0.6,0.4,1,0.9,1.2,1.5c0.3,0.5,0.4,1.2,0.4,1.9c0,1.5-0.5,2.8-1.6,3.7
	C43.9,54.7,42.4,55.2,40.7,55.2z M51.6,54.9V36h0.8v18.9H51.6z M65.8,45.1h7.7v6.5c-1.8,2.4-4.3,3.6-7.5,3.6c-2.8,0-5.1-0.9-7-2.8
	c-1.8-1.9-2.7-4.2-2.7-7c0-2.7,0.9-5.1,2.7-6.9s4.1-2.8,6.9-2.8c2.8,0,5.2,1.1,7.1,3.3l-0.8,0.8c-1.7-2-3.8-2.9-6.3-2.9
	s-4.5,0.8-6,2.4s-2.3,3.7-2.3,6.1c0,2.5,0.8,4.6,2.4,6.2s3.6,2.4,6.1,2.4c2.7,0,4.8-1,6.3-2.9v-5h-6.5L65.8,45.1L65.8,45.1z
	 M93.9,36h0.8v19.1h-0.3L81,38.7c-0.5-0.6-0.7-0.9-0.8-1c0,0.4,0,0.8,0,1.2v16h-0.8V35.8h0.3L93,52.2c0,0,0.2,0.2,0.4,0.5
	s0.4,0.5,0.5,0.6c0-0.4,0-0.9,0-1.4V36z"/>
<line class="st0" x1="79.6" y1="27.9" x2="79.6" y2="0.3"/>
<line class="st1" x1="80" y1="0.4" x2="0.1" y2="0.4"/>
<line class="st1" x1="0.4" y1="32.1" x2="0.4" y2="0"/>
<line class="st1" x1="0.4" y1="91.1" x2="0.4" y2="59"/>
<line class="st2" x1="80" y1="91.4" x2="0.1" y2="91.4"/>
<line class="st2" x1="79.7" y1="91.8" x2="79.7" y2="63.8"/>
</svg>
