<svg width="206" height="456" fill="none" xmlns="http://www.w3.org/2000/svg"><mask id="path-2-inside-1" fill="#fff"><path d="M1.36 216.994v-43.183h162.022V43.475H1.378V0h202.549v216.994H1.361z"/></mask><path d="M1.36 216.994H-.402v1.764h1.764v-1.764zm0-43.183v-1.763H-.402v1.763h1.764zm162.022 0v1.764h1.764v-1.764h-1.764zm0-130.336h1.764v-1.764h-1.764v1.764zm-162.004 0H-.386v1.764h1.764v-1.764zM1.378 0v-1.764H-.386V0h1.764zm202.549 0h1.764v-1.764h-1.764V0zm0 216.994v1.764h1.764v-1.764h-1.764zm-200.803 0v-43.183H-.403v43.183h3.527zm-1.763-41.419h162.021v-3.527H1.361v3.527zm163.785-1.764V43.475h-3.528v130.336h3.528zm-1.764-132.1H1.378v3.528h162.004V41.71zM3.142 43.475V0H-.387v43.475H3.14zM1.377 1.764h202.55v-3.528H1.378v3.528zM202.163 0v216.994h3.528V0h-3.528zm1.764 215.23H1.361v3.528h202.566v-3.528z" fill="#FEFEFE" mask="url(#path-2-inside-1)"/><mask id="path-4-inside-2" fill="#fff"><path d="M163.503 405.699v-43.531H1.502v-43.53h161.99v-43.253H1.516v-43.546h202.269v217.028H1.536v-43.168h161.967z"/></mask><path d="M163.503 405.699v1.763h1.763v-1.763h-1.763zm0-43.531h1.763v-1.764h-1.763v1.764zm-162.001 0H-.262v1.764h1.764v-1.764zm0-43.53v-1.764H-.262v1.764h1.764zm161.99 0v1.763h1.764v-1.763h-1.764zm0-43.253h1.764v-1.764h-1.764v1.764zm-161.976 0H-.248v1.763h1.764v-1.763zm0-43.546v-1.763H-.248v1.763h1.764zm202.269 0h1.764v-1.763h-1.764v1.763zm0 217.028v1.763h1.764v-1.763h-1.764zm-202.249 0H-.227v1.763h1.763v-1.763zm0-43.168v-1.764H-.227v1.764h1.763zm163.73 0v-43.531h-3.527v43.531h3.527zm-1.763-45.295H1.502v3.528h162.001v-3.528zM3.265 362.168v-43.53H-.262v43.53h3.527zm-1.763-41.767h161.99v-3.527H1.502v3.527zm163.754-1.763v-43.253h-3.527v43.253h3.527zm-1.764-45.017H1.516v3.527h161.976v-3.527zM3.279 275.385v-43.546H-.248v43.546h3.527zm-1.763-41.782h202.269v-3.527H1.516v3.527zm200.506-1.764v217.028h3.527V231.839h-3.527zm1.763 215.264H1.536v3.527h202.249v-3.527zM3.3 448.867v-43.168H-.227v43.168H3.3zm-1.764-41.405h161.967v-3.527H1.536v3.527z" fill="#FEFEFE" mask="url(#path-4-inside-2)"/></svg>