<svg id="Layer_1" data-name="Layer 1" xmlns="http://www.w3.org/2000/svg" viewBox="0 0 42.41 29.87"><defs><style>.cls-1{fill:#e2efff;}.cls-2{fill:#003ea0;}.cls-3{fill:#002d6d;}.cls-4{fill:#0054ad;}.cls-5{fill:#f0f7ff;}.cls-6{fill:#ffe95c;}.cls-7{opacity:0.1;}.cls-8{fill:#fff;}.cls-9{fill:#f8b682;}.cls-10{fill:#003c86;}.cls-11{fill:gold;}.cls-12{fill:#eeaa78;}.cls-13{fill:#ffc49f;}.cls-14{fill:#0076d4;}.cls-15{fill:#ffd0aa;}.cls-16{fill:#009b9b;}.cls-17{fill:#ffc494;}</style></defs><title>about-bg</title><g id="Business_Strategy" data-name="Business Strategy"><path class="cls-1" d="M29.91,112.18c-12.2,0-16.48-6.21-14.79-12s5.8-4.33,3.64-10.46,2.16-9.93,5.2-5.35c5.37,8.13,11.75,3.59,15.93.86,5-3.26,13.07-2.23,9,7.74-2.45,6-7,3.48-4.65,8.3C47.42,107.63,44.23,112.18,29.91,112.18Z" transform="translate(-7.59 -82.31)"/><path class="cls-2" d="M30.1,100.8a.19.19,0,0,0-.19.19v8.46a.19.19,0,1,0,.37,0V101A.19.19,0,0,0,30.1,100.8Z" transform="translate(-7.59 -82.31)"/><path class="cls-2" d="M31,100.65a.2.2,0,0,0-.24-.11.19.19,0,0,0-.11.25l3.61,9.49a.18.18,0,0,0,.18.12h.07a.2.2,0,0,0,.11-.24Z" transform="translate(-7.59 -82.31)"/><path class="cls-2" d="M29.39,100.54a.2.2,0,0,0-.24.11l-3.61,9.5a.19.19,0,0,0,.1.24h.07a.18.18,0,0,0,.18-.12l3.61-9.49A.19.19,0,0,0,29.39,100.54Z" transform="translate(-7.59 -82.31)"/><path class="cls-3" d="M40.79,91.1l-2.63,8.36-.27.87a.11.11,0,0,1,0,0A1,1,0,0,1,37,101H22.62a.49.49,0,0,1-.53-.6s0,0,0-.06L25,91.1a1,1,0,0,1,.94-.66H40.27A.49.49,0,0,1,40.79,91.1Z" transform="translate(-7.59 -82.31)"/><path class="cls-4" d="M36.35,100.39H22a.5.5,0,0,1-.52-.67l2.89-9.22a1,1,0,0,1,.94-.66H39.66a.49.49,0,0,1,.52.66l-2.9,9.22A1,1,0,0,1,36.35,100.39Z" transform="translate(-7.59 -82.31)"/><polygon class="cls-5" points="23.16 9.58 22.64 8.91 21.17 9.95 20.36 8.91 19.41 9.58 20.23 10.63 18.76 11.67 19.28 12.34 20.75 11.3 21.56 12.34 22.51 11.67 21.7 10.63 23.16 9.58"/><path class="cls-5" d="M33.74,95A3.08,3.08,0,0,0,31,97a1.47,1.47,0,0,0,1.54,2,3.08,3.08,0,0,0,2.79-2A1.47,1.47,0,0,0,33.74,95Zm.51,2a1.6,1.6,0,0,1-1.45,1,.76.76,0,0,1-.8-1,1.62,1.62,0,0,1,1.45-1A.76.76,0,0,1,34.25,97Z" transform="translate(-7.59 -82.31)"/><polygon class="cls-6" points="20.07 15.63 19.54 14.96 26.44 10.05 26.97 10.72 20.07 15.63"/><path class="cls-7" d="M38.16,99.46l-.27.87a.11.11,0,0,1,0,0l-.1-.07-.09,0a1.42,1.42,0,0,1-.13-.12,2.32,2.32,0,0,1-.24-.28,0,0,0,0,1,0,0l-.09.05h0a.33.33,0,0,1-.11-.32c-.35-.48-.66-1.11-1.05-1.67a1.34,1.34,0,0,1-.24-.12c-.12-.11,0-.43,0-.54s-.24-.34-.17-.46.47.27.51.39l.13.45v0l0,0,1.22,1.23.15.15a.62.62,0,0,1,.3.17l0,.09Z" transform="translate(-7.59 -82.31)"/><path class="cls-8" d="M42.47,95.56a3.29,3.29,0,0,0,1,.29.69.69,0,0,0,.38,0,.55.55,0,0,0,.19-.18c.24-.31.37-.75.73-.88a1.7,1.7,0,0,1,.55,0,3.39,3.39,0,0,0,.64-.07.94.94,0,0,0,.52-.22.64.64,0,0,0,.09-.69,1.37,1.37,0,0,0-.5-.54,1.32,1.32,0,0,1-.29-.24c-.22-.26-.13-.65-.15-1a1.19,1.19,0,0,0-.27-.73.82.82,0,0,0-.7-.29c-.43.06-.71.49-1.13.59a2.18,2.18,0,0,1-.72,0,1.7,1.7,0,0,0-.89.13,1.05,1.05,0,0,0-.58.66,1.93,1.93,0,0,0,.25,1.14,1.28,1.28,0,0,1,.08,1.14c-.12.19-.32.32-.44.52s-.21.55,0,.62.15-.11.2-.18C41.67,95.15,42.09,95.38,42.47,95.56Z" transform="translate(-7.59 -82.31)"/><path class="cls-2" d="M43.09,93.89v.47a.48.48,0,0,0,.3.44.18.18,0,0,0,.17.13.17.17,0,0,0,.16-.13.48.48,0,0,0,.31-.44v-.47Z" transform="translate(-7.59 -82.31)"/><path class="cls-6" d="M44.69,93a1.14,1.14,0,0,1-2.27,0,1.14,1.14,0,1,1,2.27,0Z" transform="translate(-7.59 -82.31)"/><path class="cls-9" d="M36.22,96.68s-.06-.2-.13-.46c0-.11-.47-.44-.51-.38s.24.23.17.45-.17.43,0,.54A1.12,1.12,0,0,0,36,97,.31.31,0,0,0,36.22,96.68Z" transform="translate(-7.59 -82.31)"/><path class="cls-9" d="M40.18,109.69l0,.54c-.23.07-.4.2-.61.28a1.6,1.6,0,0,0,1.32-.1c.09-.14-.26-.37-.05-.82Z" transform="translate(-7.59 -82.31)"/><path class="cls-3" d="M39.85,111c.27,0,.24-.31.43-.31s.3.13.3.41,0,.21,0,.21a.08.08,0,0,0,.13,0s0-.34.09-.43a.59.59,0,0,0,.14-.37.19.19,0,0,0,0-.18l-.08,0c-.32-.08-.88.38-1.27.17h0a.79.79,0,0,0-.41.11l-.12.06C38.73,110.9,39.58,111,39.85,111Z" transform="translate(-7.59 -82.31)"/><path class="cls-9" d="M42.25,110l.2.51c-.17.16-.27.36-.42.52a1.62,1.62,0,0,0,1.14-.68c0-.16-.4-.21-.42-.71Z" transform="translate(-7.59 -82.31)"/><path class="cls-3" d="M42.56,111.36c.23-.13.08-.39.24-.47s.32,0,.45.24.13.17.13.17a.11.11,0,0,0,.12-.07s-.17-.3-.12-.43a.59.59,0,0,0-.05-.44.19.19,0,0,0-.11-.09h-.09c-.32.08-.62.74-1.06.72h0a.56.56,0,0,0-.23.18,2.37,2.37,0,0,0-.16.2C41.5,111.74,42.32,111.49,42.56,111.36Z" transform="translate(-7.59 -82.31)"/><path class="cls-10" d="M39.9,109.74a2.75,2.75,0,0,0,1.27,0l-.11-3.53c.79-1.42,1.68-2.73,1.39-3.85l-1.28-.68A23.21,23.21,0,0,0,40,106.22Z" transform="translate(-7.59 -82.31)"/><path class="cls-2" d="M42.13,110.31c.47-.2.78-.3.93-.53l-1.78-3.38a10.46,10.46,0,0,0,.1-3.66l-2,.3a11.45,11.45,0,0,0,1.09,4.17Z" transform="translate(-7.59 -82.31)"/><path class="cls-7" d="M39.85,111c.27,0,.24-.31.43-.31s.3.13.3.41,0,.21,0,.21a.08.08,0,0,0,.13,0s0-.34.09-.43a.59.59,0,0,0,.14-.37.38.38,0,0,0-.13-.09h-.06a.71.71,0,0,0-.25,0l-.19,0-.16.1-.09,0a1.12,1.12,0,0,1-.5.18.6.6,0,0,1-.44-.18l-.12.06C38.73,110.9,39.58,111,39.85,111Z" transform="translate(-7.59 -82.31)"/><path class="cls-7" d="M42.56,111.36c.23-.13.08-.39.24-.47s.32,0,.45.24.13.17.13.17a.11.11,0,0,0,.12-.07s-.17-.3-.12-.43a.59.59,0,0,0-.05-.44l0,.26a.87.87,0,0,0-.45.06.83.83,0,0,0-.34.22l0,0c-.1.13-.2.3-.37.33a.58.58,0,0,1-.29-.06,2.37,2.37,0,0,0-.16.2C41.5,111.74,42.32,111.49,42.56,111.36Z" transform="translate(-7.59 -82.31)"/><ellipse class="cls-7" cx="35.33" cy="29.24" rx="1.28" ry="0.14"/><path class="cls-7" d="M43.06,109.78a0,0,0,0,1,0,0,1.61,1.61,0,0,1-.28-.3c-.43-.57-.83-1.16-1.21-1.77a4.76,4.76,0,0,1-.28-.49,5.47,5.47,0,0,1-.33-1c-.06-.23.25-.47.27-.7a6.4,6.4,0,0,1,.24-.91s0,.5-.18,1.83Z" transform="translate(-7.59 -82.31)"/><path class="cls-11" d="M39.22,103.35c-.11.39,3,.13,3.38-.45-.2-2.11-.14-4.72-1.15-5.18-.47-.17-1.66.43-2,.72C38.41,100.41,40.21,100.8,39.22,103.35Z" transform="translate(-7.59 -82.31)"/><path class="cls-12" d="M40.67,97.89a1.66,1.66,0,0,1-.08-.67H40a1.09,1.09,0,0,1,0,.91C40.21,98.25,40.47,98,40.67,97.89Z" transform="translate(-7.59 -82.31)"/><path class="cls-9" d="M40.71,97.46c-.37,0-.85.23-1.07,0a2.5,2.5,0,0,1,.21-1.62l1.13.22Z" transform="translate(-7.59 -82.31)"/><path class="cls-3" d="M40,96.77a.7.7,0,0,1-.5-1.13c.21-.21.72.33,1,.19s.72.18.78.56.2.5,0,.76c-.34.5.35.79.56,1.17s-.89.38-1.24.29A.87.87,0,0,1,40,97.23C40.12,97.07,40.29,96.83,40,96.77Z" transform="translate(-7.59 -82.31)"/><path class="cls-9" d="M37.61,98.05l-.61.57c-.35-.47-.66-1.11-1-1.66l.29-.28Z" transform="translate(-7.59 -82.31)"/><path class="cls-11" d="M39.46,98.44,39.34,100a4.5,4.5,0,0,1-1.75-.66,2.58,2.58,0,0,1-.38-.41,3.4,3.4,0,0,1-.21-.28l.61-.57.25.26.27.27Z" transform="translate(-7.59 -82.31)"/><path class="cls-7" d="M37.21,98.92a3.57,3.57,0,0,0,.38.39,4,4,0,0,0,1.55.62c.11.93.76,1.66.08,3.42-.11.39,2.86.14,3.36-.42-.29,0-.56.11-.85.14a2.39,2.39,0,0,1-1.36-.25.7.7,0,0,1-.37-.33c-.12-.24,0-.54,0-.81a2,2,0,0,0-.21-.83,3.09,3.09,0,0,1-.29-.82.85.85,0,0,1,.3-.77,1.85,1.85,0,0,1-.41.07,1,1,0,0,1-.24,0,3.81,3.81,0,0,1-1.26-.13,3,3,0,0,1-.56-.23Z" transform="translate(-7.59 -82.31)"/><path class="cls-2" d="M37.92,98.23l-.06.08a1.94,1.94,0,0,0-.65.59l-.09.06c-.09-.12-.15-.19-.12-.34l.61-.57A.79.79,0,0,1,37.92,98.23Z" transform="translate(-7.59 -82.31)"/><path class="cls-13" d="M14.49,100.73a2.72,2.72,0,0,0,1.25.86c.64.1,2.92-1.75,2.92-1.75.12-.18.21-.45-.19-.37l-2.65,1.29-.7-.62Z" transform="translate(-7.59 -82.31)"/><path class="cls-2" d="M15.54,100.45a1.44,1.44,0,0,1-.67.76,2.8,2.8,0,0,1-1.12-1,.65.65,0,0,1,.64-.7A3.1,3.1,0,0,1,15.54,100.45Z" transform="translate(-7.59 -82.31)"/><path class="cls-14" d="M24,110.33V111a.82.82,0,0,1-.82.82H18.54a.8.8,0,0,1-.79-.74.13.13,0,0,1,0-.08v-.71a.8.8,0,0,1,.81-.8H23.2a.69.69,0,0,1,.2,0,.68.68,0,0,1,.2.07A.82.82,0,0,1,24,110.33Z" transform="translate(-7.59 -82.31)"/><polygon class="cls-3" points="15.4 27.22 11.16 27.22 11.25 26.4 11.81 20.94 14.76 20.94 15.4 27.22"/><path class="cls-14" d="M24,100.13v2a1.09,1.09,0,0,1-1.09,1.09h-4.1a1.09,1.09,0,0,1-1.1-1.09v-2a.38.38,0,0,1,.38-.38h.66a.37.37,0,0,1,.37.38v1.11h1v-1.11a.38.38,0,0,1,.38-.38h.67a.38.38,0,0,1,.37.38v1.11h1v-1.11a.38.38,0,0,1,.37-.38h.67A.36.36,0,0,1,24,100,.58.58,0,0,1,24,100.13Z" transform="translate(-7.59 -82.31)"/><path class="cls-7" d="M24,110.33V111a.82.82,0,0,1-.82.82H18.54a.8.8,0,0,1-.79-.74.93.93,0,0,1,.37,0c.37,0,.73.11,1.11.17a17.53,17.53,0,0,0,2.81.08,2.06,2.06,0,0,0,.65-.07,1.2,1.2,0,0,0,.76-.73,1.15,1.15,0,0,0,.06-.58c0-.07-.14-.3-.11-.4a.68.68,0,0,1,.2.07A.82.82,0,0,1,24,110.33Z" transform="translate(-7.59 -82.31)"/><path class="cls-7" d="M24,100.13v2a1.09,1.09,0,0,1-1.09,1.09h-4.1a1.09,1.09,0,0,1-1.1-1.09v-.11a.69.69,0,0,1,.38,0c.29.1.52.28.8.4a4.25,4.25,0,0,0,1.77.28c.45,0,.89,0,1.35-.07a3.29,3.29,0,0,0,.87-.18,1.06,1.06,0,0,0,.62-.59c.18-.49-.11-1,.08-1.52A.76.76,0,0,1,24,100,.58.58,0,0,1,24,100.13Z" transform="translate(-7.59 -82.31)"/><ellipse class="cls-7" cx="0.87" cy="29.71" rx="0.87" ry="0.17"/><path class="cls-15" d="M12.66,111.07c0,.26-.29.41-.14.63l1.05,0a.62.62,0,0,1-.32-.64Z" transform="translate(-7.59 -82.31)"/><path class="cls-3" d="M14.14,111.88c0-.13-.64-.26-.82-.43a1.18,1.18,0,0,1-.83,0,.68.68,0,0,0-.07.44C12.39,112.1,14.15,112,14.14,111.88Z" transform="translate(-7.59 -82.31)"/><path class="cls-5" d="M13.32,111.17h-.73s-.61-3.26-1-4.36a29.59,29.59,0,0,0-1.88-3.63l2.12-.82s1.07,3.12,1.26,4.2S13.32,111.17,13.32,111.17Z" transform="translate(-7.59 -82.31)"/><path class="cls-7" d="M10.24,104.05a21.37,21.37,0,0,1,1.38,2.75c.35,1.1,1,4.37,1,4.37h.08a.07.07,0,0,0,0,0L12.62,110c0-.28,0-.56-.07-.84s-.1-.45-.16-.67c-.22-.83-.47-1.65-.73-2.46a4.48,4.48,0,0,0-.49-1.12A3.93,3.93,0,0,0,10.24,104.05Z" transform="translate(-7.59 -82.31)"/><path class="cls-5" d="M8.82,111l-.69-.33a39.16,39.16,0,0,0,1.29-4.23,15.59,15.59,0,0,0,.1-2.86l2.19-1a41.19,41.19,0,0,1-.81,4.37A41.27,41.27,0,0,1,8.82,111Z" transform="translate(-7.59 -82.31)"/><path class="cls-15" d="M8.2,110.73c-.07.25-.4.28-.33.54l1,.41a.6.6,0,0,1-.09-.71Z" transform="translate(-7.59 -82.31)"/><path class="cls-3" d="M9.32,112c0-.13-.51-.47-.62-.69a1.16,1.16,0,0,1-.77-.3.67.67,0,0,0-.22.39C7.6,111.6,9.27,112.15,9.32,112Z" transform="translate(-7.59 -82.31)"/><path class="cls-7" d="M8.15,110.64s1.25-2.87,1.32-3.11.12-.48.17-.72a7.11,7.11,0,0,0,.1-.79c0-.23,0-.47,0-.71a1.38,1.38,0,0,1,0-.5,1.09,1.09,0,0,1,.6-.42,8.24,8.24,0,0,1,1-.24.36.36,0,0,0-.14-.43,1,1,0,0,0-.45-.13,1.94,1.94,0,0,0-.59,0,2.12,2.12,0,0,0-.66.32,14,14,0,0,1-.11,2.56A35.31,35.31,0,0,1,8.15,110.64Z" transform="translate(-7.59 -82.31)"/><path class="cls-16" d="M12.55,104.18a3,3,0,0,1-3.13-.34c.74-1.44,2.1-4.14,3.26-4.38a2.76,2.76,0,0,1,2.18.33C14.64,102.47,12.41,102.83,12.55,104.18Z" transform="translate(-7.59 -82.31)"/><path class="cls-2" d="M14.86,99.8a3.91,3.91,0,0,1-.64,1.9c-.71,1.1-1.76,1.55-1.67,2.49a3.07,3.07,0,0,1-3.13-.33s.05-.1.07-.14c.76-1.47,2.07-4,3.19-4.25A2.8,2.8,0,0,1,14.86,99.8Z" transform="translate(-7.59 -82.31)"/><path class="cls-17" d="M13.53,99.37a.52.52,0,0,0,.1.23c.18.26.55.35.7.17a.62.62,0,0,1,0-.19,2.7,2.7,0,0,1,.34-.56l-.64-.2A2.76,2.76,0,0,1,13.53,99.37Z" transform="translate(-7.59 -82.31)"/><path class="cls-7" d="M13.67,99.44a.22.22,0,0,1,.05-.08.13.13,0,0,1,.09,0,.72.72,0,0,1,.37.13l.16.1a2.7,2.7,0,0,1,.34-.56l-.64-.2a2.76,2.76,0,0,1-.51.55.52.52,0,0,0,.1.23A1.23,1.23,0,0,1,13.67,99.44Z" transform="translate(-7.59 -82.31)"/><path class="cls-15" d="M13.7,99s0,0,0,0c.36.24.56.44,1,.4.13,0,.27-.26.39-.55a2.34,2.34,0,0,0,.17-1.17L14,97.25A2.66,2.66,0,0,0,13.7,99Z" transform="translate(-7.59 -82.31)"/><path class="cls-7" d="M13.7,99s0,0,0,0a.68.68,0,0,0,.18-.23,1.09,1.09,0,0,1,.24-.24.23.23,0,0,1,.17-.07.27.27,0,0,1,.13,0,3,3,0,0,1,.62.36s0,0,0,0a2.34,2.34,0,0,0,.17-1.17L14,97.25A2.66,2.66,0,0,0,13.7,99Z" transform="translate(-7.59 -82.31)"/><path class="cls-3" d="M14.47,98.3s.47.51.85.33.46-1.1-.13-1.14c-.74-.06-.86-.64-1.53.05a1.29,1.29,0,0,0,.21,1.64c.3.06.27-.18.27-.18s-.15-.4,0-.47.21.21.21.21l.12,0Z" transform="translate(-7.59 -82.31)"/><path class="cls-15" d="M17.89,100.11c.32.07.75-.27.64-.45s-.75-.08-.8.06A.29.29,0,0,0,17.89,100.11Z" transform="translate(-7.59 -82.31)"/><path class="cls-7" d="M14.22,101.68c-.71,1.1-1.76,1.56-1.67,2.49a3,3,0,0,1-3.13-.33.61.61,0,0,0,.07-.14,3,3,0,0,0,1.77.35c.62-.22,1.22-.26,1.45-.88,0-.13.08-.27.14-.39.18-.32.5-.37.57-.73,0-.21-.13-.39-.24-.57a5.51,5.51,0,0,1-.44-1c.19.16.73.67.91.82A2.73,2.73,0,0,0,14.22,101.68Z" transform="translate(-7.59 -82.31)"/><path class="cls-15" d="M13.32,101a3.13,3.13,0,0,0,1.25.89c.63.14,3.32-1.75,3.32-1.75l-.16-.39-3,1.32-.65-.67Z" transform="translate(-7.59 -82.31)"/><path class="cls-2" d="M14.45,100.72a1.75,1.75,0,0,1-.79.78,2.9,2.9,0,0,1-1-1.18.66.66,0,0,1,.7-.65A3,3,0,0,1,14.45,100.72Z" transform="translate(-7.59 -82.31)"/></g></svg>