<svg id="b075ebb1-b8b8-449b-b0d0-7f36df29893e" data-name="Layer 1" xmlns="http://www.w3.org/2000/svg" viewBox="0 0 30.03 32.1"><defs><style>.acb2b7c9-785c-4311-8c57-5ddd8c8113f1{fill:#e2efff;}.ac7177a4-54e0-499c-9539-4536d81dcb5e{fill:gold;}.e5aa762c-61e3-446c-9642-5973f8e79d41{fill:#003ea0;}.eee5a05d-da6f-402f-9151-e868f3ba6e18{fill:#0055c4;}.f09a0196-7201-4aa3-bf79-909ad6494988{fill:#f0f7ff;}.b0e020fb-3f95-475b-a8d8-7acb2ebfb85f{opacity:0.07;}.f1b3b99b-98a6-4386-b45d-69b4abe7fb7c{fill:#0054ad;}.e6d1005e-b2dd-4036-a9f6-4d7240e14908{opacity:0.1;}.e1d2851b-9974-4c3c-ac94-bf1b0b3196f6{fill:#ffe95c;}.f5746130-b62a-4f9b-a188-a36774242dc9{fill:#002d6d;}.bb2a10e3-0a07-46dd-aa63-36a74858b51e{fill:#ffd0aa;}.f4097a94-adb1-4f5f-a3e5-170756bd9056{fill:#0028ac;}.a4a7271a-ce04-44b7-a1fa-ee0cd538d2f0{fill:#d5e3ff;}.ac221840-6a57-43a8-a074-ff6fc4f8b721{fill:#ffc494;}.fcdb1a25-e62e-4798-849a-4045e5a56780{fill:#7fa5fa;}.a5cb06f6-82ff-4d54-9138-859606640882{opacity:0.06;}.b794c7e8-f8c9-4452-bc6c-a34577b2fa2a{fill:#5e90e5;}.f6e9a5ee-0a9f-4741-9513-298a32868fc7{fill:#fff;}

.stars1{
		animation-name: stars;
		animation-duration: 5s;
		animation-iteration-count: infinite;
		transform-box: fill-box;
		transform-origin: center;
	}
	.stars2{
		animation-name: stars;
		animation-duration: 5s;
		animation-iteration-count: infinite;
		animation-direction: reverse;
		transform-box: fill-box;
		transform-origin: center;
	}
	.stars3{
		animation-name: stars;
		animation-duration: 5s;
		animation-iteration-count: infinite;
		animation-delay: 3s;
		transform-box: fill-box;
		transform-origin: center;
	}
	@keyframes stars{
		0%{
		 transform: scale(1);
		 opacity: 0;
		 
		}
		50%{
		 transform: scale(1.5);
		 opacity: 1;
		 
		 
		}
		100%{
		 transform: scale(1);
		 opacity: 0;
		
		}

	}
</style></defs><title>stars-services1</title><g id="b0179739-ff2d-425e-acd9-123535cf2ec8" data-name="Qualification Certificate"><path class="acb2b7c9-785c-4311-8c57-5ddd8c8113f1" d="M92.57,115.51c-7.59-.5-12-5.47-7.88-11.25,3.14-4.44,4.21-7.1-2.78-13.05-5-4.23,3.07-7.7,8-4.17s5.74,3.15,8.48.1,9.87-5.1,11.46.44-4.79,5.16-1.07,12.38S108.22,116.54,92.57,115.51Z" transform="translate(-80.34 -84.12)"/><polygon class="ac7177a4-54e0-499c-9539-4536d81dcb5e stars1" points="5.4 3.9 5.56 4.42 6.08 4.58 5.56 4.74 5.4 5.26 5.24 4.74 4.72 4.58 5.24 4.42 5.4 3.9"/><polygon class="ac7177a4-54e0-499c-9539-4536d81dcb5e stars2" points="28.62 10.09 28.77 10.57 29.24 10.71 28.77 10.86 28.62 11.33 28.48 10.86 28 10.71 28.48 10.57 28.62 10.09"/><polygon class="ac7177a4-54e0-499c-9539-4536d81dcb5e stars3" points="3.06 17.47 3.28 18.19 3.99 18.4 3.28 18.62 3.06 19.34 2.84 18.62 2.13 18.4 2.84 18.19 3.06 17.47"/><path class="e5aa762c-61e3-446c-9642-5973f8e79d41" d="M105.51,92.05,104,104l-.35,2.78-.77,6.11s0,0,0,0a2.59,2.59,0,0,1-1.91,1.69h0L90,114.19a1.11,1.11,0,0,1-1.13-1.29l2-20.55v0h0a.36.36,0,0,1,0-.07h0a2.59,2.59,0,0,1,2-1.46h11.43A1.11,1.11,0,0,1,105.51,92.05Z" transform="translate(-80.34 -84.12)"/><path class="eee5a05d-da6f-402f-9151-e868f3ba6e18" d="M104.85,92.5l-2.63,20.85a1.54,1.54,0,0,1-1.27,1.28H89.33a1.1,1.1,0,0,1-1.12-1.28l.06-.49,2.36-18.64.22-1.72a1.13,1.13,0,0,1,0-.18h0a.36.36,0,0,1,0-.07h0a1.51,1.51,0,0,1,1.39-1h11.43A1.1,1.1,0,0,1,104.85,92.5Z" transform="translate(-80.34 -84.12)"/><path class="f09a0196-7201-4aa3-bf79-909ad6494988" d="M100.41,113.65H89.94a1,1,0,0,1-1-1.18l2.42-19.09a1.38,1.38,0,0,1,1.33-1.18h10.46a1,1,0,0,1,1,1.18l-2.41,19.09A1.39,1.39,0,0,1,100.41,113.65Z" transform="translate(-80.34 -84.12)"/><path class="f09a0196-7201-4aa3-bf79-909ad6494988" d="M98.86,91.53H97.08a.24.24,0,0,0-.23.21h0A.18.18,0,0,0,97,92h1.78a.26.26,0,0,0,.24-.21h0A.18.18,0,0,0,98.86,91.53Z" transform="translate(-80.34 -84.12)"/><path class="b0e020fb-3f95-475b-a8d8-7acb2ebfb85f" d="M103.18,95.15l-2,14.95a1.78,1.78,0,0,1,.55,1.57,2.39,2.39,0,0,1-1.44,1.83l0,.15v0l.07.93v0H98.17l0-.11.23-.67.07-.2,0-.15a1.66,1.66,0,0,1-.7-.64H88.27l2.36-18.64h2l0,0a.48.48,0,0,1,.28-.1h2.29c.08,0,.12.07.1.15h7A.81.81,0,0,1,103.18,95.15Z" transform="translate(-80.34 -84.12)"/><rect class="f1b3b99b-98a6-4386-b45d-69b4abe7fb7c" x="5.38" y="8.59" width="13.69" height="19.01" rx="0.95"/><rect class="f09a0196-7201-4aa3-bf79-909ad6494988" x="10.33" y="10.71" width="4.15" height="4.66" rx="0.49"/><rect class="f09a0196-7201-4aa3-bf79-909ad6494988" x="8.36" y="17.22" width="8.08" height="1.18" rx="0.48"/><polygon class="e6d1005e-b2dd-4036-a9f6-4d7240e14908" points="11.11 8.66 5.38 14.96 5.4 14.09 11.11 8.66"/><path class="e1d2851b-9974-4c3c-ac94-bf1b0b3196f6" d="M91.45,92.77l-5.66,5.66a.13.13,0,0,1-.22-.09V96.05a.36.36,0,0,1,.11-.26l3.12-3.13a.38.38,0,0,1,.27-.1h2.29A.12.12,0,0,1,91.45,92.77Z" transform="translate(-80.34 -84.12)"/><rect class="e1d2851b-9974-4c3c-ac94-bf1b0b3196f6" x="8.36" y="19.89" width="5.6" height="1.18" rx="0.4"/><rect class="f09a0196-7201-4aa3-bf79-909ad6494988" x="8.36" y="22.56" width="8.08" height="1.18" rx="0.48"/><path class="f5746130-b62a-4f9b-a188-a36774242dc9" d="M99.49,114.86a.12.12,0,0,1-.19.12l-1.12-1a.12.12,0,0,0-.16,0l-1.12,1a.12.12,0,0,1-.2-.12l.44-2.14.16-.75h1.6l.12.57Z" transform="translate(-80.34 -84.12)"/><path class="e6d1005e-b2dd-4036-a9f6-4d7240e14908" d="M99,112.54a2,2,0,0,1-1.88.18l.16-.75h1.6Z" transform="translate(-80.34 -84.12)"/><circle class="f5746130-b62a-4f9b-a188-a36774242dc9" cx="17.76" cy="26.38" r="2.08"/><circle class="e1d2851b-9974-4c3c-ac94-bf1b0b3196f6" cx="17.76" cy="26.38" r="1.47"/><path class="f5746130-b62a-4f9b-a188-a36774242dc9" d="M98.15,109.58l.21.64a.07.07,0,0,0,.06,0h.67a.05.05,0,0,1,0,.1l-.54.4a0,0,0,0,0,0,.06l.21.64c0,.06,0,.1-.09.07l-.55-.4h-.06l-.55.4s-.1,0-.09-.07l.21-.64a0,0,0,0,0,0-.06l-.55-.4a.06.06,0,0,1,0-.1h.67a.07.07,0,0,0,.06,0l.2-.64S98.14,109.53,98.15,109.58Z" transform="translate(-80.34 -84.12)"/><path class="e6d1005e-b2dd-4036-a9f6-4d7240e14908" d="M104,104l-.35,2.78c-.19-.18-.36-.34-.54-.48s-.37-.28-.54-.39a3.47,3.47,0,0,0-2.26-.56,1.07,1.07,0,0,1-.86-.29h0l-1.58-1.58c-.34-.33.24-1.48,1.29-2.55s2.2-1.67,2.55-1.34h0l1.49,1.48.09.09h0c.38.38.28.79.3,1.37A3,3,0,0,0,104,104Z" transform="translate(-80.34 -84.12)"/><ellipse class="e6d1005e-b2dd-4036-a9f6-4d7240e14908" cx="29.24" cy="31.95" rx="0.79" ry="0.15"/><path class="bb2a10e3-0a07-46dd-aa63-36a74858b51e" d="M105.74,115.2c0,.24.26.37.12.57l-1,0a.54.54,0,0,0,.29-.59Z" transform="translate(-80.34 -84.12)"/><path class="f4097a94-adb1-4f5f-a3e5-170756bd9056" d="M104.38,115.94c0-.12.59-.24.75-.39a1.09,1.09,0,0,0,.76,0,.69.69,0,0,1,.07.4C106,116.14,104.38,116.09,104.38,115.94Z" transform="translate(-80.34 -84.12)"/><path class="a4a7271a-ce04-44b7-a1fa-ee0cd538d2f0" d="M105.13,115.29h.67s.56-3,.89-4a26.93,26.93,0,0,1,1.72-3.32l-2-.75s-1,2.86-1.14,3.84S105.13,115.29,105.13,115.29Z" transform="translate(-80.34 -84.12)"/><path class="e6d1005e-b2dd-4036-a9f6-4d7240e14908" d="M107.94,108.78a19.46,19.46,0,0,0-1.25,2.52c-.32,1-.89,4-.89,4h-.07a.07.07,0,0,1,0-.05c0-.33,0-.66,0-1s0-.51.07-.77.09-.41.14-.61c.2-.75.43-1.51.67-2.24a4.13,4.13,0,0,1,.45-1A3.84,3.84,0,0,1,107.94,108.78Z" transform="translate(-80.34 -84.12)"/><path class="a4a7271a-ce04-44b7-a1fa-ee0cd538d2f0" d="M109.25,115.16l.62-.3a37.35,37.35,0,0,1-1.18-3.87,15.51,15.51,0,0,1-.09-2.61l-2-.95a37.54,37.54,0,0,0,.74,4A37.82,37.82,0,0,0,109.25,115.16Z" transform="translate(-80.34 -84.12)"/><path class="bb2a10e3-0a07-46dd-aa63-36a74858b51e" d="M109.81,114.89c.06.23.37.26.31.5l-.89.36a.54.54,0,0,0,.08-.65Z" transform="translate(-80.34 -84.12)"/><path class="f4097a94-adb1-4f5f-a3e5-170756bd9056" d="M108.78,116.05c0-.12.47-.43.57-.63a1,1,0,0,0,.71-.28.7.7,0,0,1,.2.36C110.36,115.69,108.83,116.19,108.78,116.05Z" transform="translate(-80.34 -84.12)"/><path class="e6d1005e-b2dd-4036-a9f6-4d7240e14908" d="M109.85,114.81s-1.14-2.62-1.2-2.84-.11-.44-.15-.66a5.82,5.82,0,0,1-.09-.73c0-.21,0-.43,0-.65a1.14,1.14,0,0,0,0-.45,1,1,0,0,0-.55-.38,7.28,7.28,0,0,0-.89-.23.31.31,0,0,1,.12-.38.83.83,0,0,1,.41-.13,2.53,2.53,0,0,1,.55,0,2,2,0,0,1,.59.29,12.49,12.49,0,0,0,.11,2.34A34.6,34.6,0,0,0,109.85,114.81Z" transform="translate(-80.34 -84.12)"/><path class="f4097a94-adb1-4f5f-a3e5-170756bd9056" d="M105.93,108.44c.28.76,1.89.72,2.76.58-.19-1.66.47-3.55-.3-4.57-.36-.44-1.64-.75-1.88-.41C105.69,105.49,106.42,107.47,105.93,108.44Z" transform="translate(-80.34 -84.12)"/><path class="e6d1005e-b2dd-4036-a9f6-4d7240e14908" d="M107.74,106.27a2.17,2.17,0,0,0-.53.31c-.17.15-.7.59-.72.9a2,2,0,0,0,.06.58,1.27,1.27,0,0,0,.66,1c-.6,0-1.13-.22-1.28-.64a6.89,6.89,0,0,0,.17-2.48,2,2,0,0,0,1.27,0,2.78,2.78,0,0,0,.92-.63A1.2,1.2,0,0,1,107.74,106.27Z" transform="translate(-80.34 -84.12)"/><path class="ac221840-6a57-43a8-a074-ff6fc4f8b721" d="M106.49,104.88s-.5.79-1,1-3-1.31-3-1.31l.27-.35,2.58.92.55-.65Z" transform="translate(-80.34 -84.12)"/><path class="f4097a94-adb1-4f5f-a3e5-170756bd9056" d="M105.5,104.77a1.34,1.34,0,0,0,.7.6,2.6,2.6,0,0,0,.89-1.08l-.47-.34A4.17,4.17,0,0,0,105.5,104.77Z" transform="translate(-80.34 -84.12)"/><path class="fcdb1a25-e62e-4798-849a-4045e5a56780" d="M97.37,102.38,99,104h0a1.08,1.08,0,0,0,.87.29c.71,0,1.69-.16,3.37,1.46a1.59,1.59,0,0,0,.46,1.31,1.61,1.61,0,0,0,2.28,0,1.63,1.63,0,0,0,.43-.82,1.61,1.61,0,0,0-.44-1.47,1.63,1.63,0,0,0-1.33-.44c-2.39-2.4-1-3.39-1.8-4.2h0l-1.58-1.57-1.88,1.91Z" transform="translate(-80.34 -84.12)"/><path class="a5cb06f6-82ff-4d54-9138-859606640882" d="M97.37,102.38,99,104h0a1.08,1.08,0,0,0,.87.29c.71,0,1.69-.16,3.37,1.46a1.59,1.59,0,0,0,.46,1.31,1.61,1.61,0,0,0,2.28,0,1.63,1.63,0,0,0,.43-.82,1.36,1.36,0,0,1-1.23.28,2.81,2.81,0,0,1-1.33-.93,9.18,9.18,0,0,0-1.12-1.21,2.87,2.87,0,0,0-1.1-.56c-.37-.1-.76-.14-1.13-.26a1.27,1.27,0,0,1-.83-.73,1.93,1.93,0,0,1,.1-1.06,1.25,1.25,0,0,0,0-1,.82.82,0,0,0-.36-.28Z" transform="translate(-80.34 -84.12)"/><ellipse class="b794c7e8-f8c9-4452-bc6c-a34577b2fa2a" cx="99.29" cy="100.44" rx="2.73" ry="0.87" transform="translate(-122.28 16.46) rotate(-45.38)"/><path class="ac221840-6a57-43a8-a074-ff6fc4f8b721" d="M107.84,104.1a.42.42,0,0,1-.19.09c-.25.07-.54-.07-.54-.26a.64.64,0,0,0,.1-.13,2.57,2.57,0,0,0,.08-.54l.51.21A2.06,2.06,0,0,0,107.84,104.1Z" transform="translate(-80.34 -84.12)"/><path class="e6d1005e-b2dd-4036-a9f6-4d7240e14908" d="M107.71,104.07a.22.22,0,0,0,0-.08s0,0,0,0a.7.7,0,0,0-.3-.12l-.16,0a2.57,2.57,0,0,0,.08-.54l.51.21a2.06,2.06,0,0,0,0,.63.42.42,0,0,1-.19.09A1.33,1.33,0,0,0,107.71,104.07Z" transform="translate(-80.34 -84.12)"/><path class="bb2a10e3-0a07-46dd-aa63-36a74858b51e" d="M108.22,102.44a2.47,2.47,0,0,1-.33,1.21h0l-.23.06a.85.85,0,0,1-.68,0c-.1-.07-.14-.29-.14-.57a1.7,1.7,0,0,1,0-.22,1.77,1.77,0,0,1,.21-.78h1.07a.44.44,0,0,1,.12.15,0,0,0,0,0,0,0Z" transform="translate(-80.34 -84.12)"/><path class="e6d1005e-b2dd-4036-a9f6-4d7240e14908" d="M108.22,102.44a2.47,2.47,0,0,1-.33,1.21h0a.61.61,0,0,1-.07-.24,1.34,1.34,0,0,0-.07-.18.41.41,0,0,1,0-.09l0,0a.16.16,0,0,0-.08-.06.25.25,0,0,0-.12,0,3.21,3.21,0,0,0-.61.09h0a1.7,1.7,0,0,1,0-.22,1.77,1.77,0,0,1,.21-.78h1.07a.44.44,0,0,1,.12.15A1.21,1.21,0,0,1,108.22,102.44Z" transform="translate(-80.34 -84.12)"/><path class="f6e9a5ee-0a9f-4741-9513-298a32868fc7" d="M107.74,103.81a.32.32,0,0,1-.12-.1.31.31,0,0,1-.09-.22,1.12,1.12,0,0,0,.18-.26s0-.09,0-.12a.13.13,0,0,0-.08,0,.49.49,0,0,0-.16.12l-.08-.07,0-.13.07-.2a1,1,0,0,1-.68.07.26.26,0,0,1-.11-.07c-.26-.25-.23-.64.38-.8a1.2,1.2,0,0,1,1,.09.44.44,0,0,1,.12.15,0,0,0,0,0,0,0,.9.9,0,0,1,.12.37C108.42,103.32,107.86,103.88,107.74,103.81Z" transform="translate(-80.34 -84.12)"/><path class="bb2a10e3-0a07-46dd-aa63-36a74858b51e" d="M103.81,104.56a1.13,1.13,0,0,1-.51,0c0-.33.22-.47.41-.56a.6.6,0,0,1,.27.26Z" transform="translate(-80.34 -84.12)"/><path class="bb2a10e3-0a07-46dd-aa63-36a74858b51e" d="M107.89,105.51a2.53,2.53,0,0,1-1.13.81c-.58.1-3-1.76-3-1.76l.17-.35,2.7,1.35.62-.58Z" transform="translate(-80.34 -84.12)"/><path class="f4097a94-adb1-4f5f-a3e5-170756bd9056" d="M106.93,105.27a1.28,1.28,0,0,0,.62.69,2.75,2.75,0,0,0,1-1,.59.59,0,0,0-.6-.63A2.8,2.8,0,0,0,106.93,105.27Z" transform="translate(-80.34 -84.12)"/></g></svg>