<svg id="e62a7c19-f5cf-4245-9881-842cc5a56110" data-name="Layer 1" xmlns="http://www.w3.org/2000/svg" viewBox="0 0 33.85 30.43"><defs><style>.fb7a983b-53dc-49f1-a9f8-a8c4d2655104{fill:#e2efff;}.f316d81b-8bc2-43ef-9f3a-670f9adf4b75{fill:gold;}.b76bb886-8b51-40fc-ade5-80193b964754{fill:#ffe95c;}.fc66f80c-03a5-4e8d-a77d-51764515273e{fill:#003ea0;}.f49eac88-93cc-40e1-bcb4-9a04a82545ac{fill:#0066cf;}.e5f0f41e-a0a1-4e70-b375-b5b3d027550d{fill:#f0f7ff;}.a6024b76-e5b5-4e47-91bd-498081cea301{fill:#f8b682;}.fb2ce4a8-4d6e-42e0-bf9c-dc01355ba4fc{fill:#002d6d;}.f5aa0657-abad-4415-94ec-f1b9cf6754fb{opacity:0.1;}.b88dd315-a16f-4ed2-bf6f-88954730c4d9{fill:#ffcd00;}.e1328ec3-b389-4f82-b7ec-c70535ee3f67{fill:#eeaa78;}.e51b4739-6eb2-4e7e-8c59-3451dee102d2{fill:#ffc49f;}.a020060e-7e16-43b1-b583-ec9eb7d9c087{fill:#005dd1;}.a0b2dd36-b4c0-4f1f-8f3b-561bfd7cd1d4{fill:#003786;}.a5a49c93-fc22-47bf-af4c-cdf3c0d8705f{fill:#005199;}.b8032652-9cc7-48c3-8cc4-09b60fa6bcb5{fill:#0059c4;}.baaf7768-7343-4a6b-bf33-a51d15bb496e{fill:#0066de;}.e1b6c0f9-327b-4a4e-9144-b0bfc2453ac9{fill:#322d4f;}.a2a4d486-8e5d-4eb6-8ec0-64662f5f1469{fill:#414064;}.fcdf1cb3-d3e2-4ca2-a73c-69ff1872a431{fill:#f1f1f1;}.b952d188-f480-4482-9879-039223ef4351{fill:#ffd0aa;}.ac9f26b2-aee0-4af0-8797-6e5cd6c12886{fill:#009b9b;}.afbb569f-773a-4647-8b16-e47e19111643{fill:#ffc494;}
.stars1{
		animation-name: stars;
		animation-duration: 5s;
		animation-iteration-count: infinite;
		transform-box: fill-box;
		transform-origin: center;
	}
	.stars2{
		animation-name: stars;
		animation-duration: 5s;
		animation-iteration-count: infinite;
		animation-direction: reverse;
		transform-box: fill-box;
		transform-origin: center;
	}
	.stars3{
		animation-name: stars;
		animation-duration: 5s;
		animation-iteration-count: infinite;
		animation-delay: 3s;
		transform-box: fill-box;
		transform-origin: center;
	}
	@keyframes stars{
		0%{
		 transform: scale(1);
		 opacity: 0;
		 
		}
		50%{
		 transform: scale(1.5);
		 opacity: 1;
		 
		 
		}
		100%{
		 transform: scale(1);
		 opacity: 0;
		
		}

	}
</style></defs><title>stars-services2</title><g id="ef2fca4b-183a-4547-a017-8375a5155c3a" data-name="Our Team Work"><path class="fb7a983b-53dc-49f1-a9f8-a8c4d2655104" d="M95.3,72.63c-12.9,1-19.08-6.65-18.78-13.95s8.82-9.06,8.82-9.06,5-12.23,12.34-4.38c5.38,6.82,7.56,3.65,11.11,8.2C111.14,56.46,113.43,71.24,95.3,72.63Z" transform="translate(-76.51 -42.61)"/><polygon class="f316d81b-8bc2-43ef-9f3a-670f9adf4b75 stars1" points="5.88 3.02 6.08 3.64 6.7 3.83 6.08 4.02 5.88 4.65 5.69 4.02 5.07 3.83 5.69 3.64 5.88 3.02"/><polygon class="f316d81b-8bc2-43ef-9f3a-670f9adf4b75 stars3" points="28.2 7.76 28.42 8.49 29.15 8.71 28.42 8.93 28.2 9.66 27.98 8.93 27.25 8.71 27.98 8.49 28.2 7.76"/><polygon class="f316d81b-8bc2-43ef-9f3a-670f9adf4b75 stars3" points="1.37 15.95 1.67 16.94 2.66 17.24 1.67 17.54 1.37 18.53 1.07 17.54 0.09 17.24 1.07 16.94 1.37 15.95"/><path class="b76bb886-8b51-40fc-ade5-80193b964754" d="M103.47,49.83l-6.65,4.49,2.25.4a34.59,34.59,0,0,1-7.36,6.35,29.71,29.71,0,0,1-10.1,4l1.26,4.65a33.94,33.94,0,0,0,10.76-6,37.64,37.64,0,0,0,7.05-8l1.36,2Z" transform="translate(-76.51 -42.61)"/><rect class="fc66f80c-03a5-4e8d-a77d-51764515273e" x="11.66" y="22.37" width="14.19" height="3.11" rx="0.37"/><rect class="f49eac88-93cc-40e1-bcb4-9a04a82545ac" x="4.83" y="22.37" width="7.49" height="3.11" rx="0.37"/><path class="e5f0f41e-a0a1-4e70-b375-b5b3d027550d" d="M4.83,22.78h6.47a.26.26,0,0,1,.26.26v1.78a.26.26,0,0,1-.26.26H4.83a0,0,0,0,1,0,0v-2.3A0,0,0,0,1,4.83,22.78Z"/><path class="b76bb886-8b51-40fc-ade5-80193b964754" d="M10.55,24.11h.66a0,0,0,0,1,0,0v1.24a.14.14,0,0,1-.14.14H10.7a.14.14,0,0,1-.14-.14V24.11A0,0,0,0,1,10.55,24.11Z"/><path class="a6024b76-e5b5-4e47-91bd-498081cea301" d="M104.35,70.81l0,.66c-.27.1-.47.28-.72.39a2,2,0,0,0,1.61-.23c.09-.18-.35-.43-.14-1Z" transform="translate(-76.51 -42.61)"/><path class="fb2ce4a8-4d6e-42e0-bf9c-dc01355ba4fc" d="M104.06,72.47c.32,0,.27-.39.5-.41s.37.13.4.48.06.25.06.25a.12.12,0,0,0,.17,0s0-.42.07-.54a.71.71,0,0,0,.14-.47c0-.1,0-.18-.08-.21a.29.29,0,0,0-.1,0c-.39-.07-1,.54-1.54.32,0,0,0,0,0,0a.9.9,0,0,0-.49.17l-.15.08C102.68,72.41,103.73,72.51,104.06,72.47Z" transform="translate(-76.51 -42.61)"/><path class="f5aa0657-abad-4415-94ec-f1b9cf6754fb" d="M104.06,72.47c.32,0,.27-.39.5-.41s.37.13.4.48.06.25.06.25a.12.12,0,0,0,.17,0s0-.42.07-.54a.71.71,0,0,0,.14-.47.46.46,0,0,0-.17-.09h-.07a1,1,0,0,0-.3,0,1.09,1.09,0,0,0-.24.07,1.62,1.62,0,0,0-.19.13l-.1.07a1.34,1.34,0,0,1-.59.25.71.71,0,0,1-.56-.17l-.15.08C102.68,72.41,103.73,72.51,104.06,72.47Z" transform="translate(-76.51 -42.61)"/><path class="a6024b76-e5b5-4e47-91bd-498081cea301" d="M107.11,70.63l.08.67a6.89,6.89,0,0,0-.65.49,2,2,0,0,0,1.55-.47c.07-.19-.41-.37-.28-1Z" transform="translate(-76.51 -42.61)"/><path class="fb2ce4a8-4d6e-42e0-bf9c-dc01355ba4fc" d="M107.06,72.32c.32-.08.22-.43.44-.48s.39.08.46.42.11.24.11.24a.12.12,0,0,0,.16,0s-.12-.41,0-.54a.75.75,0,0,0,.07-.49c0-.1-.05-.17-.11-.19a.18.18,0,0,0-.1,0c-.4,0-1,.69-1.48.55,0,0,0,0,0,0s-.32.13-.45.24l-.14.1C105.69,72.47,106.75,72.41,107.06,72.32Z" transform="translate(-76.51 -42.61)"/><path class="e5f0f41e-a0a1-4e70-b375-b5b3d027550d" d="M106.79,70.77a3.45,3.45,0,0,0,1.52-.3l-.91-4.34c.56-1.9,1.28-3.61.63-4.88l-1.85-.44a28.27,28.27,0,0,0-.19,5.71Z" transform="translate(-76.51 -42.61)"/><path class="f5aa0657-abad-4415-94ec-f1b9cf6754fb" d="M107.06,72.32c.32-.08.22-.43.44-.48s.39.08.46.42.11.24.11.24a.12.12,0,0,0,.16,0s-.12-.41,0-.54a.75.75,0,0,0,.07-.49.64.64,0,0,0-.18-.06H108a1,1,0,0,0-.3,0,.84.84,0,0,0-.22.1c-.06,0-.11.1-.17.15a.76.76,0,0,1-.09.09,1.31,1.31,0,0,1-.55.34.75.75,0,0,1-.57-.09l-.14.1C105.69,72.47,106.75,72.41,107.06,72.32Z" transform="translate(-76.51 -42.61)"/><path class="f5aa0657-abad-4415-94ec-f1b9cf6754fb" d="M107.28,70.73l-.49,0-.8-4.25a23.38,23.38,0,0,1,.14-5,6.38,6.38,0,0,1,.46,3.06c-.5,1.61,0,3.34.29,5a4.76,4.76,0,0,0,.23.9A2.14,2.14,0,0,0,107.28,70.73Z" transform="translate(-76.51 -42.61)"/><path class="e5f0f41e-a0a1-4e70-b375-b5b3d027550d" d="M104,70.89a3.38,3.38,0,0,0,1.55-.07l-.26-4.43c.84-1.79,1.81-3.38,1.35-4.73L104.9,61a28.33,28.33,0,0,0-1.05,5.62Z" transform="translate(-76.51 -42.61)"/><path class="f5aa0657-abad-4415-94ec-f1b9cf6754fb" d="M105.24,64.08c-.41.93-1.14,1.78-1.16,2.8a4,4,0,0,0,.08.85,13,13,0,0,1,0,3.11.19.19,0,0,1,0,.07l-.18,0-.16-4.32A28.94,28.94,0,0,1,104.9,61l.63.25h0a1.47,1.47,0,0,1,.12.55A4.74,4.74,0,0,1,105.24,64.08Z" transform="translate(-76.51 -42.61)"/><path class="a6024b76-e5b5-4e47-91bd-498081cea301" d="M102.07,59.18s-.44-.23-.64-.08.13.13.06.14-.61.29-.53.51a.68.68,0,0,0,.46.34,1,1,0,0,0,.71-.25,2.18,2.18,0,0,0,.21-.26A.38.38,0,0,0,102.07,59.18Z" transform="translate(-76.51 -42.61)"/><path class="a6024b76-e5b5-4e47-91bd-498081cea301" d="M104.05,57.83l.54.86c-.65.31-1.49.54-2.25.89l-.27-.41Z" transform="translate(-76.51 -42.61)"/><path class="b88dd315-a16f-4ed2-bf6f-88954730c4d9" d="M104.93,55.68l1.83.5a5.65,5.65,0,0,1-1.2,2,6.12,6.12,0,0,1-.58.36l-.39.18-.54-.86.37-.25.38-.26Z" transform="translate(-76.51 -42.61)"/><path class="fc66f80c-03a5-4e8d-a77d-51764515273e" d="M104.33,57.5l.09.08a2.32,2.32,0,0,0,.56.93l0,.11c-.16.09-.26.15-.43.07l-.54-.86A.8.8,0,0,1,104.33,57.5Z" transform="translate(-76.51 -42.61)"/><path class="f316d81b-8bc2-43ef-9f3a-670f9adf4b75" d="M104.21,63c-.1.49,3.65-.09,4.1-.83-.42-2.57-.56-5.78-1.84-6.26a3,3,0,0,0-1.73.58,3,3,0,0,0-.93,1.63C103.46,60,105.09,60.19,104.21,63Z" transform="translate(-76.51 -42.61)"/><path class="e1328ec3-b389-4f82-b7ec-c70535ee3f67" d="M105.77,56.2a2.34,2.34,0,0,1-.16-.82l-.7,0a1.41,1.41,0,0,1,0,1.12A.7.7,0,0,0,105.77,56.2Z" transform="translate(-76.51 -42.61)"/><path class="a6024b76-e5b5-4e47-91bd-498081cea301" d="M105.77,55.47c-.45.07-1,.5-1.28.27a2,2,0,0,1,.11-2L106,54Z" transform="translate(-76.51 -42.61)"/><path class="fc66f80c-03a5-4e8d-a77d-51764515273e" d="M109.1,60.44l-.93,3.6a.49.49,0,0,1-.61.36l-4.44-1.14-.82-.21-2.83-.73a.51.51,0,0,1-.36-.61l.93-3.6a.5.5,0,0,1,.61-.37l3.5.91,1.16.3,3.43.88A.5.5,0,0,1,109.1,60.44Z" transform="translate(-76.51 -42.61)"/><path class="e5f0f41e-a0a1-4e70-b375-b5b3d027550d" d="M103.42,60.68l-2.13-.54a.46.46,0,0,1-.32-.55h0a.45.45,0,0,1,.55-.33l2.12.55a.45.45,0,0,1,.33.55h0A.44.44,0,0,1,103.42,60.68Z" transform="translate(-76.51 -42.61)"/><path class="e5f0f41e-a0a1-4e70-b375-b5b3d027550d" d="M106.71,63.13l-5.8-1.49a.46.46,0,0,1-.33-.55h0a.45.45,0,0,1,.55-.33l5.8,1.49a.46.46,0,0,1,.33.56h0A.45.45,0,0,1,106.71,63.13Z" transform="translate(-76.51 -42.61)"/><path class="f5aa0657-abad-4415-94ec-f1b9cf6754fb" d="M105.31,59a7.46,7.46,0,0,1-.24,1,3.35,3.35,0,0,1-.29.62l.1.07c-.08.17-.14.27-.32.3a7.11,7.11,0,0,1-.41.6l-.59.78c-.14.19-.27.39-.4.59a2.11,2.11,0,0,1,0,.33v0l-.82-.21.4-.33h0l.23-.55.36-.84.26-.62.08-.19a.83.83,0,0,1,.06-.43l.12,0,.06-.15.12-.27.16-1,.19-1.2,1,.61A3.37,3.37,0,0,1,105.31,59Z" transform="translate(-76.51 -42.61)"/><path class="fb2ce4a8-4d6e-42e0-bf9c-dc01355ba4fc" d="M104.66,54.58a.51.51,0,0,1-.46.1c-.27-.08-.16-1.45.51-1.28s.82-.15,1.29.55.19,1.7.52,1.94-.41.87-1.07.93-.85-1-.58-1.49A.54.54,0,0,0,104.66,54.58Z" transform="translate(-76.51 -42.61)"/><path class="a6024b76-e5b5-4e47-91bd-498081cea301" d="M102.61,62.35l-.45.36c-.11.1,0,.35,0,.4a.91.91,0,0,0,.7.13c.15,0,0-.18.12-.38a1.27,1.27,0,0,0,0-.33A.4.4,0,0,0,102.61,62.35Z" transform="translate(-76.51 -42.61)"/><path class="a6024b76-e5b5-4e47-91bd-498081cea301" d="M103.54,60.14l.93.43c-.38.62-1,1.26-1.41,2l-.45-.2Z" transform="translate(-76.51 -42.61)"/><path class="f316d81b-8bc2-43ef-9f3a-670f9adf4b75" d="M104.24,57.08l1,.61a3.76,3.76,0,0,1-.21,1.89,3.68,3.68,0,0,1-.29.62l-.22.37-.93-.43.17-.41.18-.43Z" transform="translate(-76.51 -42.61)"/><path class="fc66f80c-03a5-4e8d-a77d-51764515273e" d="M103.59,59.71l.12,0a2.35,2.35,0,0,0,1,.47l.1.07c-.09.16-.14.27-.32.3l-.93-.43A1,1,0,0,1,103.59,59.71Z" transform="translate(-76.51 -42.61)"/><path class="e51b4739-6eb2-4e7e-8c59-3451dee102d2" d="M90.57,59a3.39,3.39,0,0,0,1.83.39c.77-.19,2.49-3.35,2.49-3.35,0-.26,0-.61-.39-.33l-2.4,2.7L91,58.06Z" transform="translate(-76.51 -42.61)"/><path class="a020060e-7e16-43b1-b583-ec9eb7d9c087" d="M91.63,58.21a1.8,1.8,0,0,1-.39,1.18c-.68-.14-1.43,0-1.9-.4a1.15,1.15,0,0,1,.54-1.34A3.8,3.8,0,0,1,91.63,58.21Z" transform="translate(-76.51 -42.61)"/><rect class="a0b2dd36-b4c0-4f1f-8f3b-561bfd7cd1d4" x="9.94" y="25.47" width="14.19" height="3.11" rx="0.37"/><rect class="a5a49c93-fc22-47bf-af4c-cdf3c0d8705f" x="3.11" y="25.47" width="7.49" height="3.11" rx="0.37"/><path class="e5f0f41e-a0a1-4e70-b375-b5b3d027550d" d="M3.11,25.87H9.58a.26.26,0,0,1,.26.26v1.78a.26.26,0,0,1-.26.26H3.11a0,0,0,0,1,0,0v-2.3A0,0,0,0,1,3.11,25.87Z"/><path class="b76bb886-8b51-40fc-ade5-80193b964754" d="M8.83,26.37h.66a0,0,0,0,1,0,0v2.26a.19.19,0,0,1-.19.19H9a.19.19,0,0,1-.19-.19V26.37A0,0,0,0,1,8.83,26.37Z"/><path class="a6024b76-e5b5-4e47-91bd-498081cea301" d="M97.47,70.38a1.74,1.74,0,0,0,.07.82l-.87.1c0-.42.17-.7.14-1Z" transform="translate(-76.51 -42.61)"/><path class="b8032652-9cc7-48c3-8cc4-09b60fa6bcb5" d="M96.67,71c-.17.19-.26.6-.08.69a4.46,4.46,0,0,0,2,0c.17-.13-.87-.72-1.12-.66C97,71.14,96.65,71.07,96.67,71Z" transform="translate(-76.51 -42.61)"/><path class="e5f0f41e-a0a1-4e70-b375-b5b3d027550d" d="M97.68,70.37a1.7,1.7,0,0,1-1.16.2l-.9-5.27c-1.47-.26-3.34-.75-3.3-2.31l1.38-.71c1.61.74,3.53.78,3.76,2.43Z" transform="translate(-76.51 -42.61)"/><path class="f5aa0657-abad-4415-94ec-f1b9cf6754fb" d="M96.59,70.53a.11.11,0,0,1,0,0l-.06,0-.89-5.26a5.12,5.12,0,0,1-2.91-1.2,3,3,0,0,1,.6,0c.16,0,.31.11.46.15a5.59,5.59,0,0,0,1.08.13,1.62,1.62,0,0,1,1,.37,1.47,1.47,0,0,1,.4,1,9.56,9.56,0,0,1,0,1.07c0,.36,0,.72.07,1.08a5.17,5.17,0,0,0,.16,1c0,.15.1.3.14.45A2.22,2.22,0,0,1,96.59,70.53Z" transform="translate(-76.51 -42.61)"/><path class="a6024b76-e5b5-4e47-91bd-498081cea301" d="M93.6,70.27a1.94,1.94,0,0,0-.22.79l-.84-.2c.12-.4.39-.6.46-.89Z" transform="translate(-76.51 -42.61)"/><path class="b8032652-9cc7-48c3-8cc4-09b60fa6bcb5" d="M92.64,70.57c-.22.12-.45.48-.31.63a4.58,4.58,0,0,0,1.87.66c.2-.06-.57-1-.82-1C92.89,70.81,92.59,70.63,92.64,70.57Z" transform="translate(-76.51 -42.61)"/><path class="e5f0f41e-a0a1-4e70-b375-b5b3d027550d" d="M93.8,70.33a1.84,1.84,0,0,1-1.16-.21l1-5.26c-1,.3-2.58.42-2.45-1.6l1.67-1.9c1.26,1.25,3.06,1.94,2.71,3.57Z" transform="translate(-76.51 -42.61)"/><path class="f5aa0657-abad-4415-94ec-f1b9cf6754fb" d="M94,65.31c-.14.64-.47,1.21-.65,1.84-.08.26-.13.54-.22.8a1.42,1.42,0,0,1-.08.18l.59-3.27c-.76.24-1.9.36-2.3-.56l.1.07a1.79,1.79,0,0,0,.34.22,1.36,1.36,0,0,0,.75,0l.63,0a1.32,1.32,0,0,1,.49.06.53.53,0,0,1,.35.32A.77.77,0,0,1,94,65.31Z" transform="translate(-76.51 -42.61)"/><path class="a6024b76-e5b5-4e47-91bd-498081cea301" d="M97.79,62.35l-.21.39,0,0-.37-.17c-.82-.38-1.72-.79-2.36-1.16-.19-.12-.36-.23-.5-.34a1,1,0,0,1-.35-.36.66.66,0,0,1,0-.38c.06-.23.16-.55.28-.87a3.39,3.39,0,0,1,.67-.94c.48.11.69,0,.72.61a7.71,7.71,0,0,1-.31.83h0l-.11.16s0,0,0,0a1.45,1.45,0,0,1-.19.23l.91.65,1.4,1Z" transform="translate(-76.51 -42.61)"/><path class="fb2ce4a8-4d6e-42e0-bf9c-dc01355ba4fc" d="M95.37,60a4.2,4.2,0,0,1-1.09-.52c-.12-.2.73-1.51,1-1.65a.9.9,0,0,1,.53.77A3.1,3.1,0,0,1,95.37,60Z" transform="translate(-76.51 -42.61)"/><path class="fb2ce4a8-4d6e-42e0-bf9c-dc01355ba4fc" d="M95.2,62.88c0,.55-3.27,1.17-4.06.38a11.51,11.51,0,0,1,1.39-5.38,3.08,3.08,0,0,1,2.72-.05C95.57,60.55,94.37,60.18,95.2,62.88Z" transform="translate(-76.51 -42.61)"/><path class="f5aa0657-abad-4415-94ec-f1b9cf6754fb" d="M91.14,63.26c.69.7,2.89.42,3.52,0-.13-.08-1.19,0-1.69-.19s-.67-1.19-.66-1.34a8.37,8.37,0,0,1,.9-2.48,4.09,4.09,0,0,0-.1-.61,1.19,1.19,0,0,0-.56-.77h0A11.46,11.46,0,0,0,91.14,63.26Z" transform="translate(-76.51 -42.61)"/><path class="a6024b76-e5b5-4e47-91bd-498081cea301" d="M94.39,57.87l.1-.87-.7-.13-.57.76A1,1,0,0,0,94.39,57.87Z" transform="translate(-76.51 -42.61)"/><path class="f5aa0657-abad-4415-94ec-f1b9cf6754fb" d="M93.22,57.63a.75.75,0,0,0,.16.13.92.92,0,0,0,.13-.14.55.55,0,0,1,.5-.12c.13,0,.27.06.41.07l.07-.57-.7-.13Z" transform="translate(-76.51 -42.61)"/><path class="a6024b76-e5b5-4e47-91bd-498081cea301" d="M93.73,55.23,93.53,57v0c.38.23.51.66,1.13.64a2.09,2.09,0,0,0,.68-1,6.85,6.85,0,0,1,.26-.68l-.91-.81Z" transform="translate(-76.51 -42.61)"/><path class="f5aa0657-abad-4415-94ec-f1b9cf6754fb" d="M93.71,55.29,93.53,57c.11-.05.15,0,.21-.08a.41.41,0,0,1,.07-.15l.09-.08a1.76,1.76,0,0,1,.58-.29,1.28,1.28,0,0,1,.87.2,6.85,6.85,0,0,1,.26-.68l-.91-.81Z" transform="translate(-76.51 -42.61)"/><path class="baaf7768-7343-4a6b-bf33-a51d15bb496e" d="M95.46,56.24a1.52,1.52,0,0,1-.88-.06l0,.66H94.4s0-.65-.24-.56-.16.4-.12.56-.23.47-.23.47a1.11,1.11,0,0,1-.64-1c-.07-1,.78-2,2.33-1.17C96.3,55.6,95.53,56.21,95.46,56.24Z" transform="translate(-76.51 -42.61)"/><path class="e1b6c0f9-327b-4a4e-9144-b0bfc2453ac9" d="M95.67,62.64l-2,1.25a.2.2,0,0,0,0,.36l1.82.6a.19.19,0,0,0,.18,0l1.86-1.43a.19.19,0,0,0-.07-.34l-1.68-.43A.16.16,0,0,0,95.67,62.64Z" transform="translate(-76.51 -42.61)"/><path class="a2a4d486-8e5d-4eb6-8ec0-64662f5f1469" d="M95.65,64.62l.25-2.26a.33.33,0,0,1,.15-.23l2.27-1.44a.11.11,0,0,1,.18.11L98.15,63a.32.32,0,0,1-.13.22l-2.18,1.54A.12.12,0,0,1,95.65,64.62Z" transform="translate(-76.51 -42.61)"/><path class="a6024b76-e5b5-4e47-91bd-498081cea301" d="M95,62.78l-.22.39v0L94.36,63c-.82-.37-1.72-.79-2.36-1.16a5.06,5.06,0,0,1-.51-.33,1.3,1.3,0,0,1-.35-.37.82.82,0,0,1,0-.38,7.37,7.37,0,0,1,.27-.87,3.35,3.35,0,0,1,.68-.94c.47.12.68,0,.71.61a6,6,0,0,1-.31.83h0c0,.06-.07.11-.1.16v0l-.19.24.91.64,1.4,1Z" transform="translate(-76.51 -42.61)"/><path class="a6024b76-e5b5-4e47-91bd-498081cea301" d="M95.49,63.15c.06.11.22.3.15.46-.21,0-.36-.31-.91-.41l.23-.42a.41.41,0,0,1,.25,0C95.29,62.78,95.45,63.07,95.49,63.15Z" transform="translate(-76.51 -42.61)"/><path class="fb2ce4a8-4d6e-42e0-bf9c-dc01355ba4fc" d="M92.53,60.43a4,4,0,0,1-1.08-.52,5.15,5.15,0,0,1,1.08-2,1.26,1.26,0,0,1,.6.9A3.89,3.89,0,0,1,92.53,60.43Z" transform="translate(-76.51 -42.61)"/><path class="fcdf1cb3-d3e2-4ca2-a73c-69ff1872a431" d="M97.37,62.48a.52.52,0,0,1-.27.42c-.15.08-.28,0-.28-.14a.48.48,0,0,1,.26-.42C97.23,62.26,97.36,62.32,97.37,62.48Z" transform="translate(-76.51 -42.61)"/><path class="f5aa0657-abad-4415-94ec-f1b9cf6754fb" d="M81.73,72.84c0,.11.48.2,1.07.2s1.06-.09,1.06-.2-.48-.21-1.06-.21S81.73,72.72,81.73,72.84Z" transform="translate(-76.51 -42.61)"/><path class="b952d188-f480-4482-9879-039223ef4351" d="M87.94,71.68c0,.32-.35.5-.16.77l1.29.06a.72.72,0,0,1-.39-.79Z" transform="translate(-76.51 -42.61)"/><path class="fb2ce4a8-4d6e-42e0-bf9c-dc01355ba4fc" d="M89.77,72.68c0-.17-.79-.33-1-.54a1.48,1.48,0,0,1-1,0,.89.89,0,0,0-.09.54C87.61,72.94,89.77,72.87,89.77,72.68Z" transform="translate(-76.51 -42.61)"/><path class="e5f0f41e-a0a1-4e70-b375-b5b3d027550d" d="M88.76,71.8h-.89s-.76-4-1.2-5.35A37.14,37.14,0,0,0,84.36,62L87,61s1.31,3.82,1.54,5.15S88.76,71.8,88.76,71.8Z" transform="translate(-76.51 -42.61)"/><path class="f5aa0657-abad-4415-94ec-f1b9cf6754fb" d="M85,63.07a25.63,25.63,0,0,1,1.68,3.37c.43,1.35,1.2,5.36,1.2,5.36H88a.13.13,0,0,0,0-.06c0-.45,0-.9-.07-1.34a9,9,0,0,0-.09-1c0-.27-.12-.55-.19-.82-.27-1-.58-2-.89-3a5.91,5.91,0,0,0-.61-1.38A5.08,5.08,0,0,0,85,63.07Z" transform="translate(-76.51 -42.61)"/><path class="e5f0f41e-a0a1-4e70-b375-b5b3d027550d" d="M83.24,71.63l-.84-.41A50.33,50.33,0,0,0,84,66a19.45,19.45,0,0,0,.12-3.5l2.68-1.28a49.85,49.85,0,0,1-1,5.36A51.87,51.87,0,0,1,83.24,71.63Z" transform="translate(-76.51 -42.61)"/><path class="b952d188-f480-4482-9879-039223ef4351" d="M82.48,71.26c-.08.31-.5.35-.41.67l1.19.49a.72.72,0,0,1-.1-.87Z" transform="translate(-76.51 -42.61)"/><path class="fb2ce4a8-4d6e-42e0-bf9c-dc01355ba4fc" d="M83.86,72.82c0-.17-.63-.58-.76-.84a1.47,1.47,0,0,1-.95-.38.84.84,0,0,0-.27.48C81.74,72.33,83.8,73,83.86,72.82Z" transform="translate(-76.51 -42.61)"/><path class="f5aa0657-abad-4415-94ec-f1b9cf6754fb" d="M82.42,71.15c.06,0,1.53-3.52,1.61-3.81s.16-.59.22-.88.09-.65.11-1,0-.58,0-.87a1.57,1.57,0,0,1,.07-.61,1.29,1.29,0,0,1,.73-.51,10.52,10.52,0,0,1,1.2-.3.42.42,0,0,0-.16-.52,1.22,1.22,0,0,0-.56-.17,2.89,2.89,0,0,0-.72,0,2.71,2.71,0,0,0-.8.39A17.22,17.22,0,0,1,84,66,44.85,44.85,0,0,1,82.42,71.15Z" transform="translate(-76.51 -42.61)"/><path class="ac9f26b2-aee0-4af0-8797-6e5cd6c12886" d="M87.82,63.22c-1,.54-3.07.48-3.84-.41.9-1.77,2.58-5.08,4-5.37a3.42,3.42,0,0,1,2.67.4C90.38,61.14,87.65,61.57,87.82,63.22Z" transform="translate(-76.51 -42.61)"/><path class="a020060e-7e16-43b1-b583-ec9eb7d9c087" d="M90.74,57.81a5,5,0,0,1-.87,2.37c-.88,1.35-2.17,1.91-2.05,3.06-1,.54-3.07.47-3.84-.41,0,0,0-.11.08-.17.93-1.8,2.54-4.91,3.91-5.2A4.25,4.25,0,0,1,90.74,57.81Z" transform="translate(-76.51 -42.61)"/><path class="afbb569f-773a-4647-8b16-e47e19111643" d="M88.88,57.29a.59.59,0,0,0,.14.31c.22.33.71.45.9.22a.52.52,0,0,1,0-.25,3.67,3.67,0,0,1,.44-.72l-.83-.27A2.86,2.86,0,0,1,88.88,57.29Z" transform="translate(-76.51 -42.61)"/><path class="f5aa0657-abad-4415-94ec-f1b9cf6754fb" d="M89.07,57.39a.17.17,0,0,1,.06-.1.1.1,0,0,1,.11,0,1,1,0,0,1,.48.17l.21.13a3.67,3.67,0,0,1,.44-.72l-.83-.27a2.86,2.86,0,0,1-.66.71.59.59,0,0,0,.14.31A.81.81,0,0,1,89.07,57.39Z" transform="translate(-76.51 -42.61)"/><path class="b952d188-f480-4482-9879-039223ef4351" d="M89.1,56.85l.05,0c.47.31.72.56,1.25.52.18,0,.36-.34.51-.72a3.2,3.2,0,0,0,.23-1.51l-1.63-.62A3.38,3.38,0,0,0,89.1,56.85Z" transform="translate(-76.51 -42.61)"/><path class="f5aa0657-abad-4415-94ec-f1b9cf6754fb" d="M89.1,56.85l.05,0a1,1,0,0,0,.23-.3,1.34,1.34,0,0,1,.32-.31.37.37,0,0,1,.22-.1.47.47,0,0,1,.17,0,4.83,4.83,0,0,1,.8.45l0,0a3.2,3.2,0,0,0,.23-1.51l-1.63-.62A3.38,3.38,0,0,0,89.1,56.85Z" transform="translate(-76.51 -42.61)"/><path class="fb2ce4a8-4d6e-42e0-bf9c-dc01355ba4fc" d="M90.1,55.92s.6.66,1.09.42.6-1.42-.16-1.47c-1-.07-1.12-.82-2,.07a1.67,1.67,0,0,0,.27,2.11c.39.08.35-.23.35-.23s-.2-.51,0-.6.27.27.27.27l.15-.06Z" transform="translate(-76.51 -42.61)"/><path class="f5aa0657-abad-4415-94ec-f1b9cf6754fb" d="M89.28,60.93c-.77.86-1.55,1.4-1.46,2.3-1,.55-3.07.48-3.84-.4l0,0,0,0a4.29,4.29,0,0,0,2.9.26,1,1,0,0,0,.68-.53,2,2,0,0,0,.08-.26,6.08,6.08,0,0,1,.55-.78c.21-.4-.31-1.42-.42-1.86a1.85,1.85,0,0,1,0-1.27c.25.53.73,1.54,1,2A2.59,2.59,0,0,0,89.28,60.93Z" transform="translate(-76.51 -42.61)"/><path class="b952d188-f480-4482-9879-039223ef4351" d="M93.72,60.74c.39.1.44-.2.64-.23s.56.18.54,0-.72-.44-1.16-.31S93.72,60.74,93.72,60.74Z" transform="translate(-76.51 -42.61)"/><path class="b952d188-f480-4482-9879-039223ef4351" d="M88.21,59.26a3.84,3.84,0,0,0,.9,1.65c.62.49,4.61-.17,4.61-.17l0-.51-4-.16L89.34,59Z" transform="translate(-76.51 -42.61)"/><path class="a020060e-7e16-43b1-b583-ec9eb7d9c087" d="M89.59,59.58A2.13,2.13,0,0,1,88.3,60a3.6,3.6,0,0,1-.46-1.82A.8.8,0,0,1,89,57.86,3.86,3.86,0,0,1,89.59,59.58Z" transform="translate(-76.51 -42.61)"/><path class="fb2ce4a8-4d6e-42e0-bf9c-dc01355ba4fc" d="M81.56,53.44v3h3.06a3.06,3.06,0,1,1-3.06-3Z" transform="translate(-76.51 -42.61)"/><path class="b76bb886-8b51-40fc-ade5-80193b964754" d="M82,53a3.06,3.06,0,0,1,3.06,3H82Z" transform="translate(-76.51 -42.61)"/></g></svg>