<svg id="e136ea67-f49c-4512-91fb-09d6dcaf2c9f" data-name="Layer 1" xmlns="http://www.w3.org/2000/svg" viewBox="0 0 35.79 33.77"><defs><style>.bc39b858-4dc6-4258-8e18-b60ced0e5ba1{fill:#e2efff;}.e8fb8a59-d8d5-4cd4-97a1-9b64bc191f60{fill:gold;}.b05b5694-172f-4a6f-af33-09006606df3f{fill:#003ea0;}.f6ee2b16-c255-4f06-b4a9-16202aaf675b{fill:#002d6d;}.bcb67a78-d69a-45bd-8bc2-06425bf6b74a{fill:#0054ad;}.b9fb4acc-6c7d-4484-b8bb-1e859d929ff3{fill:#f0f7ff;}.ebd00ab4-46ec-4382-9cf7-721ad59efa11{fill:#ffe95c;}.a35525aa-16ad-48e0-9bee-363d46871f3e,.a5d7a04a-09b3-48c8-88e8-f8f04eb00030{opacity:0.1;}.b25433a8-c702-435b-9ee6-4506efea4548{fill:#f8b682;}.ab584120-ff5b-4990-9dd6-c29308106b07{fill:#003c86;}.bb1a852d-f493-4127-8d6c-e55001a3485f{fill:#b5c7e3;}.f36e135e-16b8-4b04-8dff-5dce1a7f78de{fill:#eeaa78;}.bd0fd682-28ae-4e70-841b-f4ed22d47691{fill:#ffcd00;}.a6215283-b601-4fbc-9c2a-b3f8398efdaf{fill:#4774bb;}
.stars1{
		animation-name: stars;
		animation-duration: 5s;
		animation-iteration-count: infinite;
		transform-box: fill-box;
		transform-origin: center;
	}
	.stars2{
		animation-name: stars;
		animation-duration: 5s;
		animation-iteration-count: infinite;
		animation-direction: reverse;
		transform-box: fill-box;
		transform-origin: center;
	}
	.stars3{
		animation-name: stars;
		animation-duration: 5s;
		animation-iteration-count: infinite;
		animation-delay: 3s;
		transform-box: fill-box;
		transform-origin: center;
	}
	@keyframes stars{
		0%{
		 transform: scale(1);
		 opacity: 0;
		 
		}
		50%{
		 transform: scale(1.5);
		 opacity: 1;
		 
		 
		}
		100%{
		 transform: scale(1);
		 opacity: 0;
		
		}

	}
</style></defs><title>stars-services3</title><g id="b61481ac-2b73-4305-aa88-63afbdc44b0d" data-name="Business Plan"><path class="bc39b858-4dc6-4258-8e18-b60ced0e5ba1" d="M92.53,34.56c14.61-.55,22.15-20.13,15.25-19.69-9.57.61-7.35-3.56-10.22-9.14-1.92-3.73-7-5.24-10.7.58S83.88,12,79,14C70.35,17.59,74.21,35.25,92.53,34.56Z" transform="translate(-74.58 -2.43)"/><polygon class="e8fb8a59-d8d5-4cd4-97a1-9b64bc191f60 stars1" points="8.31 2 8.49 2.57 9.05 2.75 8.49 2.92 8.31 3.48 8.14 2.92 7.58 2.75 8.14 2.57 8.31 2"/><polygon class="e8fb8a59-d8d5-4cd4-97a1-9b64bc191f60 stars2" points="33.19 8.73 33.39 9.36 34.02 9.56 33.39 9.75 33.19 10.38 33 9.75 32.37 9.56 33 9.36 33.19 8.73"/><polygon class="e8fb8a59-d8d5-4cd4-97a1-9b64bc191f60 stars3" points="2.19 17.71 2.5 18.7 3.49 19.01 2.5 19.31 2.19 20.31 1.89 19.31 0.89 19.01 1.89 18.7 2.19 17.71"/><path class="b05b5694-172f-4a6f-af33-09006606df3f" d="M93.17,23.15v9.94a.23.23,0,0,1-.23.22h0a.21.21,0,0,1-.17-.21V23.15a.22.22,0,0,1,.22-.22A.23.23,0,0,1,93.17,23.15Z" transform="translate(-74.58 -2.43)"/><path class="b05b5694-172f-4a6f-af33-09006606df3f" d="M98.3,33.91a.23.23,0,0,1-.13.29h-.08a.2.2,0,0,1-.2-.14l-2.34-6.14-1.81-4.78-.1-.24a.21.21,0,0,1,.13-.28.21.21,0,0,1,.28.13l.15.39,1.55,4.05Z" transform="translate(-74.58 -2.43)"/><path class="b05b5694-172f-4a6f-af33-09006606df3f" d="M92.25,22.91l-.1.24-1.51,4L88,34.07a.2.2,0,0,1-.2.14h-.08a.22.22,0,0,1-.12-.29l2.58-6.8,1.51-4,.15-.39a.22.22,0,0,1,.42.15Z" transform="translate(-74.58 -2.43)"/><path class="f6ee2b16-c255-4f06-b4a9-16202aaf675b" d="M105.51,11.53l-3.09,9.82-.32,1a.14.14,0,0,1,0,.06,1.21,1.21,0,0,1-1.07.72H84.16a.58.58,0,0,1-.63-.71.14.14,0,0,0,0-.07l.19-.57.49-1.56L87,11.53a1.21,1.21,0,0,1,1.1-.77h16.84A.58.58,0,0,1,105.51,11.53Z" transform="translate(-74.58 -2.43)"/><path class="bcb67a78-d69a-45bd-8bc2-06425bf6b74a" d="M104.81,10.76a.14.14,0,0,1,0,.06l-3.4,10.84a1.22,1.22,0,0,1-1.1.78H83.45a.93.93,0,0,1-.24,0,.56.56,0,0,1-.37-.75l.47-1.51,2.93-9.33a1.22,1.22,0,0,1,1.1-.78h16.84A.58.58,0,0,1,104.81,10.76Z" transform="translate(-74.58 -2.43)"/><path class="b9fb4acc-6c7d-4484-b8bb-1e859d929ff3" d="M97.56,20H89.19a1.08,1.08,0,0,1-1.08-1.08V13a1.08,1.08,0,0,1,1.08-1.08h8.37v.42H89.19a.66.66,0,0,0-.66.66V18.9a.66.66,0,0,0,.66.67h8.37Z" transform="translate(-74.58 -2.43)"/><rect class="f6ee2b16-c255-4f06-b4a9-16202aaf675b" x="11.3" y="11.61" width="4.88" height="3.83" rx="0.54"/><rect class="f6ee2b16-c255-4f06-b4a9-16202aaf675b" x="20.55" y="7.78" width="4.88" height="3.83" rx="0.54"/><rect class="f6ee2b16-c255-4f06-b4a9-16202aaf675b" x="20.55" y="15.43" width="4.88" height="3.83" rx="0.54"/><path class="b9fb4acc-6c7d-4484-b8bb-1e859d929ff3" d="M97.3,12.65a.42.42,0,0,0,.59,0l1.6-1.59-.3-.3L97.6,12.35,97.22,12a.46.46,0,0,0-.6,0l-1,1,.3.29,1-1Z" transform="translate(-74.58 -2.43)"/><rect class="b9fb4acc-6c7d-4484-b8bb-1e859d929ff3" x="12.74" y="12.97" width="0.42" height="1.17"/><rect class="b9fb4acc-6c7d-4484-b8bb-1e859d929ff3" x="13.41" y="12.8" width="0.42" height="1.34"/><rect class="b9fb4acc-6c7d-4484-b8bb-1e859d929ff3" x="14.08" y="12.44" width="0.42" height="1.69"/><path class="ebd00ab4-46ec-4382-9cf7-721ad59efa11" d="M97.56,18.34a1,1,0,0,0-1,1,1,1,0,0,0,.49.84v.53a.5.5,0,0,0,.5.51.51.51,0,0,0,.51-.51v-.53a1,1,0,0,0,.48-.84A1,1,0,0,0,97.56,18.34Zm.2,2.36a.2.2,0,1,1-.39,0v-.41a.62.62,0,0,0,.19,0h.2Zm-.2-.7a.67.67,0,0,1-.67-.67.68.68,0,1,1,.67.67Z" transform="translate(-74.58 -2.43)"/><g class="a35525aa-16ad-48e0-9bee-363d46871f3e"><path d="M87.4,17.52c0,.15.2.51,0,.66a1.3,1.3,0,0,1-.29.14c-.47.67-.85,1.44-1.26,2,0,.18-.05.27-.16.41l-.1-.07,0,0h0a3.28,3.28,0,0,1-.3.33l-.15.15-.1.06a2.77,2.77,0,0,1-.37.22l-.14.06a2.39,2.39,0,0,1-.37.15l-.16.05-.3.09-.43.11a2.83,2.83,0,0,1-.08.4v0s0,0,0,.06a.56.56,0,0,1-.37-.75l.47-1.51.92.09.3,0,.32-.31-.06-.1a.81.81,0,0,1,.37-.22L86.81,18h0s.07-.24.17-.55c0-.14.55-.54.6-.47S87.31,17.26,87.4,17.52Z" transform="translate(-74.58 -2.43)"/><path d="M92.79,31.55l.1,1.75a.21.21,0,0,1-.17-.21V30.45Z" transform="translate(-74.58 -2.43)"/><path d="M95.75,27.2l-.18.69,0,0-1.81-4.78h-.57v6.14c-.15.29-.3.6-.45.92V23.15h-.57l-1.51,4-.12,0-.16,0s0,0,0,0a.39.39,0,0,1-.15,0,1,1,0,0,1-.56-.15.16.16,0,0,1-.06-.11l-2.67-.68a.5.5,0,0,1-.35-.61l.61-2.41.19-.71.12-.48a.51.51,0,0,1,.61-.36l3.11.81a3.26,3.26,0,0,1,0-.41,1.8,1.8,0,0,1,0-.19,5,5,0,0,1-.55-.21l-.06.1c-.16-.07-.27-.12-.32-.29-.64-.34-1.33-.87-2.06-1.27a1.24,1.24,0,0,1-.33,0,1,1,0,0,1-.63-.41.64.64,0,0,1,0-.57c.12-.2.61,0,.72.12s0-.16.07-.14c.25.07.33.55.33.55v0l2.25.77a.79.79,0,0,1,.43,0v.12l.43.14.57-.36h0s0,0,0,0l.11-.07a1.2,1.2,0,0,1-.11-.62.33.33,0,0,1-.28-.06,1.52,1.52,0,0,1-.2-1,.2.2,0,0,1-.1,0c-.27-.08-.16-1.44.51-1.27s.82-.15,1.29.55.19,1.7.52,1.93a.19.19,0,0,1,.07.12c.61.33,1,1.33,1.18,2.57,0,.23.09.47.13.71H94.2Z" transform="translate(-74.58 -2.43)"/></g><path class="b25433a8-c702-435b-9ee6-4506efea4548" d="M86.52,17.54s.08-.24.17-.55c0-.14.56-.54.61-.47s-.29.29-.21.55.21.52,0,.65a1,1,0,0,1-.28.15A.38.38,0,0,1,86.52,17.54Z" transform="translate(-74.58 -2.43)"/><path class="b25433a8-c702-435b-9ee6-4506efea4548" d="M81.75,33.24l.06.65c.27.08.48.24.73.34A2,2,0,0,1,81,34.11c-.1-.17.32-.45.07-1Z" transform="translate(-74.58 -2.43)"/><path class="f6ee2b16-c255-4f06-b4a9-16202aaf675b" d="M82.15,34.85c-.32,0-.3-.37-.52-.37s-.36.16-.36.5,0,.25,0,.25a.11.11,0,0,1-.16,0s0-.42-.11-.52a.8.8,0,0,1-.17-.45.22.22,0,0,1,.07-.22s.06,0,.09,0c.38-.1,1.07.45,1.54.21h0c.1,0,.34.06.49.13a.69.69,0,0,1,.15.07C83.5,34.7,82.47,34.87,82.15,34.85Z" transform="translate(-74.58 -2.43)"/><path class="b25433a8-c702-435b-9ee6-4506efea4548" d="M79.25,33.63l-.24.61a7.4,7.4,0,0,1,.51.63,2,2,0,0,1-1.38-.82c0-.2.49-.25.51-.86Z" transform="translate(-74.58 -2.43)"/><path class="f6ee2b16-c255-4f06-b4a9-16202aaf675b" d="M78.88,35.25c-.28-.16-.1-.47-.29-.57s-.39,0-.55.29-.15.21-.16.21a.12.12,0,0,1-.14-.09s.21-.35.14-.51a.73.73,0,0,1,.07-.53.26.26,0,0,1,.13-.11.2.2,0,0,1,.11,0c.38.1.75.89,1.28.87h0a.63.63,0,0,1,.28.22c.11.12.2.24.2.24C80.16,35.72,79.16,35.41,78.88,35.25Z" transform="translate(-74.58 -2.43)"/><path class="ab584120-ff5b-4990-9dd6-c29308106b07" d="M82.08,33.3a3.26,3.26,0,0,1-1.52,0l.13-4.26c-1-1.7-2-3.29-1.67-4.64l1.53-.82A28.11,28.11,0,0,1,82,29.05Z" transform="translate(-74.58 -2.43)"/><path class="b05b5694-172f-4a6f-af33-09006606df3f" d="M79.4,34c-.58-.24-1-.35-1.13-.63l2.16-4.08a12.19,12.19,0,0,1-.12-4.42l2.45.36a14.28,14.28,0,0,1-1.32,5Z" transform="translate(-74.58 -2.43)"/><path class="a5d7a04a-09b3-48c8-88e8-f8f04eb00030" d="M82.15,34.85c-.32,0-.3-.37-.52-.37s-.36.16-.36.5,0,.25,0,.25a.11.11,0,0,1-.16,0s0-.42-.11-.52a.8.8,0,0,1-.17-.45.39.39,0,0,1,.16-.1l.07,0a1.62,1.62,0,0,1,.3,0,1,1,0,0,1,.23,0l.2.11.11.07a1.27,1.27,0,0,0,.59.21.72.72,0,0,0,.54-.21.69.69,0,0,1,.15.07C83.5,34.7,82.47,34.87,82.15,34.85Z" transform="translate(-74.58 -2.43)"/><path class="a5d7a04a-09b3-48c8-88e8-f8f04eb00030" d="M78.88,35.25c-.28-.16-.1-.47-.29-.57s-.39,0-.55.29-.15.21-.16.21a.12.12,0,0,1-.14-.09s.21-.35.14-.51a.73.73,0,0,1,.07-.53l0,.31a1,1,0,0,1,.55.07,1.09,1.09,0,0,1,.41.27l0,0c.12.16.24.37.45.41a.85.85,0,0,0,.35-.08c.11.12.2.24.2.24C80.16,35.72,79.16,35.41,78.88,35.25Z" transform="translate(-74.58 -2.43)"/><path class="a5d7a04a-09b3-48c8-88e8-f8f04eb00030" d="M76.89,35.48a3.78,3.78,0,0,0,1.55.17A3.71,3.71,0,0,0,80,35.48a3.71,3.71,0,0,0-1.54-.17A3.78,3.78,0,0,0,76.89,35.48Z" transform="translate(-74.58 -2.43)"/><path class="a5d7a04a-09b3-48c8-88e8-f8f04eb00030" d="M78.28,33.35h0a1.3,1.3,0,0,0,.34-.36c.52-.69,1-1.39,1.46-2.13.12-.19.24-.39.35-.59A7.67,7.67,0,0,0,80.82,29c.07-.27-.3-.56-.33-.84a7.07,7.07,0,0,0-.29-1.09s0,.59.23,2.2Z" transform="translate(-74.58 -2.43)"/><path class="bb1a852d-f493-4127-8d6c-e55001a3485f" d="M82.91,25.59c.13.47-3.59.16-4.08-.54.24-2.55.16-5.7,1.39-6.25.56-.21,2,.52,2.39.86C83.89,22.05,81.72,22.51,82.91,25.59Z" transform="translate(-74.58 -2.43)"/><path class="f36e135e-16b8-4b04-8dff-5dce1a7f78de" d="M81.16,19a2.19,2.19,0,0,0,.1-.82H82a1.4,1.4,0,0,0,.06,1.1C81.71,19.43,81.4,19.09,81.16,19Z" transform="translate(-74.58 -2.43)"/><path class="b25433a8-c702-435b-9ee6-4506efea4548" d="M81.11,18.49c.45,0,1,.27,1.29,0a3,3,0,0,0-.26-2l-1.36.27Z" transform="translate(-74.58 -2.43)"/><path class="f6ee2b16-c255-4f06-b4a9-16202aaf675b" d="M82,17.65a.84.84,0,0,0,.6-1.36c-.25-.26-.86.39-1.19.23s-.86.22-.94.68-.24.6,0,.9c.4.61-.42,1-.68,1.42s1.08.45,1.5.35A1,1,0,0,0,82,18.21C81.82,18,81.62,17.73,82,17.65Z" transform="translate(-74.58 -2.43)"/><path class="b25433a8-c702-435b-9ee6-4506efea4548" d="M84.85,19.2l.74.69c.42-.58.79-1.35,1.27-2l-.35-.33Z" transform="translate(-74.58 -2.43)"/><path class="bb1a852d-f493-4127-8d6c-e55001a3485f" d="M82.61,19.66l.15,1.85a5.46,5.46,0,0,0,2.12-.79,4.7,4.7,0,0,0,.45-.5c.08-.1.23-.22.31-.33a2.72,2.72,0,0,0-.82-.73l-.6.67Z" transform="translate(-74.58 -2.43)"/><path class="a5d7a04a-09b3-48c8-88e8-f8f04eb00030" d="M85.33,20.24a4.17,4.17,0,0,1-.45.47,4.8,4.8,0,0,1-1.88.75c-.13,1.12-.92,2-.1,4.13.14.47-3.45.17-4-.51.34,0,.67.13,1,.17a2.92,2.92,0,0,0,1.64-.3.91.91,0,0,0,.45-.39c.14-.3,0-.66,0-1a2.35,2.35,0,0,1,.25-1,3.23,3.23,0,0,0,.34-1,1,1,0,0,0-.35-.92,3.85,3.85,0,0,0,.49.08,1.39,1.39,0,0,0,.3,0,4.56,4.56,0,0,0,1.51-.17,3.57,3.57,0,0,0,.68-.27A.67.67,0,0,0,85.33,20.24Z" transform="translate(-74.58 -2.43)"/><path class="b25433a8-c702-435b-9ee6-4506efea4548" d="M91.45,34.19l0,.67a6.85,6.85,0,0,0-.71.39,2,2,0,0,0,1.6-.23c.09-.18-.35-.43-.14-1Z" transform="translate(-74.58 -2.43)"/><path class="f6ee2b16-c255-4f06-b4a9-16202aaf675b" d="M91.16,35.85c.32,0,.27-.39.5-.41s.37.13.4.48.06.26.06.26a.13.13,0,0,0,.17,0s-.06-.42.07-.54a.7.7,0,0,0,.14-.46.25.25,0,0,0-.08-.22l-.1,0c-.39-.07-1,.53-1.54.31h0c-.11,0-.34.09-.49.17l-.15.08C89.78,35.79,90.83,35.9,91.16,35.85Z" transform="translate(-74.58 -2.43)"/><path class="b9fb4acc-6c7d-4484-b8bb-1e859d929ff3" d="M91.12,34.28a3.3,3.3,0,0,0,1.54-.08l-.25-4.41c.84-1.79,1.8-3.38,1.34-4.73L92,24.36A28.17,28.17,0,0,0,91,30Z" transform="translate(-74.58 -2.43)"/><path class="a5d7a04a-09b3-48c8-88e8-f8f04eb00030" d="M91.16,35.85c.32,0,.27-.39.5-.41s.37.13.4.48.06.26.06.26a.13.13,0,0,0,.17,0s-.06-.42.07-.54a.7.7,0,0,0,.14-.46.32.32,0,0,0-.17-.09h-.07a.81.81,0,0,0-.31,0,1,1,0,0,0-.23.06,1.07,1.07,0,0,0-.19.13l-.1.08a1.46,1.46,0,0,1-.59.25.76.76,0,0,1-.56-.18l-.15.08C89.78,35.79,90.83,35.9,91.16,35.85Z" transform="translate(-74.58 -2.43)"/><path class="b25433a8-c702-435b-9ee6-4506efea4548" d="M94.2,34l.08.66c-.25.14-.43.34-.65.49a1.94,1.94,0,0,0,1.55-.46c.07-.19-.41-.37-.28-1Z" transform="translate(-74.58 -2.43)"/><path class="f6ee2b16-c255-4f06-b4a9-16202aaf675b" d="M94.16,35.71c.31-.09.21-.43.44-.48s.38.07.46.41.1.24.1.24a.11.11,0,0,0,.16-.05s-.12-.4,0-.54a.72.72,0,0,0,.07-.48c0-.1,0-.18-.11-.2h-.1c-.4,0-1,.68-1.48.54h0c-.11,0-.32.14-.46.24l-.13.1C92.79,35.85,93.84,35.8,94.16,35.71Z" transform="translate(-74.58 -2.43)"/><path class="b9fb4acc-6c7d-4484-b8bb-1e859d929ff3" d="M93.88,34.16a3.43,3.43,0,0,0,1.52-.31l-.91-4.33c.57-1.89,1.28-3.6.63-4.87l-1.84-.44a28.31,28.31,0,0,0-.2,5.7Z" transform="translate(-74.58 -2.43)"/><path class="a5d7a04a-09b3-48c8-88e8-f8f04eb00030" d="M94.16,35.71c.31-.09.21-.43.44-.48s.38.07.46.41.1.24.1.24a.11.11,0,0,0,.16-.05s-.12-.4,0-.54a.72.72,0,0,0,.07-.48.4.4,0,0,0-.18-.07h-.08a.7.7,0,0,0-.29,0l-.23.1a.81.81,0,0,0-.16.16l-.1.09a1.36,1.36,0,0,1-.54.33.78.78,0,0,1-.58-.09l-.13.1C92.79,35.85,93.84,35.8,94.16,35.71Z" transform="translate(-74.58 -2.43)"/><path class="a5d7a04a-09b3-48c8-88e8-f8f04eb00030" d="M93.51,27.41c-.29.74-.71,1.54-1.1,2.38l.26,4.42-.1,0a2.64,2.64,0,0,1-.15-.29,3.5,3.5,0,0,1-.31-1.35,6.89,6.89,0,0,0,0-2.18c0-.12-.1-.24-.13-.36a1.76,1.76,0,0,1,.32-1.51,5.1,5.1,0,0,1,1.18-1.09A.21.21,0,0,1,93.51,27.41Z" transform="translate(-74.58 -2.43)"/><path class="a5d7a04a-09b3-48c8-88e8-f8f04eb00030" d="M94.49,29.52l.91,4.33,0,0a5.15,5.15,0,0,1-.44-.71,1.12,1.12,0,0,1-.16-.33,1.48,1.48,0,0,1,0-.35c0-.29,0-.57,0-.85a5,5,0,0,0-.1-.88c-.08-.34-.23-.66-.31-1a2.77,2.77,0,0,1,.3-2.09,2.19,2.19,0,0,0,.43-.88c0-.18,0-.4.11-.52a.42.42,0,0,1,.21-.08h0A19.17,19.17,0,0,1,94.49,29.52Z" transform="translate(-74.58 -2.43)"/><path class="b25433a8-c702-435b-9ee6-4506efea4548" d="M88.13,19.24s-.08-.49-.32-.56c-.06,0,0,.19-.08.14s-.59-.32-.72-.12a.72.72,0,0,0,0,.57,1,1,0,0,0,.64.42,1.82,1.82,0,0,0,.33,0A.38.38,0,0,0,88.13,19.24Z" transform="translate(-74.58 -2.43)"/><path class="b25433a8-c702-435b-9ee6-4506efea4548" d="M90.4,20,90,21c-.65-.34-1.33-.87-2.06-1.27l.16-.46Z" transform="translate(-74.58 -2.43)"/><path class="bd0fd682-28ae-4e70-841b-f4ed22d47691" d="M92.64,19.42l.7,1.74a5.48,5.48,0,0,1-2.28.24,4.16,4.16,0,0,1-.64-.25L90,21l.36-1,.42.15.43.14Z" transform="translate(-74.58 -2.43)"/><path class="b05b5694-172f-4a6f-af33-09006606df3f" d="M90.83,20v.12a2.34,2.34,0,0,0-.4,1l-.07.11c-.16-.08-.27-.13-.31-.3l.36-1A.79.79,0,0,1,90.83,20Z" transform="translate(-74.58 -2.43)"/><path class="e8fb8a59-d8d5-4cd4-97a1-9b64bc191f60" d="M91.31,26.42c-.1.49,3.64-.09,4.09-.83-.42-2.57-.56-5.77-1.84-6.24a2.84,2.84,0,0,0-1.72.57,3,3,0,0,0-.93,1.63C90.56,23.37,92.18,23.6,91.31,26.42Z" transform="translate(-74.58 -2.43)"/><path class="f36e135e-16b8-4b04-8dff-5dce1a7f78de" d="M92.87,19.61a2.25,2.25,0,0,1-.16-.82l-.7.05A1.38,1.38,0,0,1,92,20,.7.7,0,0,0,92.87,19.61Z" transform="translate(-74.58 -2.43)"/><path class="b25433a8-c702-435b-9ee6-4506efea4548" d="M92.87,18.89c-.45.07-1,.49-1.28.26a2,2,0,0,1,.11-2l1.4.18Z" transform="translate(-74.58 -2.43)"/><path class="a6215283-b601-4fbc-9c2a-b3f8398efdaf" d="M96.19,23.84l-.93,3.6a.49.49,0,0,1-.61.36l-4.43-1.14-.81-.21-2.83-.73a.5.5,0,0,1-.36-.61l.93-3.59a.5.5,0,0,1,.61-.36l3.49.9,1.15.29,3.43.88A.5.5,0,0,1,96.19,23.84Z" transform="translate(-74.58 -2.43)"/><path class="b9fb4acc-6c7d-4484-b8bb-1e859d929ff3" d="M90.52,24.09l-2.12-.55a.44.44,0,0,1-.32-.55h0a.45.45,0,0,1,.55-.32l2.11.55a.44.44,0,0,1,.33.54h0A.45.45,0,0,1,90.52,24.09Z" transform="translate(-74.58 -2.43)"/><path class="b9fb4acc-6c7d-4484-b8bb-1e859d929ff3" d="M93.8,26.53,88,25a.45.45,0,0,1-.32-.55h0a.44.44,0,0,1,.55-.32L94,25.66a.44.44,0,0,1,.32.55h0A.45.45,0,0,1,93.8,26.53Z" transform="translate(-74.58 -2.43)"/><path class="a5d7a04a-09b3-48c8-88e8-f8f04eb00030" d="M92.4,22.35a6.14,6.14,0,0,1-.23,1,3.68,3.68,0,0,1-.29.62l.1.07c-.08.16-.14.27-.32.29-.12.2-.26.4-.41.61l-.59.77-.4.59a1.93,1.93,0,0,1,0,.33s0,0,0,0l-.81-.21.4-.33h0l.23-.55.35-.84.26-.61.09-.19a.75.75,0,0,1,.05-.43l.12,0,.06-.15.12-.27.16-1,.19-1.2.94.62A2.57,2.57,0,0,1,92.4,22.35Z" transform="translate(-74.58 -2.43)"/><path class="f6ee2b16-c255-4f06-b4a9-16202aaf675b" d="M91.76,18a.51.51,0,0,1-.46.1c-.27-.08-.16-1.45.51-1.28s.82-.15,1.29.55.19,1.69.51,1.93-.41.87-1.06.93-.85-1-.58-1.48A.54.54,0,0,0,91.76,18Z" transform="translate(-74.58 -2.43)"/><path class="b25433a8-c702-435b-9ee6-4506efea4548" d="M89.72,25.75l-.45.37c-.12.09,0,.35,0,.4a1,1,0,0,0,.7.12c.16,0,0-.18.12-.38a1.23,1.23,0,0,0,0-.32A.38.38,0,0,0,89.72,25.75Z" transform="translate(-74.58 -2.43)"/><path class="b25433a8-c702-435b-9ee6-4506efea4548" d="M90.64,23.55l.93.42c-.38.62-1,1.27-1.41,2l-.45-.2Z" transform="translate(-74.58 -2.43)"/><path class="e8fb8a59-d8d5-4cd4-97a1-9b64bc191f60" d="M91.34,20.49l1,.61A3.76,3.76,0,0,1,92.08,23a3.68,3.68,0,0,1-.29.62c-.07.11-.14.24-.22.36l-.93-.42.17-.42.18-.42Z" transform="translate(-74.58 -2.43)"/><path class="b05b5694-172f-4a6f-af33-09006606df3f" d="M90.7,23.11l.11,0a2.37,2.37,0,0,0,1,.48l.1.07c-.09.16-.15.26-.32.29l-.93-.42A.87.87,0,0,1,90.7,23.11Z" transform="translate(-74.58 -2.43)"/></g></svg>