<svg version="1.1" id="Слой_1" xmlns="http://www.w3.org/2000/svg" x="0" y="0" viewBox="0 0 384 384.7" xml:space="preserve"><style>.st0{fill:#fff}</style><path class="st0" d="M309.8 384.7H98.3c5.1-2.8 3.9-8 4.4-12.8H272c1.4 0 2.8.1 4.1-.1 4.2-.7 6.6-4.9 5-8.7-1.4-3.2-4.1-3.9-7.4-3.9-19 .1-38 0-57 0H97.9c-6.1 0-8.1 2.1-8.2 8 0 2.9.1 5.8 0 8.6-.2 3.8.9 6.8 4.2 8.9h-60c3.6-1.7 4.7-4.6 4.7-8.5-.2-9 0-18-.1-27 0-2.5.6-3.6 3.2-4.4C54.5 341 63.9 329.2 64 316c.2-19.7-1.9-39.1-7.6-58.1-2.2-7.5-5.2-14.6-10.6-20.4-7.8-8.4-19-8.8-26.6-.3-3.5 3.9-6.8 8.6-8.3 13.6-3.4 10.9-5.9 22.1-8.2 33.3C1 290.8.8 297.7 0 304.5v-90.8c1.8 3.2 4.3 5.4 8.2 4.3 3.9-1.2 4.8-4.3 4.6-8-.1-1 0-2 0-3V90.3H80c1.4 0 2.8 0 4.1-.2 3.3-.5 5.1-2.5 5.3-5.8.3-3.2-1.7-5.8-4.9-6.5-1.2-.3-2.5-.3-3.7-.3-24 0-48 0-72-.1-3.8 0-6.8 1-8.9 4.3C0 54.5 0 27.3 0 0h384v81.7c-2.1-3.3-5-4.3-8.9-4.3-24 .1-48 0-72 .1-1.4 0-2.8 0-4.1.4-3.2.9-4.7 3.2-4.5 6.4.2 3.1 1.9 5.1 5 5.7 1.5.3 3 .2 4.5.2h66.9v256.7c-2.6-.2-5-.2-7.3-.6-1.3-.2-2.8-.9-3.5-1.9-10.8-14.4-30.9-14.7-41.6-.2-1.4 1.9-2.8 2.3-4.9 2.3-9.2-.1-17.2 6.5-18.8 15.2-1.7 9.3 3 18.1 11.6 21.6 1.1.4 2.2.9 3.4 1.4zm-41-371v322.2c0 1.5-.1 3 .1 4.5.5 3.6 3.3 6.1 6.6 5.9 3.2-.2 5.6-2.6 6-6.1.1-1 .1-2 .1-3V9.9c0-7.4-1.8-9.2-9.3-9.2H112.2c-8.1 0-9.7 1.6-9.7 9.6v326.6c0 1.4 0 2.8.2 4.1.5 3.3 2.8 5.1 5.9 5.2 3.2.1 5.6-1.5 6.3-4.8.4-1.8.4-3.7.4-5.6V13.6c51.2.1 102 .1 153.5.1zm-38.5 268.6h4.9c4.9 0 9.8.1 14.6-.1 3.6-.2 5.9-2.6 6-5.9.1-3.5-2.1-6.1-5.7-6.6-1-.1-2-.1-3-.1H136.9c-1 0-2 0-3 .1-3.7.5-5.9 3.1-5.8 6.6.1 3.3 2.4 5.8 6 6 4.7.2 9.5.1 14.2.1h5.3v49c0 3-.1 6 .1 9 .2 3.4 2.8 5.9 6 6.1 3 .1 5.8-2 6.5-5.2.3-1.2.2-2.5.2-3.7v-54.9h51.1v57.2c.3 4 3.1 6.8 6.6 6.7 3.5-.1 6-2.9 6.1-6.8.1-6.9 0-13.7 0-20.6.1-12.3.1-24.3.1-36.9zm77 12.8v18c.1 5.3 2.3 7.6 7.5 7.7 7.7.1 15.5.1 23.2 0 5.2-.1 7.6-2.5 7.6-7.6.1-12 .1-24 0-36 0-5.2-2.4-7.6-7.6-7.7-7.7-.1-15.5-.1-23.2 0-5.3.1-7.5 2.3-7.6 7.6 0 6 .1 12 .1 18zm-102.5-77.3c0 6.2-.1 12.5 0 18.7.1 4.8 2.4 7.2 7.1 7.2 8 .1 16 .1 24 0 4.9 0 7.2-2.3 7.2-7.1.1-12.2.1-24.5 0-36.7 0-5-2.4-7.3-7.4-7.3-7.7-.1-15.5 0-23.2 0-5.4 0-7.6 2.4-7.7 7.9v17.3zm-25.6.5v-18c0-5.2-2.4-7.6-7.6-7.6h-23.2c-5.2 0-7.5 2.3-7.5 7.6v36c0 5.3 2.2 7.5 7.5 7.5 7.7.1 15.5.1 23.2 0 5.3 0 7.5-2.3 7.6-7.5.1-6 0-12 0-18zM140.9 64.6v18c0 5.4 2.1 7.6 7.4 7.7 7.9.1 15.7.1 23.6 0 5-.1 7.3-2.4 7.3-7.4.1-12.1.1-24.2 0-36.4 0-4.9-2.4-7.3-7.4-7.4-7.9-.1-15.7-.1-23.6 0-4.9.1-7.2 2.5-7.3 7.5-.1 6 0 12 0 18zm63.9.1v17.6c0 5.6 2.2 7.9 7.6 7.9 7.7.1 15.5.1 23.2 0 5.3-.1 7.5-2.3 7.5-7.6v-36c0-5.2-2.3-7.6-7.5-7.6-7.7-.1-15.5-.1-23.2 0-5.2 0-7.5 2.5-7.6 7.7-.1 6 0 12 0 18zM76.7 141.5c0-6 .1-12 0-18-.1-5.2-2.2-7.4-7.2-7.5-8-.1-16-.1-24 0-4.8.1-7.1 2.4-7.2 7.2-.1 12.2-.1 24.5 0 36.7 0 4.7 2.5 7.1 7.3 7.2 7.9.1 15.7.1 23.6 0 5 0 7.4-2.3 7.4-7.3.2-6.1.1-12.2.1-18.3zm230.6 77c0 6-.1 12 0 18 .1 5.1 2.3 7.3 7.3 7.4 7.9.1 15.7.1 23.6 0 5 0 7.4-2.4 7.4-7.3.1-12.1.1-24.2 0-36.4 0-5-2.5-7.4-7.4-7.4-7.9-.1-15.7-.1-23.6 0-5 0-7.3 2.3-7.3 7.4-.1 6 0 12.2 0 18.3zm0-77.2c0 6.1-.1 12.2 0 18.4.1 5 2.4 7.4 7.3 7.4 7.9.1 15.7.1 23.6 0 4.9 0 7.4-2.5 7.4-7.4.1-12.1.1-24.2 0-36.4 0-5-2.4-7.3-7.4-7.4-7.9-.1-15.7-.1-23.6 0-5.1 0-7.3 2.2-7.3 7.3-.1 6.1 0 12.1 0 18.1zm-166.4.1c0 6.1-.1 12.2 0 18.4.1 5 2.4 7.3 7.4 7.3 7.9.1 15.7.1 23.6 0 4.8 0 7.3-2.5 7.3-7.2.1-12.4.1-24.7 0-37.1 0-4.4-2.4-6.8-6.7-6.9-8.2-.1-16.5-.1-24.7 0-4.6.1-6.8 2.4-6.8 7.1-.2 6.2-.1 12.3-.1 18.4zm102.2.2c0-6.2.1-12.5 0-18.7-.1-4.5-2.3-6.8-6.7-6.9-8.2-.1-16.5-.1-24.7 0-4.6.1-6.9 2.5-6.9 7-.1 12.2-.1 24.5 0 36.7 0 4.9 2.5 7.3 7.5 7.3 7.7.1 15.5.1 23.2 0 5.3 0 7.6-2.3 7.6-7.5.1-5.9 0-11.9 0-17.9zm-179.2 64v4.4c0 9-.1 18 .1 27 .1 4.3 2.7 6.8 6.4 6.8s6.3-2.4 6.3-6.4c.1-12.7.1-25.5 0-38.2 0-3.9-2.5-6.3-6.4-6.4-8.4-.1-16.7-.1-25.1 0-4.1 0-6.6 2.5-6.7 6.5-.2 4.2-.2 8.5 0 12.7.2 3.8 3.1 6.3 6.6 6.2 3.5-.1 5.8-2.6 6-6.4.1-2.1 0-4.1 0-6.3 4.5.1 8.3.1 12.8.1zm127.9 115.1c3.5.1 6.4-2.8 6.5-6.3.1-3.5-2.5-6.2-5.9-6.3-3.7-.2-6.5 2.3-6.7 5.9-.1 3.6 2.6 6.6 6.1 6.7z"/><path d="M309.8 384.7c-1.1-.5-2.2-1-3.4-1.4-8.6-3.6-13.3-12.3-11.6-21.6 1.6-8.7 9.6-15.3 18.8-15.2 2.2 0 3.5-.4 4.9-2.3 10.8-14.4 30.8-14.2 41.6.2.7 1 2.3 1.7 3.5 1.9 2.3.4 4.7.4 7.3.6V90.2H304c-1.5 0-3 0-4.5-.2-3.1-.6-4.8-2.6-5-5.7-.2-3.3 1.3-5.6 4.5-6.4 1.3-.4 2.7-.4 4.1-.4 24 0 48 0 72-.1 3.8 0 6.8 1 8.9 4.3V369c-2.3 8.2-7.6 13.4-15.8 15.8-19.4-.1-38.9-.1-58.4-.1zm29.3-12.8h25.5c3.1 0 5.6-1.5 6.1-4.5.3-1.9-.3-4.5-1.5-6.1-1.8-2.4-4.5-2.7-7.4-1.5-5.7 2.4-8.3 1.1-10.5-4.8-2.2-5.7-6.5-8.7-12.2-8.7-5.5.1-9.9 3.3-11.9 8.6-2.3 6.1-4.7 7.2-10.8 4.7-3.5-1.4-7.1-.1-8.5 3.1-2 4.5 1.2 9 6.6 9 8.1.3 16.4.2 24.6.2zM0 304.5c.8-6.8 1-13.7 2.4-20.4 2.3-11.2 4.8-22.4 8.2-33.3 1.5-4.9 4.8-9.7 8.3-13.6 7.7-8.5 18.8-8.2 26.6.3 5.4 5.8 8.4 13 10.6 20.4 5.7 18.9 7.8 38.4 7.6 58.1-.2 13.2-9.5 25-22.3 28.8-2.6.8-3.2 1.9-3.2 4.4.1 9-.1 18 .1 27 .1 3.9-1.1 6.8-4.7 8.5h-3.8c-3.5-2-4.6-5.1-4.5-9.1.2-9 0-17.9.1-26.9 0-2.2-.5-3.2-2.8-3.9-7.5-2.1-13.6-6.5-17.5-13.2-2.3-4-3.6-8.6-5.3-13 .2-4.6.2-9.4.2-14.1zm51.1 4.3c.3-.1.7-.1 1-.2-2.2-13.8-3.8-27.7-6.7-41.3-1.5-6.9-4.7-13.6-8.2-19.9-2.7-4.9-7.2-4.7-10.6-.1-1.8 2.5-3.4 5.3-4.5 8.2-7.3 19.4-9.6 39.7-9.3 60.3.1 10.1 9.6 18.2 19.5 17.8 10.3-.4 18.4-8.5 18.6-18.8.3-2 .2-4 .2-6zM0 81.7c2.1-3.3 5-4.3 8.9-4.3 24 .1 48 .1 72 .1 1.2 0 2.5 0 3.7.3 3.2.7 5.2 3.3 4.9 6.5-.3 3.3-2.1 5.3-5.3 5.8-1.3.2-2.7.2-4.1.2H12.9V207c0 1-.1 2 0 3 .2 3.7-.7 6.9-4.6 8-3.9 1.2-6.4-1.1-8.2-4.3-.1-44-.1-88-.1-132zm93.8 303c-3.3-2.1-4.4-5.1-4.2-8.9.2-2.9 0-5.7 0-8.6.1-6 2.2-8 8.2-8h175.8c3.3 0 6 .7 7.4 3.9 1.6 3.8-.8 8.1-5 8.7-1.3.2-2.7.1-4.1.1H102.6c-.4 4.8.8 10-4.4 12.8h-4.4z"/><path class="st0" d="M0 318.7c1.7 4.3 3 9 5.3 13 3.9 6.7 10 11 17.5 13.2 2.3.6 2.8 1.7 2.8 3.9-.1 9 .1 17.9-.1 26.9-.1 4 1 7 4.5 9.1H0v-66.1zm368.3 66c8.2-2.3 13.4-7.6 15.8-15.8v15.8h-15.8z"/><path d="M268.8 13.7H115.3v322.2c0 1.9 0 3.8-.4 5.6-.7 3.3-3.1 4.9-6.3 4.8-3.2-.1-5.4-1.9-5.9-5.2-.2-1.3-.2-2.7-.2-4.1V10.4c0-8 1.6-9.6 9.7-9.6h160.1c7.5 0 9.3 1.8 9.3 9.2v327.3c0 1 0 2-.1 3-.4 3.5-2.8 5.9-6 6.1-3.3.2-6.1-2.3-6.6-5.9-.2-1.5-.1-3-.1-4.5V13.7z"/><path d="M230.3 282.3v36.6c0 6.9.1 13.7 0 20.6-.1 3.9-2.6 6.6-6.1 6.8-3.6.2-6.4-2.7-6.6-6.7-.1-1 0-2 0-3v-54.2h-51.1v54.9c0 1.2 0 2.5-.2 3.7-.7 3.1-3.5 5.3-6.5 5.2-3.2-.2-5.8-2.7-6-6.1-.2-3-.1-6-.1-9v-49h-5.3c-4.7 0-9.5.1-14.2-.1-3.6-.2-5.9-2.6-6-6-.1-3.5 2.1-6.1 5.8-6.6 1-.1 2-.1 3-.1h110.2c1 0 2 0 3 .1 3.7.5 5.9 3.1 5.7 6.6-.1 3.3-2.4 5.8-6 5.9-4.9.2-9.7.1-14.6.1-1.5.3-3 .3-5 .3zm77 12.8c0-6-.1-12 0-18 .1-5.3 2.3-7.5 7.6-7.6 7.7-.1 15.5-.1 23.2 0 5.2.1 7.5 2.5 7.6 7.7.1 12 .1 24 0 36 0 5.2-2.4 7.5-7.6 7.6-7.7.1-15.5.1-23.2 0-5.2-.1-7.4-2.4-7.5-7.7-.2-6-.1-12-.1-18zm13 12.6h12.3v-25.2h-12.3v25.2zm-115.5-89.9v-17.2c0-5.5 2.3-7.8 7.7-7.9h23.2c5.1 0 7.4 2.3 7.4 7.3.1 12.2.1 24.5 0 36.7 0 4.8-2.3 7-7.2 7.1-8 .1-16 .1-24 0-4.7 0-7.1-2.4-7.1-7.2-.1-6.3 0-12.5 0-18.8zm25.4-12.1h-12.4v25.1h12.4v-25.1zm-51 12.6v18c0 5.2-2.3 7.5-7.6 7.5-7.7.1-15.5.1-23.2 0-5.3 0-7.5-2.2-7.5-7.5v-36c0-5.3 2.3-7.5 7.5-7.6h23.2c5.2 0 7.5 2.4 7.6 7.6.1 6 0 12 0 18zm-25.3-12.6v25.1h12.4v-25.1h-12.4zm-13-141.1v-18c0-5 2.3-7.4 7.3-7.5 7.9-.1 15.7-.1 23.6 0 5 0 7.4 2.4 7.4 7.4.1 12.1.1 24.2 0 36.4 0 5-2.3 7.4-7.3 7.4-7.9.1-15.7.1-23.6 0-5.3-.1-7.3-2.3-7.4-7.7-.1-6 0-12 0-18zm13-12.5v25.1h12.3V52.1h-12.3zm50.9 12.6v-18c0-5.2 2.4-7.6 7.6-7.7 7.7-.1 15.5-.1 23.2 0 5.2 0 7.5 2.4 7.5 7.6v36c0 5.3-2.2 7.5-7.5 7.6-7.7.1-15.5.1-23.2 0-5.4-.1-7.6-2.4-7.6-7.9V64.7zm25.3-12.6h-12.3v25.1h12.3V52.1zM76.7 141.5c0 6.1.1 12.2 0 18.4-.1 5-2.4 7.3-7.4 7.3-7.9.1-15.7.1-23.6 0-4.7-.1-7.2-2.5-7.3-7.2-.1-12.2-.1-24.5 0-36.7 0-4.8 2.4-7.2 7.2-7.2 8-.1 16-.1 24 0 5 .1 7.2 2.3 7.2 7.5 0 5.9-.1 11.9-.1 17.9zM51.5 129v25.2h12.2V129H51.5zm255.8 89.5c0-6.1-.1-12.2 0-18.4.1-5.1 2.3-7.3 7.3-7.4 7.9-.1 15.7-.1 23.6 0 4.9 0 7.4 2.4 7.4 7.4.1 12.1.1 24.2 0 36.4 0 5-2.4 7.3-7.4 7.3-7.9.1-15.7.1-23.6 0-5.1 0-7.2-2.2-7.3-7.4-.1-5.9 0-11.9 0-17.9zm25.3 12.4v-25.2h-12.3v25.2h12.3zm-25.3-89.6c0-6-.1-12 0-18 .1-5.1 2.2-7.3 7.3-7.3 7.9-.1 15.7-.1 23.6 0 5 0 7.4 2.4 7.4 7.4.1 12.1.1 24.2 0 36.4 0 5-2.5 7.4-7.4 7.4-7.9.1-15.7.1-23.6 0-5 0-7.3-2.4-7.3-7.4-.1-6.2 0-12.3 0-18.5zm13-12.3v25.1h12.3V129h-12.3zm-179.4 12.4c0-6.1-.1-12.2 0-18.4.1-4.7 2.2-7 6.8-7.1 8.2-.1 16.5-.1 24.7 0 4.3.1 6.7 2.5 6.7 6.9.1 12.4.1 24.7 0 37.1 0 4.7-2.5 7.1-7.3 7.2-7.9.1-15.7.1-23.6 0-5 0-7.4-2.4-7.4-7.3 0-6.1.1-12.2.1-18.4zm25.3-12.4h-12.3v25h12.3v-25zm76.9 12.6v18c-.1 5.2-2.3 7.5-7.6 7.5-7.7.1-15.5.1-23.2 0-5 0-7.4-2.4-7.5-7.3-.1-12.2-.1-24.5 0-36.7 0-4.6 2.4-7 6.9-7 8.2-.1 16.5-.1 24.7 0 4.4.1 6.6 2.4 6.7 6.9.1 6.1 0 12.4 0 18.6zm-13 12.7v-25.2h-12.3v25.2h12.3zM63.9 205.6H51.1c0 2.2.1 4.2 0 6.3-.2 3.8-2.6 6.2-6 6.4-3.5.1-6.4-2.4-6.6-6.2-.2-4.2-.2-8.5 0-12.7.2-4.1 2.7-6.5 6.7-6.5 8.4-.1 16.7-.1 25.1 0 3.9.1 6.4 2.4 6.4 6.4.1 12.7.1 25.5 0 38.2 0 4-2.6 6.4-6.3 6.4-3.7 0-6.3-2.6-6.4-6.8-.1-9 0-18-.1-27v-4.5z"/><path d="M191.8 320.7c-3.5-.1-6.3-3.1-6.1-6.6.1-3.6 2.9-6.1 6.7-5.9 3.5.2 6 2.8 5.9 6.3-.1 3.4-3 6.3-6.5 6.2z"/><path class="st0" d="M339.1 371.9c-8.2 0-16.5.1-24.7 0-5.4-.1-8.6-4.5-6.6-9 1.4-3.2 5-4.5 8.5-3.1 6.1 2.4 8.5 1.4 10.8-4.7 2-5.4 6.4-8.6 11.9-8.6 5.7-.1 10.1 3 12.2 8.7 2.3 5.9 4.9 7.2 10.5 4.8 2.9-1.2 5.7-.9 7.4 1.5 1.2 1.6 1.8 4.1 1.5 6.1-.5 3-3.1 4.5-6.1 4.5-8.4-.1-16.9-.2-25.4-.2zm-288-63.1v6c-.3 10.3-8.3 18.4-18.6 18.8-10 .4-19.4-7.7-19.5-17.8-.3-20.6 2-40.9 9.3-60.3 1.1-2.9 2.6-5.7 4.5-8.2 3.3-4.5 7.9-4.8 10.6.1 3.4 6.3 6.7 13 8.2 19.9 2.9 13.6 4.6 27.5 6.7 41.3-.5.1-.8.1-1.2.2zm269.2-1.1v-25.2h12.3v25.2h-12.3zm-90.1-102v25.1h-12.4v-25.1h12.4zm-76.3 0h12.4v25.1h-12.4v-25.1zm0-153.6h12.3v25.1h-12.3V52.1zm76.2 0v25.1h-12.3V52.1h12.3zM51.5 129h12.2v25.2H51.5V129zm281.1 101.9h-12.3v-25.2h12.3v25.2zM320.3 129h12.3v25.1h-12.3V129zm-154.1 0v25h-12.3v-25h12.3zm63.9 25.3h-12.3v-25.2h12.3v25.2z"/></svg>