<svg version="1.1" id="Слой_1" xmlns="http://www.w3.org/2000/svg" x="0" y="0" viewBox="0 0 384 384" xml:space="preserve"><style>.st0{fill:#fff}</style><path class="st0" d="M.8 71.5V.3h384v312c-1.9-6.2-4.9-11.6-10.5-15.4-25.5-16.9-50.9-34-76.4-50.9-11.2-7.5-23.6-5.3-31.9 5.2-7.1 9-14.1 18.2-21.2 27.2-3.9 5-8.4 6.3-13.5 3.4-8.5-4.8-17-9.5-25-15-24.4-16.9-45-38-65.1-59.6-14.5-15.7-26.9-32.8-36.8-51.8-3.1-6-2.3-10.3 3.1-14.4 9.1-7.1 18.2-14.1 27.2-21.2 10.4-8.2 12.5-20.7 5.3-31.6-17-25.6-34-51-51.1-76.4C81.4.6 69-2.1 57.4 4.7 46.8 11 36.2 17.3 25.7 23.8c-11.1 6.7-18.4 16.4-21.4 29C2.8 59 1.9 65.3.8 71.5zm223.8-19.3c-2 0-4-.1-6 0-4 .2-6.5 2.7-6.5 6.3 0 3.7 2.3 6 6.4 6.4 1.4.1 2.7.1 4.1.2 17.7.7 34.4 5.1 49.5 14.2 34.9 21 53.3 51.9 54.9 92.7.2 5.2 2.7 8.3 6.7 8.1 4-.2 6.5-3.1 6-8.3-.9-9.1-1.4-18.3-3.5-27-12.2-51-57.2-89.6-111.6-92.6zm-2 38.5c-1.5 0-3-.1-4.5 0-3.6.3-5.9 2.6-6 6-.1 3.4 1.9 5.9 5.4 6.5 1.3.2 2.7.2 4.1.3 22.5 1.3 40.4 11.1 53.8 29.1 8.7 11.8 13 25.2 13.4 39.8.1 5 3.1 8.1 7.1 7.6 3.7-.5 5.7-3.3 5.6-8-.2-42.7-35.3-79-78.9-81.3zm40.5 81.8c-.3-23.1-20.5-43.2-43.5-43.4-4.7 0-7.4 2.1-7.6 5.9-.2 4 2.4 6.6 7.1 6.9 18 1.3 29.8 13.1 31.2 31.1.3 4.6 2.8 7.2 6.5 7.2 3.8-.1 6.4-3.2 6.3-7.7zM295.5 385H.7V90.2c.9 5.8 1.6 11.6 2.7 17.3 4.8 25.2 15.2 48.2 28.1 70.1 16.3 27.7 36.2 52.7 57.9 76.2 32.2 34.8 66.8 67.1 106.8 93 23.3 15.1 47.8 27.5 75 33.9 8 1.9 16.2 2.9 24.3 4.3z"/><path d="M295.5 385c-8.1-1.4-16.3-2.4-24.3-4.3-27.2-6.4-51.7-18.8-75-33.9-40-25.9-74.6-58.2-106.8-93-21.8-23.5-41.6-48.5-57.9-76.2-12.9-21.9-23.3-45-28.1-70.1C2.3 101.8 1.6 96 .8 90.3V71.5c1.1-6.2 2-12.5 3.5-18.7 3-12.7 10.3-22.3 21.4-29C36.2 17.3 46.8 11 57.4 4.7c11.5-6.8 24-4 31.5 7.1 17 25.4 34 50.9 50.9 76.4 7.3 11 5.1 23.4-5.3 31.6-9 7.1-18.1 14.1-27.2 21.2-5.3 4.2-6.2 8.4-3.1 14.4 9.8 19 22.2 36.1 36.8 51.8 20.1 21.7 40.7 42.8 65.1 59.6 8 5.5 16.6 10.2 25 15 5 2.9 9.6 1.6 13.5-3.4 7.1-9.1 14.1-18.2 21.2-27.2 8.3-10.6 20.6-12.7 31.9-5.2 25.5 16.9 50.9 34 76.4 50.9 5.7 3.7 8.7 9.1 10.5 15.4v7.5c-1.1 2.6-1.9 5.5-3.3 7.9-6.6 11.2-13.3 22.3-20.1 33.4-7 11.3-17.3 18.2-30.2 20.9-5.6 1.2-11.2 2-16.9 3h-18.6zm11.6-12.7c3.2-.3 9.6-.9 15.9-1.7 13.3-1.8 23.5-8.1 30.1-20.3 5-9.3 10.8-18.2 16.3-27.4 4.3-7.2 3.3-11.7-3.8-16.5-24.7-16.5-49.5-33-74.2-49.5-6.4-4.3-11.1-3.5-15.9 2.6-7.1 9.1-14.1 18.2-21.2 27.2-7.3 9.2-18.4 11.8-28.5 6.6-6.4-3.4-12.7-6.9-18.9-10.7-20-12.4-37.2-28.1-53.9-44.6-23.3-23-45-47.2-60-76.7-5.9-11.6-3.8-22.6 6.5-30.6 8.9-6.9 17.8-13.8 26.6-20.7 5.9-4.6 6.7-9.4 2.6-15.6C112 69.3 95.3 44.3 78.6 19.2c-4-6.1-8.9-7.2-15.1-3.5C53 21.9 42.5 28.3 32 34.6c-8.2 5-13.3 12.2-15.6 21.5-5 20.2-3.4 40.2 2 60 8.1 29.8 23.2 56.2 41.1 81.1 25.3 35.2 55.1 66.3 87.2 95.2 26.6 24 55.1 45.5 87.5 61.3 22.1 10.9 45 18.2 72.9 18.6z"/><path class="st0" d="M314.3 385c5.6-1 11.3-1.9 16.9-3 13-2.8 23.2-9.6 30.2-20.9 6.8-11 13.5-22.2 20.1-33.4 1.4-2.4 2.2-5.3 3.3-7.9v65.3c-23.5-.1-47-.1-70.5-.1z"/><path d="M224.6 52.2c54.4 2.9 99.5 41.6 111.7 92.7 2.1 8.8 2.6 18 3.5 27 .5 5.1-2 8.1-6 8.3-4 .2-6.5-2.9-6.7-8.1-1.6-40.8-20-71.7-54.9-92.7-15.1-9.1-31.9-13.5-49.5-14.2-1.4-.1-2.8-.1-4.1-.2-4-.4-6.4-2.7-6.4-6.4 0-3.6 2.6-6.1 6.5-6.3 1.9-.2 3.9-.1 5.9-.1z"/><path d="M222.6 90.7c43.6 2.3 78.7 38.6 78.9 81.5 0 4.7-2 7.5-5.6 8-4.1.5-7-2.6-7.1-7.6-.4-14.6-4.7-28.1-13.4-39.8-13.4-18-31.3-27.8-53.8-29.1-1.4-.1-2.8-.1-4.1-.3-3.5-.6-5.5-3.2-5.4-6.5.1-3.3 2.5-5.7 6-6 1.5-.3 3-.2 4.5-.2z"/><path d="M263.1 172.5c.1 4.5-2.5 7.6-6.3 7.7-3.7.1-6.1-2.6-6.5-7.2-1.4-18-13.2-29.8-31.2-31.1-4.7-.3-7.3-2.9-7.1-6.9.2-3.8 2.9-5.9 7.6-5.9 23.1.2 43.3 20.3 43.5 43.4z"/><path class="st0" d="M307.1 372.3c-27.9-.5-50.8-7.7-72.8-18.5-32.4-15.8-60.8-37.4-87.5-61.3-32.1-28.9-61.9-60-87.2-95.2-17.9-24.9-33-51.2-41.1-81.1-5.4-19.8-7-39.8-2-60 2.3-9.3 7.4-16.6 15.6-21.5l31.5-18.9c6.2-3.7 11-2.5 15.1 3.5 16.7 25 33.4 50.1 50.1 75.2 4.1 6.2 3.3 11-2.6 15.6-8.9 6.9-17.7 13.8-26.6 20.7-10.3 8-12.4 19-6.5 30.6 15 29.5 36.7 53.7 60 76.7 16.7 16.4 33.9 32.2 53.9 44.6 6.2 3.8 12.5 7.4 18.9 10.7 10 5.2 21.2 2.6 28.5-6.6 7.1-9 14.1-18.1 21.2-27.2 4.7-6.1 9.4-6.8 15.9-2.6 24.7 16.5 49.5 33 74.2 49.5 7.1 4.7 8.1 9.2 3.8 16.5-5.4 9.1-11.2 18-16.3 27.4-6.6 12.1-16.7 18.5-30.1 20.3-6.5.8-12.8 1.3-16 1.6z"/></svg>