<svg version="1.1" id="Слой_1" xmlns="http://www.w3.org/2000/svg" x="0" y="0" viewBox="0 0 512 512" xml:space="preserve"><style>.st0{fill:#fff}</style><path d="M1 492V195c2.2-2.4 4.2-5.1 6.8-7.1 24.7-19.3 49.4-38.5 74.2-57.6 3-2.3 4.4-4.7 4.4-8.7-.2-19.7-.2-39.3-.1-59 .1-16.8 10.8-27.5 27.5-27.5 22.5 0 45-1 67.5.3 16.5.9 29.7-3.1 41.9-14.4 8.5-7.9 17.5-16 28.9-20h10c5.9 3.6 12 6.9 17.6 11 8.9 6.4 17.3 13.6 26.2 20 2.3 1.7 5.6 2.9 8.5 3 28.3.2 56.6.1 85 .1 18 0 28.5 10.4 28.5 28.6 0 19.3.1 38.7-.1 58 0 3.7 1 6.1 4 8.4 25 19.2 49.8 38.5 74.6 57.9 2.6 2 4.5 4.7 6.8 7.1v297c-3.2 10.8-10.2 17.8-21 21h-470c-11-3.3-18-10.3-21.2-21.1zm17.4-281.4v271.6c1.8-1.3 3.2-2.3 4.4-3.3l216.3-168c12.6-9.7 23.3-9.7 35.8.1l213.6 165.9c2.2 1.7 4.4 3.3 7.1 5.4V210.8c-1.8 1.3-3.1 2.2-4.4 3.1-33.8 26.2-67.6 52.5-101.5 78.8-11.2 8.7-22.3 17.4-33.6 26-4.5 3.4-9.3 2.8-12.4-1.2-3.1-3.9-2.3-8.6 2-12.3 1.3-1.1 2.6-2.1 3.9-3.1 44.6-34.6 89.2-69.3 133.8-103.9 1.2-1 2.4-2 3.9-3.3-20-15.5-39.5-30.6-59.8-46.4v62.7c0 7.5-3.1 11.7-8.7 11.6-5.5 0-8.4-4.1-8.4-11.8V65c0-10.6-2.3-12.9-12.9-12.9H116c-10.6 0-12.9 2.3-12.9 12.9v145c0 2 .1 4-.3 6-.8 4.1-3.6 6.4-7.6 6.7-3.8.3-6.9-1.5-8.3-5.2-.7-2-.9-4.2-.9-6.4-.1-18.8 0-37.7 0-56.5 0-1.7-.2-3.5-.3-6-20.2 15.7-39.7 30.9-59.5 46.2 1.7 1.4 2.8 2.3 3.9 3.2 38.4 29.8 76.8 59.7 115.3 89.5 7.5 5.8 15.1 11.6 22.5 17.5 4.1 3.3 4.6 8.2 1.8 12-2.8 3.7-7.8 4.4-12 1.5-1-.6-1.9-1.4-2.8-2.1-39.2-30.5-78.4-60.9-117.6-91.4-6-4.5-12.2-9.3-18.9-14.4zm466.4 285.2c-1.6-1.4-2.3-2.1-3.1-2.7-72.5-56.3-145-112.6-217.4-168.9-6.1-4.7-8.5-4.7-14.6 0l-216.3 168c-1.2.9-2.3 2-4 3.5 152.1.1 303.2.1 455.4.1zm-252.1-461h48.6c-7.3-5.6-13.5-10.9-20.2-15.3-2-1.3-6.3-1.3-8.2 0-6.8 4.4-12.9 9.6-20.2 15.3z"/><path class="st0" d="M252 1c-11.4 4-20.4 12.1-28.9 20-12.2 11.3-25.4 15.4-41.9 14.4-22.4-1.3-45-.3-67.5-.3-16.7 0-27.4 10.7-27.5 27.5-.1 19.7-.1 39.3.1 59 0 4-1.3 6.3-4.4 8.7-24.8 19.1-49.5 38.3-74.2 57.6-2.6 2-4.5 4.7-6.8 7.1C1 130.4 1 65.8 1 1h251zm261 194c-2.2-2.4-4.2-5.1-6.8-7.1-24.8-19.4-49.6-38.7-74.6-57.9-3-2.3-4-4.7-4-8.4.2-19.3.1-38.6.1-58 0-18.1-10.5-28.6-28.5-28.6-28.3 0-56.6.1-85-.1-2.9 0-6.1-1.3-8.5-3-8.9-6.5-17.3-13.6-26.2-20-5.6-4-11.7-7.3-17.6-11h251c.1 64.8.1 129.4.1 194.1zM1 492c3.2 10.8 10.2 17.8 21 21H1v-21zm491 21c10.8-3.2 17.8-10.2 21-21v21h-21z"/><path class="st0" d="M18.4 210.6c6.7 5.2 12.9 9.9 19 14.7 39.2 30.4 78.4 60.9 117.6 91.4.9.7 1.8 1.5 2.8 2.1 4.3 2.8 9.2 2.2 12-1.5 2.8-3.8 2.3-8.7-1.8-12-7.4-6-15-11.7-22.5-17.5-38.4-29.8-76.8-59.7-115.3-89.5-1.2-.9-2.3-1.9-3.9-3.2 19.8-15.4 39.3-30.5 59.5-46.2.1 2.5.3 4.3.3 6v56.5c0 2.1.1 4.4.9 6.4 1.4 3.7 4.4 5.5 8.3 5.2 4-.3 6.9-2.6 7.6-6.7.4-1.9.3-4 .3-6v-145c0-10.6 2.3-12.9 12.9-12.9h281.5c10.6 0 12.9 2.3 12.9 12.9v146c0 7.7 2.9 11.7 8.4 11.8 5.5 0 8.7-4.1 8.7-11.6v-62.7c20.3 15.8 39.8 30.9 59.8 46.4-1.5 1.3-2.6 2.3-3.9 3.3-44.6 34.6-89.2 69.3-133.8 103.9-1.3 1-2.7 2-3.9 3.1-4.3 3.7-5.1 8.4-2 12.3 3.1 4 7.9 4.6 12.4 1.2 11.3-8.6 22.4-17.3 33.6-26 33.8-26.3 67.6-52.5 101.5-78.8 1.3-1 2.6-1.9 4.4-3.1v271.5c-2.7-2.1-4.9-3.7-7.1-5.4C417.4 421.6 346.2 366.3 275 311c-12.6-9.8-23.3-9.9-35.8-.1l-216.3 168c-1.3 1-2.6 1.9-4.4 3.3-.1-90.6-.1-180.6-.1-271.6zm272.7-.7c.4.9.7 1.1.7 1.4 3.9 18.4 19 30.2 36.5 28.5 18-1.7 30.7-16 30.9-35 .1-12.5.3-25-.1-37.5-2-60.3-57.3-106.1-116.8-97.1-58.9 8.9-97.6 64.6-85.4 122.9 9.6 46 51.3 80.5 97.8 80.8 2.1 0 4.4-.2 6.3-1.1 3.7-1.8 5.1-5.2 4.2-9.2-1-4.6-4.2-6.6-8.7-6.6-11-.1-21.5-2.2-31.6-6.3-35.9-14.7-57.9-52.5-52.5-89.9 5.9-40.4 36.8-70.2 76.9-74 44.7-4.2 85.6 27.1 91.6 71.5 2.2 16.4.9 33.2 1.1 49.9 0 1.1-.4 2.3-.8 3.4-2.7 7.5-10.5 12.3-18.1 11.2-8.7-1.3-14.8-8.1-15-17.3-.2-11 0-22-.1-33 0-5.4-3.2-8.9-7.8-9.3-5.3-.4-8.9 3.6-9.3 10.5-.9 14.9-11.6 27.8-26 31.2-15 3.5-30.5-3.3-37.9-16.7-7.3-13.3-5-29.8 5.7-40.6 6.7-6.7 14.9-9.6 24.3-10.2 5.6-.4 8.7-4.3 8.2-9.3-.4-4.7-4-7.6-9.4-7.6-29.2-.1-52.1 25.6-49.9 56.1 2 28 29.4 49.8 57.4 45.7 10.4-1.4 19.4-5.6 27.8-12.4z"/><path class="st0" d="M484.8 495.8H29.5c1.7-1.5 2.8-2.6 4-3.5l216.3-168c6.1-4.7 8.5-4.8 14.6 0 72.5 56.3 145 112.6 217.4 168.9.7.6 1.4 1.2 3 2.6zm-252.1-461c7.3-5.6 13.4-10.9 20.2-15.3 2-1.3 6.2-1.3 8.2 0 6.7 4.4 12.9 9.6 20.2 15.3h-48.6z"/><path d="M291.1 209.9c-8.3 6.8-17.3 11-27.7 12.5-28 4-55.5-17.8-57.4-45.7-2.1-30.6 20.7-56.2 49.9-56.1 5.4 0 9 2.9 9.4 7.6.5 5-2.6 8.9-8.2 9.3-9.3.6-17.6 3.5-24.3 10.2-10.7 10.7-13.1 27.3-5.7 40.6 7.4 13.4 22.9 20.2 37.9 16.7 14.3-3.3 25.1-16.3 26-31.2.4-7 4-11 9.3-10.5 4.6.4 7.7 4 7.8 9.3.1 11-.1 22 .1 33 .2 9.2 6.2 16 15 17.3 7.6 1.1 15.4-3.7 18.1-11.2.4-1.1.8-2.2.8-3.4-.2-16.6 1.1-33.5-1.1-49.9-6-44.5-47-75.8-91.6-71.5-40.1 3.8-71.1 33.6-76.9 74-5.4 37.4 16.6 75.2 52.5 89.9 10.1 4.2 20.7 6.2 31.6 6.3 4.5 0 7.7 2.1 8.7 6.6.9 4-.4 7.4-4.2 9.2-1.8.9-4.2 1.1-6.3 1.1-46.4-.3-88.2-34.8-97.8-80.8-12.2-58.4 26.5-114 85.4-122.9 59.6-9 114.9 36.9 116.8 97.1.4 12.5.3 25 .1 37.5-.2 19-12.9 33.2-30.9 35-17.5 1.7-32.6-10.1-36.5-28.5-.2-.4-.4-.6-.8-1.5z"/></svg>