<svg version="1.1" id="Слой_1" xmlns="http://www.w3.org/2000/svg" x="0" y="0" viewBox="0 0 384 384" xml:space="preserve"><style>.st0{fill:#fff}</style><path d="M.7 289.8V96.3c.2-.8.5-1.7.6-2.5C7.5 41 51.1 1.3 103.9 1.1c59.2-.3 118.4-.2 177.6 0 46.7.2 87.1 31.5 99.4 76.6 1.7 6.1 2.5 12.4 3.8 18.6v193.5c-.2.8-.6 1.6-.7 2.5-4.6 42.6-34.9 78.1-76.3 89.1-6 1.6-12.2 2.5-18.3 3.7H95.9c-.8-.2-1.6-.6-2.5-.6-42.3-4.6-77.6-34.5-88.9-75.6-1.6-6.4-2.5-12.8-3.8-19.1zm191.7 72.7h86.2c5 0 10-.2 14.9-1 40.6-7 68.6-40.3 68.7-81.4.1-58 .1-116-.1-174 0-6.1-.6-12.3-1.9-18.2-8.4-38-40.8-64.1-79.8-64.2-58.5-.1-117-.1-175.5 0-4.4 0-8.8.3-13.1 1-40.3 6.9-68.6 40.2-68.7 81.1-.1 58.2-.1 116.5.1 174.7 0 6 .6 12 1.8 17.8 8.4 38 40.9 64.1 79.8 64.3 29.3 0 58.4-.1 87.6-.1z"/><path class="st0" d="M384.8 96.3c-1.2-6.2-2.1-12.5-3.8-18.6-12.3-45-52.7-76.4-99.4-76.6C222.4.9 163.2.8 104 1.1 51.1 1.3 7.5 41 1.4 93.7c-.1.8-.4 1.7-.6 2.5V.2h384v96.1zM.7 289.8c1.3 6.3 2.1 12.8 3.8 19 11.3 41 46.6 71 88.9 75.6.8.1 1.7.4 2.5.6H.6c.2-31.7.2-63.5.1-95.2zM289.5 385c6.1-1.2 12.3-2.1 18.3-3.7 41.4-11 71.7-46.5 76.3-89.1.1-.8.4-1.6.7-2.5V385h-95.3z"/><path class="st0" d="M192.4 362.5c-29.1 0-58.3.1-87.4 0-38.9-.2-71.4-26.3-79.8-64.3-1.3-5.8-1.8-11.9-1.8-17.8-.1-58.2-.1-116.5-.1-174.7.1-40.9 28.3-74.2 68.7-81.1 4.3-.7 8.7-1 13.1-1 58.5-.1 117-.1 175.5 0 39 .1 71.4 26.2 79.8 64.2 1.3 5.9 1.8 12.1 1.9 18.2.1 58 .1 116 .1 174 0 41.2-28.1 74.5-68.7 81.4-4.9.8-10 1-14.9 1-28.9.2-57.7.1-86.4.1zm105.3-169.4c0-57.8-47-105-104.8-105-57.8-.1-105 46.9-105.1 104.7-.1 57.9 47.1 105.3 105 105.2 57.8 0 104.9-47.1 104.9-104.9zm2.4-80.4c17.1 0 31.1-13.8 31.2-30.9.1-16.9-13.9-31.1-30.9-31.2-17-.1-31.1 13.9-31.1 30.9-.1 17.2 13.8 31.2 30.8 31.2z"/><path d="M297.7 193.1c0 57.8-47.2 104.9-105 104.9-57.9 0-105.2-47.3-105-105.2.2-57.9 47.4-104.9 105.2-104.8 57.8.1 104.9 47.2 104.8 105.1zm-104.9-82.6c-45.5 0-82.5 37-82.5 82.4 0 45.4 37 82.5 82.4 82.5 45.4 0 82.5-37 82.5-82.4.1-45.4-37-82.5-82.4-82.5zm107.3 2.2c-17 0-30.9-14.1-30.9-31.1.1-17 14.1-31 31.1-30.9 17 .1 31 14.3 30.9 31.2 0 17-14 30.9-31.1 30.8zm8.7-31.1c-.1-4.6-4.2-8.5-8.8-8.4-4.7.2-8.4 4.2-8.2 8.8.2 4.5 4 8.2 8.5 8.2 4.6 0 8.6-4 8.5-8.6z"/><path class="st0" d="M192.8 110.5c45.5 0 82.5 37.1 82.4 82.5 0 45.4-37.1 82.5-82.5 82.4-45.4 0-82.5-37.1-82.4-82.5 0-45.4 37-82.4 82.5-82.4zm116-28.9c.1 4.6-3.9 8.6-8.5 8.6-4.5 0-8.3-3.6-8.5-8.2-.2-4.6 3.6-8.7 8.2-8.8 4.6-.1 8.7 3.8 8.8 8.4z"/></svg>