<svg version="1.1" id="Слой_1" xmlns="http://www.w3.org/2000/svg" x="0" y="0" viewBox="0 0 384 384" xml:space="preserve"><style>.st0{fill:#fff}</style><path d="M.7 204.3V181c.3-2.3.6-4.7.9-7 5-44.9 23.1-83.7 54.8-115.9 69.8-70.9 182.4-76.5 258.8-12.7 36.1 30.2 58.5 68.7 66.6 115.2 1.2 6.7 1.9 13.6 2.9 20.3v23.3c-.2 1-.5 1.9-.6 2.9-1.9 27.4-9.3 53.3-22.7 77.2-30.1 53.5-75.4 86.3-135.9 97.7-7.3 1.4-14.8 2-22.2 3h-21.8c-6.5-.8-13.1-1.4-19.6-2.6-46.8-8.1-85.8-30.2-116.4-66.6-22.1-26.2-36.1-56.4-41.9-90.2-1.1-7-1.9-14.2-2.9-21.3zm58-129.5c-27.4 31.4-42.5 68.6-44.6 111.3h79.5c.9-30 6.9-58.7 17.7-85.4C93.7 92 76.5 83.6 58.7 74.8zm268.1.1c-17.8 8.8-35.1 17.2-52.7 25.9 11 26.9 16.8 55.7 17.8 85.4h79.5c-2.2-42.8-17.2-80-44.6-111.3zm-34.9 124.9c-.9 27.9-6.1 54.6-16 80.6 19.1 7 36.9 16.1 53.7 27.4 25.9-31.5 39.8-67.3 41.7-108h-79.4zm-182.3 80.7c-9.9-26.1-15.1-52.9-16-80.6H14.4c-1.8 31.4 20.1 87.8 41.8 107.7 16.6-11.1 34.4-20.1 53.4-27.1zm76.2-94.3v-72.9c-20.9-.6-41.2-3.8-61.3-9.5-10.9 26.6-16.9 53.8-17.5 82.4h78.8zm13.9-72.9V186h78.9c-.8-28.7-6.7-55.9-17.6-82.2-20.3 5.8-40.6 8.8-61.3 9.5zM107 199.9c.7 26.6 5.8 51.9 15.3 76.4 21-6.3 42.1-9.5 63.6-10.2v-66.2H107zm155.9 76.3c7.9-14.5 17.5-63.4 15.1-76.2h-78.4v66.1c21.6.6 42.6 3.9 63.3 10.1zm-45 93.8c39.6-5.9 73.9-23.2 102.7-52.2-15.8-10.4-32.1-18.7-48.7-24.6-8.3 13.8-15.6 27.7-24.5 40.4-9.1 12.7-19.7 24.4-29.5 36.4zm-153-52.2c29 29 63.2 46.3 103.5 51.9-22.6-22.4-40.7-47.9-53.8-76.9-17.6 6.4-33.9 14.5-49.7 25zm120.9 49.4v-87.9c-19.9.7-39.2 3.6-58.4 9.3 13.8 30.4 33.1 56.3 58.4 78.6zm14-87.9v87.6c21-16.4 51.2-57.1 58.1-78.3-18.9-5.7-38.2-8.6-58.1-9.3zm116.3-215c-16.3-21-72.4-48.3-99.5-48 21.5 20.8 38.7 44.3 51.5 70.9 9.5-1.9 37.7-15.4 48-22.9zm-147.7-48C130 21.5 97.1 37.6 69 64.2c15.3 9.7 31.2 17.4 48.3 23.3 12.8-26.8 30-50.3 51.1-71.2zm17.3 83.7V18.8c-23.5 20.8-42 44.7-55.6 72.7 18.4 5.2 36.8 7.9 55.6 8.5zm69.7-8.5c-13.8-28-32.2-52-55.8-72.8V100c19-.6 37.4-3.2 55.8-8.5z"/><path class="st0" d="M384.8 181c-.9-6.8-1.7-13.6-2.9-20.3-8.2-46.5-30.5-85-66.6-115.2-76.4-63.9-189-58.3-258.8 12.6C24.7 90.3 6.6 129.1 1.6 174c-.3 2.3-.6 4.7-.9 7V.3h384c.1 60.3.1 120.5.1 180.7zM203.3 385c7.4-1 14.9-1.6 22.2-3 60.5-11.4 105.8-44.2 135.9-97.7 13.5-23.9 20.8-49.8 22.7-77.2.1-1 .4-1.9.6-2.9V385H203.3zM.7 204.3c1 7.1 1.7 14.3 2.9 21.4 5.8 33.9 19.8 64 41.9 90.2 30.6 36.4 69.5 58.5 116.4 66.6 6.5 1.1 13.1 1.7 19.6 2.6H.7c.1-60.3.1-120.6 0-180.8z"/><path class="st0" d="M58.7 74.8c17.8 8.7 34.9 17.2 52.6 25.9-10.8 26.6-16.8 55.4-17.7 85.4H14.1c2.1-42.6 17.2-79.8 44.6-111.3zm268.1.1c27.4 31.3 42.4 68.5 44.6 111.3h-79.5c-1-29.7-6.8-58.5-17.8-85.4 17.6-8.7 34.9-17.2 52.7-25.9zm-34.9 124.9h79.5c-1.9 40.7-15.8 76.5-41.7 108-16.8-11.3-34.7-20.4-53.7-27.4 9.7-26 15-52.7 15.9-80.6zm-182.3 80.7c-19.1 7-36.8 16-53.4 27.2-21.7-19.9-43.6-76.3-41.8-107.7h79.2c.9 27.6 6.1 54.4 16 80.5zm76.2-94.3h-78.9c.7-28.6 6.7-55.8 17.5-82.4 20.1 5.7 40.4 8.9 61.3 9.5.1 24.4.1 48.5.1 72.9zm13.9-72.9c20.7-.7 41-3.7 61.3-9.6 10.9 26.3 16.8 53.5 17.6 82.2h-78.9v-72.6zM107 199.9h78.8v66.2c-21.5.7-42.6 3.9-63.6 10.2-9.4-24.6-14.5-49.8-15.2-76.4zm155.9 76.3c-20.8-6.2-41.8-9.4-63.3-10.1V200H278c2.4 12.8-7.2 61.6-15.1 76.2zm-45 93.8c9.8-12 20.5-23.7 29.5-36.5 8.9-12.7 16.2-26.6 24.5-40.4 16.6 5.9 32.9 14.2 48.7 24.6-28.9 29.1-63.1 46.4-102.7 52.3zm-153-52.2c15.7-10.5 32.1-18.7 49.7-25.1 13.1 29 31.1 54.6 53.8 76.9-40.2-5.4-74.4-22.8-103.5-51.8zm120.9 49.4c-25.3-22.3-44.6-48.2-58.4-78.5 19.2-5.8 38.5-8.6 58.4-9.3v87.8zm14-87.9c19.9.7 39.2 3.6 58.1 9.2-6.9 21.2-37.1 62-58.1 78.3v-87.5zm116.3-215c-10.3 7.5-38.5 21-48 22.9-12.8-26.6-30-50.1-51.5-70.9 27.1-.2 83.2 27 99.5 48zm-147.7-48c-21 20.8-38.3 44.3-51.1 71.2-17.2-5.9-33-13.5-48.3-23.3 28.1-26.6 61-42.7 99.4-47.9zm17.3 83.7c-18.9-.6-37.2-3.3-55.6-8.5 13.7-27.9 32.1-51.9 55.6-72.7V100zm69.7-8.5c-18.4 5.2-36.8 7.9-55.8 8.5V18.7c23.6 20.8 42 44.8 55.8 72.8z"/></svg>