<svg xmlns="http://www.w3.org/2000/svg" width="96" height="47"><path fill-rule="evenodd" fill="#FFF" d="M95.031 25.231h-9.684l-.968 6.432h8.232l-.969 4.947H83.41L81.473 47h-6.295l4.842-26.716H96l-.969 4.947zm-30.991 0l-.968 6.432h8.232l-.969 4.947h-8.232L60.167 47h-6.296l4.843-26.716h15.98l-.969 4.947H64.04zM40.797 47l5.327-26.716h6.294L47.092 47h-6.295zm-12.59 0l2.421-11.379h-8.233L20.459 47H13.68l5.327-26.716h6.295l-1.453 10.39h7.748l1.937-10.39h6.294L34.502 47h-6.295zm-9.644-29.684c-.226 1.366-1.331 2.473-2.467 2.473H1.694c-1.136 0-1.874-1.107-1.648-2.473L2.502 2.474C2.728 1.107 3.832 0 4.969 0H19.37c1.136 0 1.874 1.107 1.648 2.474l-2.455 14.842z"/></svg>