<svg xmlns="http://www.w3.org/2000/svg" width="587.03" height="287"><path id="Rounded_Rectangle_1" data-name="Rounded Rectangle 1" d="M1432.05 529h-41.45l32.57-163.138h38.5l-8.88 63.443h47.37l11.85-63.443h38.49L1517.93 529h-38.49l14.8-69.483h-50.34zm162.87 0h-38.49L1589 365.862h38.5zm79.95 0h-38.49l29.61-163.138h97.72l-5.93 30.212h-59.22l-5.92 39.271h50.34l-5.92 30.213h-50.34zm130.29 0h-38.49l29.61-163.138H1894l-5.92 30.212h-59.22l-5.93 39.271h50.34l-5.92 30.213h-50.34zm-467.83-287h88.07c6.95 0 11.46 6.76 10.07 15.1l-15.02 90.634c-1.38 8.341-8.13 15.1-15.08 15.1h-88.06c-6.95 0-11.46-6.763-10.08-15.1l15.02-90.634c1.38-8.338 8.13-15.1 15.08-15.1z" transform="translate(-1306.97 -242)" fill-rule="evenodd" fill="#ffe534"/><path id="Rounded_Rectangle_2" data-name="Rounded Rectangle 2" d="M1355.59 267h43.65c8.03 0 13.17 7.674 11.49 17.142l-6.72 37.714c-1.69 9.468-9.57 17.143-17.6 17.143h-43.64c-8.04 0-13.18-7.675-11.5-17.143l6.73-37.714c1.68-9.467 9.56-17.142 17.59-17.142z" transform="translate(-1306.97 -242)" fill="#fff" fill-rule="evenodd"/></svg>