<svg xmlns="http://www.w3.org/2000/svg" width="279" height="267"><path fill-rule="evenodd" fill="#FFE534" d="M58.184 0h208.659c8.232 0 13.531 7.969 11.836 17.8l-39.89 231.4c-1.695 9.83-9.741 17.8-17.973 17.8H12.157c-8.231 0-13.53-7.97-11.836-17.8L40.212 17.8C41.906 7.969 49.953 0 58.184 0z"/><path fill-rule="evenodd" fill="#FFF" d="M86.63 49.445h133.228c5.256 0 8.639 5.076 7.557 11.339l-25.469 147.41c-1.082 6.263-6.22 11.339-11.476 11.339H57.242c-5.256 0-8.64-5.076-7.557-11.339l25.47-147.41c1.081-6.263 6.219-11.339 11.475-11.339z"/></svg>