<svg version="1.1" id="Слой_1" xmlns="http://www.w3.org/2000/svg" x="0" y="0" viewBox="0 0 384.2 384.1" xml:space="preserve"><path d="M384.2 267.9v24c-.2.4-.5.9-.6 1.3-7.9 44.1-33.9 72.4-75.8 86.8-5.6 1.9-11.6 2.8-17.4 4.1h-24.8c-.6-.2-1.1-.6-1.7-.6-11.6-1.5-22.6-5.2-33.2-10.2-2-.9-4.6-1.3-6.8-1-32.9 5.1-64.9 2-96.1-9.8C46.1 331.7-2 246.5 14 160.8c.3-1.8-.2-3.9-.9-5.7-3-7.5-6.6-14.8-9.1-22.5-2-6.2-2.7-12.9-4-19.4V95.9c1.1-6 1.9-12.1 3.4-17.9 17.7-66.7 95.8-98.5 156.3-63.9 1.9 1.1 4.5 1.6 6.6 1.3 42.3-6.1 82.1 1 119.2 22.1 68.3 38.9 103.2 115.2 88.2 191.6-.4 2.1.2 4.6.8 6.7 2.3 7.4 5 14.6 7.3 22 1.2 3.4 1.7 6.8 2.4 10.1zm-186.7 50.4c4.1-.3 12.2-.7 20.2-1.7 18.8-2.3 36.6-7.8 52.4-18.7 26.7-18.5 37.6-51.1 27.1-80.9-6.3-17.8-19.7-28.7-36.1-36.6-16.3-7.9-33.9-11.8-51.4-16-14.8-3.6-29.5-7.5-44.1-11.8-6-1.7-11.4-5.1-15.5-10.1-4.8-5.9-5.7-13.4-1-19.3 3.3-4.1 7.8-7.7 12.5-10.4 7.3-4.3 15.8-5.4 24.2-5.8 22.4-1.1 40.6 5.5 51 27.1 1.9 4 4.5 7.9 7.5 11.2 7.4 8.3 17 9.4 27.2 6.6 9.9-2.7 15.6-9.5 17.4-19.5 1.9-10.9-1.8-20.5-7.9-29.2-9.6-13.7-22.9-22.5-38.5-27.9-26.2-9.1-53-10.4-80.2-5.6-17.4 3.1-33.8 8.8-48 19.7-28.7 22.2-31.1 65.1-4.9 90 11.5 10.9 25.5 17.7 40.5 21.8 17.7 4.8 35.7 8.6 53.5 12.9 10.2 2.5 20.3 5.4 29 11.7 9.4 6.7 12.8 17.3 8.9 27.7-3.1 8.2-9.3 13.5-16.9 17.3-12.1 5.9-25 7.2-38.3 6.6-21.2-1-35.6-11.3-44.3-30.4-2-4.4-4.3-8.7-6.7-12.9-4.3-7.4-10.8-11.4-19.4-12.2-16.3-1.8-28.2 7.2-29 22.5-.3 5.6.6 11.6 2.5 16.9 7.9 22.3 24.1 37 45.3 46.3 18.7 8.1 38.7 10.5 63 10.7z" fill="#ffe534"/><path d="M197.5 318.3c-24.3-.2-44.3-2.5-63-10.7-21.2-9.3-37.4-24-45.3-46.3-1.9-5.3-2.8-11.3-2.5-16.9.8-15.3 12.7-24.3 28.9-22.8 8.7.8 15.1 4.8 19.4 12.2 2.4 4.2 4.7 8.5 6.7 12.9 8.7 19.1 23.1 29.4 44.3 30.4 13.3.6 26.2-.7 38.3-6.6 7.6-3.7 13.8-9.1 16.9-17.3 3.9-10.4.5-21-8.9-27.7-8.7-6.2-18.8-9.2-29-11.7-17.8-4.4-35.8-8.1-53.5-12.9-15.1-4.1-29-10.8-40.5-21.8-26.2-24.9-23.8-67.8 4.9-90 14.2-11 30.6-16.7 48-19.7 27.2-4.8 54-3.5 80.2 5.6 15.6 5.4 28.9 14.2 38.5 27.9 6.1 8.7 9.8 18.3 7.9 29.2-1.8 10-7.5 16.8-17.4 19.5-10.1 2.8-19.8 1.7-27.2-6.6-3-3.3-5.5-7.2-7.5-11.2-10.4-21.6-28.7-28.2-51-27.1-8.4.4-16.8 1.5-24.2 5.8-4.6 2.7-9.1 6.2-12.5 10.4-4.8 5.9-3.9 13.4 1 19.3 4.1 5 9.5 8.4 15.5 10.1 14.6 4.2 29.3 8.2 44.1 11.8 17.5 4.2 35 8.1 51.4 16s29.7 18.8 36.1 36.6c10.6 29.8-.4 62.4-27.1 80.9-15.8 10.9-33.6 16.4-52.4 18.7-7.9 1.2-16 1.6-20.1 2z" fill="#fff"/></svg>