<svg version="1.1" id="Слой_1" xmlns="http://www.w3.org/2000/svg" x="0" y="0" viewBox="0 0 384 384.6" xml:space="preserve"><path fill="#ffe534" d="M384 32.9v6c-.3.7-.6 1.3-.8 2-11.8 56.4-23.5 112.9-35.2 169.3-9.7 46.8-19.5 93.6-29.2 140.4-1.1 5.4-4.6 9.2-9.5 9-2.9-.1-6.1-1.3-8.5-3-28.2-20.3-56.3-40.7-84.3-61.1-9.6-7-14.8-6.8-24.1.7-14.9 12.2-29.8 24.3-44.7 36.5-8 6.5-15.6 4.2-18.7-5.6-10.9-34.9-21.7-69.8-32.5-104.7-.8-2.5-2-3.9-4.5-4.8-27-10-54-20.1-81-30.1-4.6-1.7-8.6-3.7-10.9-8.2v-6c1.8-3.6 4.4-6 8.3-7.5 119.5-46 239.1-92.2 358.6-138.3 8.6-3.5 11.8-2.5 17 5.4zM115.6 216.5c.2 1.3.4 2.9.8 4.5 6.1 21.5 12.3 42.9 18.3 64.4.8 2.8 2.1 4.5 5.2 4.2 2.9-.3 3.7-2.5 4-5 1.3-9.8 2.9-19.5 3.8-29.3 1-11 5.8-19.3 13.9-26.8 44.9-41.4 89.6-83.1 134.3-124.7 1.4-1.3 3-2.4 4-3.9.7-1.1.6-2.8.9-4.2-1.4-.2-2.9-.6-4.3-.6-.8 0-1.5.8-2.2 1.3-23 14.1-45.9 28.3-68.9 42.4-33.5 20.6-66.9 41.3-100.4 61.8-5.9 3.7-9 8.8-9.4 15.9z"/></svg>