<svg version="1.1" id="Слой_1" xmlns="http://www.w3.org/2000/svg" x="0" y="0" viewBox="0 0 384 384.7" xml:space="preserve"><path fill="#ffe534" d="M384 89.2v207c-.2 1.1-.6 2.1-.7 3.2-4.6 38.8-32 71.1-69.6 81.6-6 1.7-12.2 2.5-18.3 3.7H87.6c-.8-.2-1.6-.6-2.5-.7-38.5-4.4-71-31.9-81.5-69.2C2.1 309 1.2 302.9 0 297V88.5c.2-.8.6-1.6.7-2.5C6.1 38.1 46.8 1 95.1.8c64.5-.3 129-.2 193.4 0 42.8.2 80.3 29 91.8 70.2 1.6 5.9 2.5 12.1 3.7 18.2zM103.9 76.3c-.3 0-1.7 0-3 .3-29.2 7.7-44 30.6-32.8 59 9.1 23 20.9 44.5 35.3 64.6 35.8 50.2 83.4 85.2 139.8 108.7 5 2.1 11.1 3.7 16.3 3.1 18.9-2.5 32-13.9 40.9-30.1 6.4-11.5 4.7-20.3-5.7-28.5-11.5-9-23.3-17.6-35.5-25.7-4.4-2.9-10-4.8-15.3-5.6-10.3-1.4-17 4.9-22.6 12.6-6.4 9-13.8 11.6-23.7 6.9-9.8-4.6-19.4-9.8-28.2-16.1-16.1-11.5-27.7-27-34.5-45.7-3.8-10.4-1.1-18.1 7.9-24.6 2.6-1.9 5.3-3.7 7.7-5.9 6-5.6 7.6-12 4.3-19.4-8.7-19-21-35.4-36.6-49.3-3.8-3.1-8.3-4.5-14.3-4.3zm197.7 104.3c-.3-26.4-9.8-49.2-27.1-68.8-22.4-25.3-50.4-39-84.6-39-5.4 0-8 2.1-8.2 6.6-.2 3.7 2 5.4 7.4 6 4 .4 7.9.8 11.9 1.6 17.9 3.3 35.1 8.7 50.1 19.6 18.9 13.7 28.9 33 33.9 55.2 2.1 9.3 3 18.9 4.5 28.4.6 3.6 2.9 5 6.4 4.8 3.4-.1 5.5-1.7 5.8-5.1.1-3-.1-6.2-.1-9.3zm-29.5-7.5c0-18.6-7-34.2-19.7-47.5-14.7-15.3-33.1-22.7-54-24.4-3-.2-5.8.3-7.1 3.5-2 4.7-.3 8.1 4.7 9.2 6.5 1.5 13.2 2.7 19.7 4.5 19 5.2 33.3 16 38.9 35.6 2.2 7.7 3.4 15.8 4.9 23.7.8 4.4 2.5 6.5 6.3 6.4 4-.1 6.1-2.2 6.3-6.7.1-1.3 0-2.8 0-4.3zm-27.7-7c-.1-15.4-15.3-33.1-30.5-35.6-3.1-.5-6.5-.5-9.6.1-3.3.6-4.8 3.4-4.8 6.7 0 3.4 2.5 4.3 5.1 5 1.6.4 3.2.6 4.8.9 11.8 2.6 19.1 9.8 21.4 21.7.3 1.3.4 2.7.7 4.1 1 4.4 3.3 6.6 6.6 6.4 3.6-.2 5.7-2.6 6.3-7.1v-2.2z"/><path fill="#fff" class="st0" d="M103.9 76.3c6-.2 10.5 1.2 14.2 4.5 15.6 13.9 27.9 30.3 36.6 49.3 3.4 7.4 1.7 13.8-4.3 19.4-2.4 2.2-5.1 4-7.7 5.9-8.9 6.5-11.6 14.2-7.9 24.6 6.8 18.7 18.4 34.1 34.5 45.7 8.8 6.3 18.4 11.5 28.2 16.1 9.9 4.7 17.3 2.1 23.7-6.9 5.6-7.8 12.3-14 22.6-12.6 5.3.7 10.9 2.6 15.3 5.6 12.1 8.1 24 16.7 35.5 25.7 10.4 8.1 12.1 17 5.7 28.5-9 16.2-22.1 27.6-40.9 30.1-5.2.7-11.3-1-16.3-3.1-56.4-23.6-104-58.6-139.8-108.7C89 180.3 77.1 158.7 68 135.8c-11.2-28.3 3.6-51.3 32.8-59 1.4-.5 2.8-.5 3.1-.5zm197.7 104.3c0 3.1.2 6.2 0 9.3-.2 3.4-2.4 5-5.8 5.1-3.5.1-5.8-1.2-6.4-4.8-1.5-9.5-2.4-19.1-4.5-28.4-5-22.2-15-41.5-33.9-55.2-15-10.9-32.1-16.3-50.1-19.6-3.9-.7-7.9-1.1-11.9-1.6-5.4-.6-7.7-2.3-7.4-6 .3-4.5 2.9-6.6 8.2-6.6 34.2 0 62.2 13.7 84.6 39 17.4 19.6 26.9 42.4 27.2 68.8z"/><path fill="#fff" class="st0" d="M272.1 173.1c0 1.5.1 3 0 4.5-.2 4.5-2.3 6.7-6.3 6.7-3.8.1-5.5-2-6.3-6.4-1.4-8-2.7-16-4.9-23.7-5.6-19.7-19.9-30.4-38.9-35.6-6.5-1.8-13.1-2.9-19.7-4.5-5-1.2-6.7-4.6-4.7-9.2 1.4-3.2 4.1-3.8 7.1-3.5 20.9 1.7 39.3 9.1 54 24.4 12.7 13.1 19.8 28.8 19.7 47.3z"/><path fill="#fff" class="st0" d="M244.4 166.1c0 .4 0 1.3-.1 2.1-.6 4.5-2.7 6.9-6.3 7.1-3.3.2-5.6-1.9-6.6-6.4-.3-1.3-.4-2.7-.7-4.1-2.4-11.9-9.6-19.1-21.4-21.7-1.6-.4-3.2-.5-4.8-.9-2.6-.7-5.1-1.6-5.1-5 0-3.3 1.5-6.1 4.8-6.7 3.1-.6 6.5-.6 9.6-.1 15.4 2.7 30.6 20.3 30.6 35.7z"/></svg>