<svg version="1.1" id="Слой_1" xmlns="http://www.w3.org/2000/svg" x="0" y="0" viewBox="0 0 384 384.7" xml:space="preserve"><path fill="#ffe534" d="M384 180.7v24c-1 6.9-1.7 13.8-2.9 20.7-13.6 79.4-76.4 142.5-155.7 156.3-7.1 1.2-14.3 2-21.4 3h-23.3c-1.2-.2-2.4-.5-3.7-.6-31.5-2.4-60.5-12.1-87.2-29-2.4-1.5-4.4-1.9-7.2-1-22 7.2-44.1 14.2-66.2 21.3-1.1.3-2.2.6-3.7.9 7.6-22.8 15-45 22.6-67.2.9-2.8.7-4.7-1-7.2-16.2-23-26.7-48.4-31.4-76.2-1.2-7.2-2-14.5-3-21.8v-23.3c.2-1.3.5-2.7.7-4 .9-6.7 1.5-13.4 2.8-20 9.6-48 33.8-87.2 72.8-116.8 43.7-33.1 93.2-45 147.3-36.5 35.9 5.6 67.6 20.9 94.8 45 33.7 29.8 54.8 66.9 62.7 111.3 1.3 7 2 14.1 3 21.1zM254.7 300.2c.1.3.2.6.2.9 6.7-1.6 13.8-2.5 20.2-5.1 24.4-10 31.8-22.2 32.6-46.2.1-3.7-1.3-6.2-4.6-7.8-14.5-6.9-29-14.1-43.5-20.9-7.1-3.3-11.3-1.9-15.9 4.3-4 5.4-7.9 11-12.1 16.2-5.3 6.6-9.5 7.5-17.4 4.3-31.7-12.7-55.4-34.6-73.1-63.4-4.1-6.7-4-8.7 1.1-14.6 3.9-4.6 8-9 11.8-13.6 3.6-4.4 4.2-9.1 1.7-14.6-5.4-12.2-10.3-24.6-15.4-37-5.9-14.2-5.9-14.4-22.7-14.1-6.2.1-12.4 1.7-16.8 6.4-4.7 5.1-9.5 10.4-12.8 16.5-10.1 18.6-9.3 37.8-2.1 57.2 5.7 15.3 15 28.4 24.6 41.4 28.1 37.9 62.4 67.6 108.3 82.1 11.7 3.7 23.4 7.8 35.9 8z"/><path fill="#fff" class="st0" d="M254.7 300.2c-12.6-.2-24.2-4.3-36-8-45.9-14.5-80.2-44.2-108.3-82.1-9.6-12.9-18.9-26.1-24.6-41.4-7.2-19.4-7.9-38.7 2.1-57.2 3.3-6 8.1-11.4 12.8-16.5 4.4-4.7 10.6-6.3 16.8-6.4 16.8-.3 16.8-.1 22.7 14.1 5.1 12.3 10 24.7 15.4 37 2.4 5.5 1.9 10.2-1.7 14.6-3.8 4.6-7.9 9-11.8 13.6-5.1 6-5.2 8-1.1 14.6 17.7 28.8 41.4 50.7 73.1 63.4 8 3.2 12.2 2.3 17.4-4.3 4.2-5.3 8.1-10.8 12.1-16.2 4.6-6.2 8.8-7.6 15.9-4.3 14.6 6.8 29 13.9 43.5 20.9 3.4 1.6 4.7 4.1 4.6 7.8-.8 24.1-8.2 36.2-32.6 46.2-6.4 2.6-13.4 3.4-20.2 5.1.1-.3 0-.6-.1-.9z"/></svg>