<svg width="35" height="35" viewBox="0 0 35 35" fill="none" xmlns="http://www.w3.org/2000/svg">
<path d="M12.8923 22.1569H9.1108V18.4836H13.0604H13.0604C13.7671 18.4835 14.3401 19.0564 14.3401 19.7632V20.7092C14.3401 21.5087 13.6919 22.1569 12.8923 22.1569ZM20.508 12.337V12.7371H20.908H27.1494H27.5494V12.337V10.6396V10.2396H27.1494H20.908H20.508V10.6396V12.337ZM5.50182 9.50797V9.10797H5.10182V9.50797V25.4919V25.8919H5.50182H12.7511V25.4919C12.7511 25.8919 12.7512 25.8919 12.7514 25.8919H12.7516H12.7523L12.7542 25.8919L12.7599 25.8918L12.7791 25.8916C12.791 25.8914 12.8065 25.891 12.8254 25.8904C12.8323 25.8902 12.8396 25.89 12.8474 25.8897C12.9055 25.8876 12.9884 25.8834 13.0913 25.8751C13.2969 25.8587 13.5843 25.826 13.9159 25.7606C14.5735 25.6309 15.4331 25.3675 16.171 24.8238L16.171 24.8238C16.8857 24.2971 17.4381 23.6822 17.8075 22.8947C18.0632 22.3497 18.2253 21.7348 18.3003 21.0289C18.4486 21.8028 18.7539 22.6909 19.3047 23.491C20.1801 24.7625 21.6606 25.7859 24.0203 25.7859C26.154 25.7859 27.4828 25.2794 28.3191 24.6352C29.1567 23.9899 29.4521 23.2423 29.5862 22.8687C29.7259 22.4796 29.7754 22.122 29.7903 21.8614C29.7978 21.7306 29.7966 21.6228 29.7934 21.5457C29.7917 21.5072 29.7896 21.4762 29.7877 21.4537L29.7852 21.4264L29.7842 21.4178L29.7839 21.4147L29.7838 21.4135L29.7837 21.413L29.7837 21.4128C29.7837 21.4126 29.7836 21.4125 29.3865 21.4606L29.7836 21.4125L29.741 21.0606H29.3865H26.7698H26.3061L26.3731 21.5125C26.3733 21.5152 26.3736 21.5205 26.3737 21.528C26.374 21.547 26.373 21.5792 26.3663 21.6199C26.3531 21.7003 26.3183 21.8129 26.2267 21.9294C26.0513 22.1523 25.5797 22.4929 24.3033 22.4929C23.6982 22.4929 23.2816 22.3519 22.9907 22.1644C22.6989 21.9762 22.5078 21.7245 22.3813 21.4632C22.2654 21.2237 22.2057 20.9798 22.1758 20.7821H29.4574V20.3821C29.8546 20.4287 29.8547 20.4285 29.8547 20.4283L29.8547 20.4278L29.8549 20.4262L29.8555 20.4211L29.8574 20.4034C29.859 20.3884 29.8611 20.3669 29.8636 20.3394C29.8685 20.2843 29.8749 20.2049 29.8808 20.1048C29.8926 19.9047 29.9027 19.6207 29.8963 19.2805C29.8836 18.6029 29.8052 17.6898 29.5373 16.7694C29.2697 15.8499 28.8058 14.8995 28.0058 14.1774C27.1978 13.4481 26.0783 12.9803 24.5596 12.9803C23.091 12.9803 21.9405 13.2925 21.045 13.809C20.1489 14.3258 19.5301 15.0345 19.1059 15.793C18.5046 16.8682 18.2914 18.0486 18.2188 18.9499C17.9926 18.0454 17.5051 17.3926 17.0177 16.9446C16.8151 16.7584 16.6127 16.6075 16.4294 16.4878C16.5446 16.4103 16.6654 16.3179 16.7861 16.2082C17.3536 15.693 17.8897 14.8242 17.8897 13.4257C17.8897 11.9977 17.4018 10.8988 16.5377 10.1638C15.6836 9.43734 14.5108 9.10797 13.2108 9.10797H13.1932H13.1755H13.1578H13.14H13.1223H13.1044H13.0866H13.0687H13.0508H13.0328H13.0148H12.9967H12.9787H12.9606H12.9424H12.9242H12.906H12.8878H12.8695H12.8512H12.8328H12.8144H12.796H12.7776H12.7591H12.7406H12.7221H12.7035H12.6849H12.6662H12.6476H12.6289H12.6102H12.5914H12.5726H12.5538H12.535H12.5161H12.4972H12.4783H12.4593H12.4404H12.4214H12.4023H12.3833H12.3642H12.3451H12.3259H12.3068H12.2876H12.2684H12.2492H12.2299H12.2106H12.1913H12.172H12.1526H12.1333H12.1139H12.0945H12.075H12.0556H12.0361H12.0166H11.997H11.9775H11.9579H11.9384H11.9188H11.8991H11.8795H11.8598H11.8402H11.8205H11.8008H11.781H11.7613H11.7415H11.7217H11.7019H11.6821H11.6623H11.6425H11.6226H11.6027H11.5828H11.5629H11.543H11.5231H11.5031H11.4832H11.4632H11.4432H11.4232H11.4032H11.3832H11.3632H11.3432H11.3231H11.303H11.283H11.2629H11.2428H11.2227H11.2026H11.1825H11.1623H11.1422H11.1221H11.1019H11.0818H11.0616H11.0414H11.0212H11.0011H10.9809H10.9607H10.9405H10.9203H10.9H10.8798H10.8596H10.8394H10.8192H10.7989H10.7787H10.7585H10.7382H10.718H10.6977H10.6775H10.6572H10.637H10.6167H10.5965H10.5762H10.556H10.5357H10.5155H10.4952H10.475H10.4548H10.4345H10.4143H10.394H10.3738H10.3536H10.3333H10.3131H10.2929H10.2727H10.2524H10.2322H10.212H10.1918H10.1716H10.1515H10.1313H10.1111H10.0909H10.0708H10.0506H10.0305H10.0103H9.99019H9.97007H9.94995H9.92985H9.90975H9.88966H9.86959H9.84952H9.82946H9.80942H9.78938H9.76936H9.74935H9.72935H9.70936H9.68938H9.66942H9.64947H9.62953H9.60961H9.5897H9.5698H9.54992H9.53005H9.5102H9.49036H9.47054H9.45074H9.43095H9.41117H9.39142H9.37168H9.35196H9.33225H9.31256H9.2929H9.27325H9.25361H9.234H9.21441H9.19483H9.17528H9.15575H9.13623H9.11674H9.09727H9.07782H9.05839H9.03898H9.01959H9.00023H8.98089H8.96157H8.94228H8.92301H8.90376H8.88454H8.86534H8.84617H8.82702H8.80789H8.7888H8.76972H8.75068H8.73166H8.71267H8.6937H8.67476H8.65585H8.63697H8.61811H8.59928H8.58049H8.56172H8.54298H8.52427H8.50558H8.48693H8.46831H8.44972H8.43117H8.41264H8.39414H8.37568H8.35725H8.33885H8.32048H8.30215H8.28385H8.26558H8.24735H8.22915H8.21098H8.19285H8.17476H8.1567H8.13867H8.12068H8.10273H8.08482H8.06694H8.0491H8.03129H8.01352H7.99579H7.9781H7.96045H7.94283H7.92526H7.90772H7.89023H7.87277H7.85535H7.83798H7.82064H7.80335H7.78609H7.76888H7.75171H7.73458H7.7175H7.70046H7.68346H7.6665H7.64959H7.63272H7.61589H7.59911H7.58238H7.56569H7.54904H7.53244H7.51589H7.49938H7.48292H7.4665H7.45013H7.43381H7.41754H7.40132H7.38514H7.36901H7.35293H7.3369H7.32092H7.30498H7.2891H7.27327H7.25749H7.24176H7.22608H7.21045H7.19487H7.17935H7.16387H7.14845H7.13308H7.11777H7.10251H7.0873H7.07214H7.05704H7.042H7.02701H7.01207H6.99719H6.98237H6.9676H6.95288H6.93823H6.92363H6.90908H6.8946H6.88017H6.8658H6.85149H6.83723H6.82304H6.8089H6.79483H6.78081H6.76685H6.75295H6.73912H6.72534H6.71163H6.69797H6.68438H6.67085H6.65738H6.64398H6.63063H6.61735H6.60414H6.59098H6.5779H6.56487H6.55191H6.53901H6.52618H6.51342H6.50072H6.48808H6.47552H6.46301H6.45058H6.43821H6.42591H6.41368H6.40151H6.38942H6.37739H6.36543H6.35354H6.34172H6.32997H6.31828H6.30667H6.29513H6.28366H6.27226H6.26093H6.24968H6.23849H6.22738H6.21634H6.20537H6.19448H6.18366H6.17291H6.16224H6.15164H6.14111H6.13066H6.12029H6.10999H6.09976H6.08962H6.07954H6.06955H6.05963H6.04979H6.04002H6.03034H6.02073H6.0112H6.00174H5.99237H5.98308H5.97386H5.96473H5.95567H5.94669H5.9378H5.92898H5.92025H5.9116H5.90303H5.89454H5.88613H5.87781H5.86957H5.86141H5.85334H5.84535H5.83744H5.82961H5.82188H5.81422H5.80665H5.79917H5.79177H5.78446H5.77723H5.7701H5.76304H5.75608H5.7492H5.74241H5.73571H5.72909H5.72257H5.71613H5.70978H5.70352H5.69735H5.69127H5.68528H5.67939H5.67358H5.66786H5.66224H5.6567H5.65126H5.64591H5.64065H5.63549H5.63042H5.62544H5.62056H5.61577H5.61107H5.60647H5.60196H5.59755H5.59323H5.58901H5.58489H5.58086H5.57692H5.57309H5.56935H5.56571H5.56217H5.55872H5.55537H5.55212H5.54897H5.54592H5.54297H5.54012H5.53737H5.53471H5.53216H5.52971H5.52736H5.52511H5.52297H5.52092H5.51898H5.51714H5.5154H5.51377H5.51224H5.51081H5.50949H5.50827H5.50715H5.50614H5.50524H5.50444H5.50375H5.50316H5.50268H5.5023H5.50203H5.50187L5.50182 9.50797ZM13.6505 13.6896V14.397C13.6505 14.8937 13.2478 15.2965 12.751 15.2965H9.1108V12.7901H12.751C13.2478 12.7901 13.6505 13.1929 13.6505 13.6896ZM34.6 0.4V34.6H0.4V0.4H34.6ZM22.3381 17.6304C22.3885 17.4631 22.4645 17.268 22.5779 17.075C22.8579 16.5986 23.3731 16.1142 24.3946 16.1142C24.9189 16.1142 25.2778 16.2413 25.5282 16.4087C25.7805 16.5773 25.9488 16.8044 26.0619 17.0434C26.1587 17.2478 26.2126 17.456 26.242 17.6304H22.3381Z" stroke="black" stroke-width="0.6"/>
</svg>
