<svg width="35" height="35" viewBox="0 0 35 35" fill="none" xmlns="http://www.w3.org/2000/svg">
<path d="M24.8629 17.4999C24.8629 17.1304 24.835 16.7676 24.7821 16.4132H26.0973V25.4537C26.0973 25.8091 25.8091 26.0973 25.4537 26.0973H9.54633C9.1909 26.0973 8.90268 25.8091 8.90268 25.4537V16.4132H10.2179C10.1649 16.7676 10.1369 17.1303 10.1369 17.4999C10.1369 21.5665 13.4334 24.8629 17.4999 24.8629C21.5665 24.8629 24.8629 21.5665 24.8629 17.4999ZM21.79 17.5001C21.79 19.8694 19.8692 21.7902 17.4999 21.7902C15.1306 21.7902 13.2098 19.8694 13.2098 17.5001C13.2098 15.1307 15.1306 13.21 17.4999 13.21C19.8692 13.21 21.79 15.1307 21.79 17.5001ZM24.9054 12.2832H23.1191C22.8164 12.2832 22.571 12.0378 22.571 11.735V9.94874C22.571 9.64595 22.8164 9.40056 23.1191 9.40056H24.9054C25.2084 9.40056 25.4538 9.64599 25.4538 9.94874V11.7349C25.4538 12.0377 25.2082 12.2832 24.9054 12.2832ZM34.6 0.4V34.6H0.4V0.4H34.6ZM29.0475 9.16427C29.0475 7.39057 27.6096 5.95263 25.8359 5.95263H9.16427C7.39057 5.95263 5.95263 7.39057 5.95263 9.16427V25.8359C5.95263 27.6096 7.39057 29.0475 9.16427 29.0475H25.8359C27.6096 29.0475 29.0475 27.6096 29.0475 25.8359V9.16427Z" stroke="black" stroke-width="0.8"/>
</svg>
