<?xml version="1.0" encoding="utf-8"?>
<!-- Generator: Adobe Illustrator 23.0.3, SVG Export Plug-In . SVG Version: 6.00 Build 0)  -->
<svg version="1.1" id="Слой_1" xmlns="http://www.w3.org/2000/svg" xmlns:xlink="http://www.w3.org/1999/xlink" x="0px" y="0px"
	 viewBox="0 0 35 35" style="enable-background:new 0 0 35 35;" xml:space="preserve">
<g>
	<path d="M0,0v35h35V0H0z M34.2,34.2H0.8V0.8h33.4V34.2z"/>
	<path d="M26.6,27.8c0.1-0.1,0.3-0.2,0.4-0.3c0,0,0,0,0,0l0.2-0.2c2.3-2.3,2.6-5.8,0.8-8.5c0.1-1.1,0.1-2.2-0.1-3.3
		c-0.7-3.9-3.6-7.2-7.4-8.5c-1.5-0.5-3.1-0.6-4.7-0.4c-2.6-1.6-6-1.1-8.2,1c-2.1,2.1-2.6,5.4-1.1,8c-0.3,1.7-0.1,3.4,0.4,5.1
		c1,3.1,3.5,5.6,6.6,6.8c1.7,0.6,3.5,0.8,5.3,0.6c1.1,0.7,2.4,1.1,3.6,1.1c1.4,0,2.8-0.4,4-1.3C26.5,27.9,26.6,27.9,26.6,27.8z
		 M19.2,27.4l-0.1-0.1l-0.2,0c-1.7,0.3-3.4,0.1-5.1-0.5c-2.9-1.1-5.1-3.4-6.1-6.3c-0.5-1.6-0.6-3.2-0.4-4.8l0-0.1l-0.1-0.1
		c-1.4-2.3-1-5.3,0.9-7.2c2-2,5-2.3,7.3-0.8l0.1,0.1l0.1,0c1.5-0.2,3-0.1,4.5,0.4c3.6,1.1,6.3,4.2,6.9,7.8c0.1,0.7,0.2,1.4,0.1,2.1
		l0,0l-0.2,1.8c0.4,0.1,0.6,0.4,0.7,0.7l0,0c0.7,1.6,0.6,3.4-0.2,5c-0.2,0.4-0.5,0.9-0.8,1.2c-0.2,0.2-0.4,0.4-0.6,0.6
		C24.4,28.7,21.5,28.9,19.2,27.4z"/>
	<path d="M19.2,22.1c-0.7,0.3-1.5,0.4-2.1,0.3c-1.7-0.3-2.4-1.5-3-2.6l0,0c-0.3-0.5-0.9-0.7-1.6-0.5c-0.7,0.3-1,0.9-0.8,1.6
		c0.4,1.8,2.3,3.6,5.1,3.6c3.2,0,5.2-0.9,6-2.6c0.4-0.9,0.6-1.9,0.3-2.8c-0.3-1-0.9-1.7-1.8-2.1c-0.8-0.3-1.8-0.6-2.9-0.8L17.8,16
		c-0.5-0.1-1.1-0.3-1.6-0.5c-0.5-0.2-0.9-0.4-1.1-0.6c-0.2-0.2-0.3-0.5-0.3-0.8c0-0.3,0.2-0.5,0.4-0.7c0.4-0.4,1.2-0.7,1.9-0.7
		c0.7,0,1.2,0.1,1.6,0.2c0.4,0.2,0.7,0.5,1,1c0.2,0.4,0.6,0.8,1,1c0.4,0.3,1,0.4,1.4,0.1c0.3-0.2,0.5-0.5,0.6-0.9
		c0.1-1.2-0.8-3.1-3.9-3.5c-3.1-0.4-5.5,0.5-6.5,2.3c-0.4,0.8-0.4,1.6-0.1,2.4c0.3,1,1.1,1.8,2.1,2.2c0.5,0.2,1.1,0.4,1.6,0.5
		l0.7,0.1c0.4,0.1,0.8,0.2,1.2,0.2c0.4,0.1,1.1,0.3,1.6,0.6c0.5,0.3,0.7,0.6,0.8,1.1c0.1,0.4,0,0.8-0.2,1.2
		C19.8,21.7,19.5,22,19.2,22.1z M20.8,20.1c-0.1-0.7-0.5-1.2-1.2-1.6c-0.6-0.4-1.3-0.6-1.8-0.7c-0.4-0.1-0.8-0.2-1.3-0.3L16,17.4
		c-0.5-0.1-1.1-0.2-1.5-0.4c-0.8-0.4-1.4-1-1.7-1.8c-0.2-0.6-0.2-1.3,0.1-1.8c0.7-1.5,2.9-2.2,5.6-1.9c2.6,0.3,3.4,1.8,3.3,2.7
		c0,0.2-0.1,0.3-0.2,0.3c-0.2,0.1-0.4,0.1-0.6-0.1c-0.2-0.1-0.5-0.4-0.7-0.8c-0.4-0.7-0.8-1.1-1.3-1.3C18.4,12.1,17.8,12,17,12
		c-0.9,0-1.8,0.3-2.4,0.9c-0.4,0.3-0.6,0.8-0.6,1.2c0,0.5,0.1,1,0.5,1.4c0.3,0.3,0.8,0.6,1.4,0.8c0.5,0.2,1.2,0.4,1.7,0.5l0.7,0.2
		c0.9,0.2,1.9,0.4,2.6,0.8c0.7,0.3,1.2,0.8,1.3,1.6c0.2,0.7,0.1,1.5-0.3,2.3c-0.7,1.4-2.4,2.1-5.3,2.1c-2.7,0-4.1-1.8-4.3-3
		c-0.1-0.4,0.2-0.6,0.4-0.7C12.9,20,13,20,13,20c0.1,0,0.3,0.1,0.3,0.1l0.4-0.2l-0.3,0.2c0.6,1.2,1.4,2.8,3.6,3.1
		c0.9,0.1,1.9,0,2.6-0.4c0.5-0.3,0.9-0.6,1.1-1C20.9,21.3,21,20.8,20.8,20.1z"/>
</g>
</svg>
