<svg width="50" height="50" viewBox="0 0 50 50" fill="none" xmlns="http://www.w3.org/2000/svg">
<path d="M21.3716 29.4308L21.3716 29.4308L20.9927 32.2415L20.9927 32.2415C20.9881 32.2755 20.9751 32.2928 20.9632 32.3032C20.9489 32.3156 20.9275 32.3252 20.9016 32.327C20.8758 32.3289 20.8532 32.3224 20.8373 32.3122C20.824 32.3036 20.8087 32.2883 20.7993 32.2554L20.7993 32.2553L19.3405 27.1299C19.2046 26.6526 19.4027 26.143 19.8252 25.8828L33.1921 17.6496L22.1647 27.8998C21.731 28.3029 21.4508 28.8442 21.3716 29.4308ZM10.4502 22.7093L10.4502 22.7093C9.53712 23.0616 9.54408 24.356 10.461 24.6984L10.461 24.6984L17.2496 27.2325L19.8856 35.7091L19.8856 35.7091C20.1094 36.4285 20.9896 36.6938 21.5736 36.2176L25.4218 33.0804C25.7373 32.8232 26.1862 32.8107 26.5156 33.0498L33.457 38.0894C34.0816 38.543 34.9664 38.2009 35.1234 37.4451L40.2075 12.988C40.2075 12.988 40.2076 12.988 40.2076 12.988C40.3791 12.1633 39.5691 11.4761 38.7832 11.7793L10.4502 22.7093ZM49.75 0.25V49.75H0.25V0.25H49.75Z" stroke="black" stroke-width="1"/>
</svg>
