<?xml version="1.0" encoding="utf-8"?>
<!-- Generator: Adobe Illustrator 23.0.3, SVG Export Plug-In . SVG Version: 6.00 Build 0)  -->
<svg version="1.1" id="Слой_1" xmlns="http://www.w3.org/2000/svg" xmlns:xlink="http://www.w3.org/1999/xlink" x="0px" y="0px"
	 viewBox="0 0 50 50" style="enable-background:new 0 0 50 50;" xml:space="preserve">
<g>
	<g>
		<path d="M37.5,35.3c-0.2-0.9-0.9-1.6-1.4-2c-0.4-0.4-1.3-1.1-2.7-2.1c-0.5-0.4-1-0.7-1.4-1l-0.4-0.3l0,0l-0.2-0.1l-0.1-0.1
			c-0.1,0-0.1,0-0.2-0.1l0,0H31c-0.3-0.1-0.5-0.2-0.8-0.2c-0.7-0.1-1.4,0.2-2,0.9c-0.4,0.4-0.7,0.8-0.9,1.2c-0.4,0.5-0.6,0.9-1.1,1
			c-0.1,0-0.2,0.1-0.3,0.1c-0.6,0.2-1,0.4-2.5-0.6L17,25.2c-0.8-1.3-0.6-1.6-0.4-2.2c0-0.1,0-0.1,0.1-0.2c0.2-0.1,0.6-0.5,0.9-0.7
			c0.1-0.1,0.2-0.1,0.3-0.2c0.3-0.2,0.8-0.5,1.2-1c0.7-0.7,0.8-1.6,0.7-2.2c0-0.3-0.1-0.5-0.2-0.8v-0.1l0,0l-0.1-0.1l0,0L18.9,17
			c-0.3-0.4-0.6-0.9-1-1.4c-1-1.4-1.7-2.3-2.1-2.7c-0.4-0.5-1.2-1.1-2-1.4c-1.1-0.3-2.1,0-3.1,0.9c-0.9,0.8-1.7,1.7-2,3.1
			c-0.2,1.3,0.1,3,0.9,5.7c0.7,2.2,2.2,4.7,4.3,7.5c0.6,0.9,1.3,1.7,2,2.5c0.3,0.3,0.5,0.5,0.6,0.7l0.4,0.4l0,0l0.1,0.1
			c0.2,0.2,0.4,0.4,0.7,0.6c0.6,0.5,1.4,1.2,2.5,2c1.9,1.4,4.8,3.3,7.5,4.3c2.1,0.7,3.6,1,4.7,1c0.3,0,0.6,0,0.9-0.1
			c1.4-0.2,2.3-1.1,3.1-2C37.5,37.4,37.8,36.3,37.5,35.3z M36.3,38c-0.9,1-1.7,1.6-2.8,1.8c-1.2,0.2-2.9-0.1-5.4-0.9
			c-2.7-0.9-5.5-2.8-7.4-4.2c-1.1-0.8-1.9-1.5-2.5-2c-0.3-0.3-0.5-0.5-0.7-0.6l-0.2-0.2l0,0c-0.2-0.2-0.3-0.4-0.5-0.6v0.1
			c-0.1-0.1-0.3-0.3-0.4-0.5c-0.7-0.8-1.4-1.6-2-2.5c-2-2.7-3.5-5.2-4.2-7.4c-0.8-2.5-1.1-4.2-0.9-5.4c0.2-1.2,0.8-1.9,1.8-2.8
			c0.6-0.6,1.3-0.9,2-0.9c0.2,0,0.4,0,0.6,0.1c0.8,0.2,1.4,0.8,1.8,1.2c0.3,0.4,1.1,1.3,2.1,2.7c0.4,0.5,0.7,1,1,1.4l0.3,0.4L19,18
			c0,0,0,0.1,0.1,0.1c0.1,0.2,0.1,0.5,0.2,0.7c0.1,0.5,0,1.2-0.5,1.7c-0.4,0.4-0.8,0.7-1.2,0.9c-0.1,0.1-0.2,0.1-0.3,0.2
			c-0.4,0.3-1,0.8-1,0.8h-0.1v0.1c0,0.1-0.1,0.2-0.1,0.3c-0.3,0.8-0.4,1.3,0.6,2.9l0,0c0.2,0.2,0.3,0.3,0.5,0.5v-0.1l6.1,6.1
			c1.6,1,2.1,0.9,2.9,0.6c0.1,0,0.2-0.1,0.3-0.1c0.6-0.2,0.9-0.6,1.3-1.2c0.2-0.3,0.5-0.7,0.9-1.1c0.5-0.6,1-0.8,1.5-0.7
			c0.2,0,0.4,0.1,0.7,0.2c0.1,0,0.1,0,0.1,0.1l0.7,0.5c0.4,0.3,0.9,0.6,1.4,1c1.4,1,2.3,1.7,2.7,2.1c0.4,0.4,1,1,1.2,1.8
			C37.3,36.3,37,37.2,36.3,38z"/>
		<path d="M37.7,35.2c-0.2-1-0.9-1.7-1.5-2.1C35.9,32.7,35,32,33.6,31c-0.3-0.2-0.6-0.5-0.9-0.6c-0.2-0.1-0.4-0.2-0.5-0.4l-0.4-0.3
			l-0.4-0.2l-0.1,0l-0.1-0.1h-0.1l-0.2,0c-0.2-0.1-0.4-0.1-0.7-0.1h0c-0.8-0.1-1.6,0.2-2.2,1c-0.4,0.4-0.7,0.8-0.9,1.2
			c-0.1,0.1-0.1,0.2-0.2,0.3c-0.3,0.4-0.4,0.6-0.7,0.6c-0.1,0-0.2,0-0.3,0.1l-0.2,0c-0.5,0.2-0.9,0.3-2.2-0.6l-6.4-6.8
			c-0.7-1.1-0.6-1.4-0.4-1.9l0.1-0.2c0,0,0,0,0,0c0.1-0.1,0.3-0.2,0.5-0.3c0.1-0.1,0.3-0.3,0.5-0.4c0,0,0,0,0.1-0.1
			c0.1,0,0.1-0.1,0.2-0.1l0.1-0.1c0.3-0.2,0.8-0.5,1.1-1c0.9-0.9,0.8-2.1,0.8-2.4c0-0.2-0.1-0.4-0.1-0.6c-0.1-0.2-0.2-0.5-0.3-0.7
			l-0.5-0.6c-0.1-0.2-0.2-0.3-0.4-0.5c-0.2-0.3-0.4-0.6-0.6-0.9c-1-1.4-1.7-2.3-2.1-2.7c-0.5-0.6-1.3-1.2-2.1-1.5
			c-1.2-0.3-2.3,0-3.3,1c-0.9,0.8-1.8,1.7-2.1,3.2c-0.2,1.3,0.1,3,0.9,5.8c0.7,2.1,2.1,4.6,4.3,7.6c0.6,0.9,1.3,1.7,2,2.5
			c0.3,0.3,0.5,0.5,0.6,0.6l0.6,0.6c0.2,0.2,0.4,0.4,0.7,0.6l0.3,0.3c0.6,0.5,1.3,1.1,2.2,1.7c1.6,1.2,4.6,3.2,7.6,4.3
			c2,0.7,3.6,1,4.8,1c0.3,0,0.6,0,0.9-0.1c1.5-0.2,2.4-1.1,3.2-2C37.6,37.6,38.1,36.4,37.7,35.2z M17.9,21.6l-0.1,0.1
			c0,0,0,0-0.1,0.1c-0.1,0-0.1,0.1-0.2,0.1c-0.1,0.1-0.3,0.2-0.5,0.4c-0.1,0.1-0.3,0.3-0.4,0.3l-0.1,0c-0.1,0.1-0.2,0.2-0.2,0.3
			l0,0.1c-0.2,0.6-0.3,1,0.5,2.3l0.1,0.1v0.1l0,0c-1-1.6-0.8-2-0.6-2.7l0-0.1v0c0,0,0-0.1,0.1-0.1l0,0c0,0,0.6-0.5,1-0.8
			c0,0,0,0,0.1-0.1c0,0,0.1-0.1,0.2-0.1c0.4-0.2,0.8-0.5,1.1-0.8C18.6,21.2,18.2,21.4,17.9,21.6z M20.3,34.8
			c-0.9-0.7-1.6-1.2-2.2-1.7l-0.3-0.3c-0.3-0.2-0.5-0.4-0.7-0.6l-0.5-0.5c-0.1-0.2-0.3-0.4-0.6-0.7c-0.7-0.8-1.4-1.6-2-2.5
			c-2.2-3-3.6-5.4-4.3-7.4c-0.8-2.8-1.1-4.4-0.9-5.6c0.3-1.4,1.1-2.2,1.9-3c0.7-0.7,1.5-1,2.2-0.9c-0.8,0-1.5,0.3-2.1,1
			c-1.1,1-1.7,1.7-1.9,2.9c-0.2,1.2,0.1,2.9,0.9,5.5c0.7,2.1,2,4.5,4.2,7.5c0.6,0.9,1.3,1.7,2,2.5c0.1,0.2,0.3,0.4,0.4,0.5L17,32v0
			c0,0,0,0.1,0.1,0.1l0.2,0.2l0.1,0c0.2,0.1,0.3,0.3,0.7,0.6l0.3,0.3c0.6,0.5,1.3,1.1,2.2,1.7c1.2,0.9,2.3,1.6,3.4,2.3
			C22.5,36.3,21.2,35.4,20.3,34.8z M27.8,39.1c-0.2-0.1-0.4-0.1-0.5-0.2c0.3,0.1,0.5,0.2,0.8,0.3c0.9,0.3,1.6,0.5,2.3,0.6
			C29.6,39.6,28.7,39.4,27.8,39.1z M36.1,37.8c-1,1.1-1.7,1.5-2.7,1.7c-1.1,0.2-2.8-0.1-5.3-0.9c-2.1-0.7-4.5-2-7.3-4.2
			c-0.9-0.7-1.6-1.2-2.2-1.7l-0.3-0.3c-0.3-0.3-0.5-0.5-0.7-0.6l-0.2-0.2c-0.1-0.1-0.2-0.2-0.2-0.3c-0.1-0.1-0.2-0.2-0.3-0.3
			l-0.4-0.4l0,0c-0.7-0.8-1.4-1.6-2-2.5c-2.2-2.9-3.5-5.3-4.2-7.3c-0.8-2.5-1.1-4.1-0.9-5.3c0.2-1.1,0.7-1.8,1.7-2.7
			c0.5-0.5,1.2-0.8,1.8-0.8c0.2,0,0.3,0,0.5,0.1c0.7,0.2,1.3,0.8,1.7,1.1c0.1,0.1,0.2,0.3,0.4,0.5c0.4,0.5,1,1.2,1.7,2.2
			c0.2,0.3,0.4,0.6,0.6,0.9c0.1,0.2,0.3,0.4,0.4,0.5l0.3,0.4l0.1,0.2c0,0.1,0.1,0.2,0.2,0.2c0,0.1,0,0.1,0,0.2
			c0,0.1,0.1,0.3,0.1,0.4c0.1,0.4,0,1-0.4,1.4c-0.4,0.4-0.8,0.7-1.1,0.9l-0.1,0c0,0,0,0-0.1,0.1c-0.1,0-0.1,0.1-0.2,0.1
			c-0.3,0.2-0.7,0.5-0.9,0.7c0,0,0,0,0.1,0c0,0-0.1,0-0.1,0c0,0,0,0,0.1,0c-0.1,0-0.2,0.1-0.4,0.3v0l0,0.1c0,0.1-0.1,0.1-0.1,0.2
			c-0.3,0.9-0.4,1.5,0.7,3.1l0.9,0.9v-0.1l5.7,5.7c1.6,1,2.2,1,3.1,0.6c0.1,0,0.2,0,0.2-0.1l0.1,0c0.7-0.2,1-0.7,1.4-1.3
			c0.3-0.4,0.6-0.7,0.9-1.1c0.4-0.5,0.8-0.7,1.3-0.6c0.1,0,0.2,0,0.4,0.1c0,0,0.1,0,0.2,0.1l0.8,0.6c0.2,0.1,0.3,0.2,0.5,0.4
			c0.3,0.2,0.6,0.4,0.9,0.6c1.4,1,2.3,1.7,2.7,2.1c0.4,0.4,1,1,1.1,1.7C37.1,36.4,36.6,37.3,36.1,37.8z"/>
		<path d="M36.8,34.4c0.2,0.3,0.3,0.6,0.4,0.9c0,0.1,0.1,0.3,0.1,0.4c0-0.1,0-0.3-0.1-0.4l0,0C37.2,35,37,34.7,36.8,34.4z"/>
		<path d="M19.2,17.9L19.2,17.9l0.1,0.1c0.1,0.1,0.1,0.3,0.1,0.4c0,0.1,0,0.2,0.1,0.3l0,0.1c0,0.1,0,0.2,0,0.3c0-0.1,0-0.2,0-0.3
			c0-0.2-0.1-0.4-0.1-0.6l-0.1-0.3l-0.2-0.2L19.2,17.9z"/>
		<path d="M13.8,11.8C13.8,11.8,13.8,11.8,13.8,11.8C13.8,11.8,13.8,11.8,13.8,11.8C13.8,11.8,13.8,11.8,13.8,11.8z"/>
	</g>
	<g>
		<path d="M0,0v50h50V0H0z M49.5,49.5h-49v-49h49V49.5z"/>
		<path d="M50.3,50.3H-0.3V-0.2h50.5V50.3z M0.3,49.8h49.5V0.3v49.5H0.3z M0.8,49.3h48.5V0.8H0.8V49.3z"/>
	</g>
	<g>
		<path d="M23.3,14.4c3.1-0.3,6.2,0.7,8.4,3c2.2,2.2,3.3,5.3,3,8.4l-0.1,0.5l2.4,0.3V26c0.4-3.8-0.9-7.5-3.5-10.2l0,0l-0.4-0.4l0,0
			c-2.7-2.6-6.4-3.9-10.2-3.5L22.4,12l0.3,2.4L23.3,14.4z M23.1,12.5c3.7-0.4,7.3,0.9,9.9,3.5s3.9,6.2,3.5,9.9l-1.4-0.1
			c0.3-3.3-0.8-6.5-3.1-8.8s-5.5-3.4-8.8-3.1L23.1,12.5L23.1,12.5z"/>
		<path d="M37.1,26.7l-2.6-0.3l0.1-0.6c0.3-3.1-0.8-6.1-3-8.3c-2.1-2.2-5.1-3.3-8.3-3l0,0h-0.7l-0.3-2.6l0.6-0.1
			c3.8-0.4,7.5,0.9,10.3,3.5l0.4,0.4c2.6,2.7,3.9,6.5,3.5,10.3V26.7z M34.7,26.2l2.2,0.3V26c0.4-3.7-0.9-7.4-3.5-10.1L33,15.5
			c-2.7-2.6-6.4-3.9-10.1-3.5l-0.4,0.1l0.3,2.2h0.5c3.2-0.3,6.3,0.8,8.5,3c2.2,2.2,3.3,5.3,3,8.5L34.7,26.2z M36.6,26L35,25.9l0-0.1
			c0.3-3.3-0.8-6.5-3.1-8.7c-2.3-2.3-5.4-3.4-8.7-3.1l-0.1,0L23,12.4l0.1,0c3.7-0.4,7.3,0.9,10,3.5C35.7,18.6,37,22.2,36.6,26
			L36.6,26z M35.2,25.7l1.2,0.1c0.4-3.6-0.9-7.1-3.5-9.7c-2.6-2.6-6.1-3.8-9.7-3.5l0.1,1.2c3.3-0.3,6.5,0.9,8.8,3.1
			C34.3,19.2,35.5,22.4,35.2,25.7z"/>
	</g>
	<g>
		<path d="M31.5,25.9l2.4,0.3l0.1-0.5c0.3-2.9-0.7-5.8-2.8-7.9s-4.9-3.1-7.9-2.8l-0.5,0.1l0.3,2.4l0.5-0.1c2.2-0.2,4.3,0.5,5.9,2.1
			c1.6,1.6,2.3,3.7,2.1,5.9L31.5,25.9z M29.8,19.2c-1.7-1.7-4-2.5-6.3-2.2l-0.2-1.4l0,0c2.8-0.3,5.5,0.7,7.4,2.6
			c2,2,2.9,4.7,2.6,7.4L32,25.5C32.3,23.1,31.5,20.9,29.8,19.2z"/>
		<path d="M34,26.3L34,26.3L31.4,26l0.1-0.6c0.2-2.2-0.5-4.3-2.1-5.8c-1.5-1.5-3.6-2.3-5.8-2.1L23,17.6L22.7,15l0.6-0.1
			c3-0.3,5.9,0.7,8,2.8c2.1,2.1,3.1,5,2.8,8L34,26.3z M31.6,25.8l2.2,0.3l0.1-0.4c0.3-2.9-0.7-5.7-2.8-7.8c-2.1-2.1-4.9-3.1-7.8-2.8
			l-0.4,0.1l0.3,2.2l0.4-0.1c2.3-0.2,4.4,0.5,6,2.1c1.6,1.6,2.3,3.7,2.1,6L31.6,25.8z M33.4,25.7l-1.5-0.1l0-0.1
			c0.3-2.4-0.5-4.5-2.2-6.2l0,0c-1.7-1.7-3.9-2.5-6.2-2.2l-0.1,0l-0.2-1.6l0.1,0c2.8-0.3,5.5,0.7,7.5,2.6
			C32.7,20.1,33.7,22.8,33.4,25.7L33.4,25.7z M32.1,25.4l1.1,0.1c0.3-2.7-0.7-5.3-2.6-7.2c-1.9-1.9-4.5-2.8-7.2-2.6l0.2,1.2
			c2.3-0.3,4.6,0.5,6.3,2.2l0,0l0,0C31.6,20.8,32.4,23.1,32.1,25.4z"/>
	</g>
	<g>
		<path d="M30.8,25.9l0.1-0.5c0.2-2-0.5-3.9-1.9-5.3c-1.4-1.4-3.3-2.1-5.3-1.9l-0.5,0.1l0.3,2.4l0.5-0.1c1.2-0.1,2.5,0.3,3.4,1.2
			c0.9,0.9,1.3,2.1,1.2,3.3l-0.1,0.5L30.8,25.9z M27.6,21.4c-1-1-2.4-1.5-3.8-1.3l-0.1-1.4c1.8-0.2,3.6,0.4,4.9,1.7
			c1.3,1.3,1.9,3.1,1.7,4.9l-1.4-0.1C29.1,23.8,28.6,22.4,27.6,21.4z"/>
		<path d="M30.9,26l-2.5-0.3l0.1-0.6c0.1-1.2-0.3-2.4-1.2-3.2c-0.8-0.8-2.1-1.3-3.3-1.2l-0.6,0.1l-0.3-2.6l0.6-0.1
			c2-0.2,3.9,0.5,5.4,1.9c1.4,1.4,2.1,3.4,1.9,5.4L30.9,26z M28.6,25.5l2.1,0.3l0.1-0.4c0.2-2-0.5-3.8-1.9-5.2
			c-1.4-1.4-3.3-2.1-5.2-1.9l-0.4,0.1l0.3,2.2l0.4-0.1c1.3-0.1,2.6,0.3,3.5,1.2c0.9,0.9,1.3,2.1,1.2,3.4L28.6,25.5z M30.4,25.4
			l-1.6-0.1l0-0.1c0.2-1.3-0.3-2.7-1.3-3.7c-1-1-2.4-1.5-3.7-1.3l-0.1,0l-0.1-1.6l0.1,0c1.9-0.2,3.7,0.4,5,1.7
			C30,21.6,30.6,23.5,30.4,25.4L30.4,25.4z M29,25.1l1.2,0.1c0.2-1.8-0.4-3.5-1.7-4.7s-3-1.8-4.7-1.7l0.1,1.2
			c1.4-0.2,2.8,0.3,3.8,1.3S29.2,23.7,29,25.1z"/>
	</g>
</g>
</svg>
