<?xml version="1.0" encoding="utf-8"?>
<!-- Generator: Adobe Illustrator 23.0.3, SVG Export Plug-In . SVG Version: 6.00 Build 0)  -->
<svg version="1.1" id="Слой_1" xmlns="http://www.w3.org/2000/svg" xmlns:xlink="http://www.w3.org/1999/xlink" x="0px" y="0px"
	 viewBox="0 0 35 35" style="enable-background:new 0 0 35 35;" xml:space="preserve">
<g>
	<path d="M0,0v35h35V0H0z M34.2,34.2H0.8V0.8h33.4V34.2z"/>
	<path d="M5.6,13.4L5.6,13.4c0,0.1,0.1,0.1,0.1,0.2c0.1,0.4,0.3,0.9,0.6,1.5c0.5,1.1,1.4,2.8,2.6,4.5c2.4,3.2,4.7,5.4,7.7,5.4
		c1.4,0,2.3-0.2,2.9-0.7c0.7-0.6,0.7-1.4,0.7-1.8c0-0.1,0-0.3,0-0.3c0,0,0.1,0,0.1,0.1c0.3,0.2,0.6,0.5,1.2,1l1,0.9
		c0.5,0.5,1.3,0.8,2,0.8H28c0.6,0,1.1-0.3,1.4-0.9s0.2-1.1-0.2-1.6l-3-3.5c-0.1-0.1-0.1-0.3,0-0.5l3.2-5.2c0.3-0.4,0.3-1,0-1.5
		c-0.3-0.5-0.7-0.7-1.3-0.7h-3.7c-0.7,0-1.4,0.4-1.8,1l-2.2,3.3v-2.7c0-1.1-0.9-2-2-2h-4.3c-0.4,0-0.7,0.2-0.9,0.6
		c-0.1,0.2-0.1,0.5,0,0.7L13.2,12l0.3,0.3c0,0,0,0,0,0l0.4,0.4c0.2,0.2,0.3,0.5,0.3,0.8v2.7c-0.4-0.4-0.8-0.9-1.3-1.7
		c-0.7-1.1-1-1.9-1.2-2.3c-0.3-0.8-1.1-1.2-1.9-1.2H6.9c-0.5,0-0.9,0.2-1.2,0.6c-0.3,0.4-0.4,0.8-0.2,1.3L5.6,13.4z M6.4,12.2
		c0.1-0.2,0.3-0.3,0.5-0.3h2.7c0.5,0,1,0.3,1.2,0.8c0.3,0.6,0.7,1.4,1.3,2.3c0.8,1.4,1.6,2.1,2.2,2.5l0.6,0.4v-4.3
		c0-0.5-0.2-1-0.5-1.3l-0.1-0.1h0L14,11.8c-0.1-0.1,0-0.1,0-0.2c0,0,0.1-0.1,0.2-0.1h4.3c0.7,0,1.2,0.5,1.2,1.2V18l3.6-5.5
		c0.2-0.4,0.7-0.6,1.1-0.6h3.7c0.2,0,0.4,0.1,0.6,0.3c0.1,0.2,0.1,0.4,0,0.6l-3.2,5.2c-0.3,0.4-0.2,1,0.1,1.4l3,3.5
		c0.2,0.2,0.2,0.5,0.1,0.7c-0.1,0.3-0.3,0.4-0.6,0.4h-3.4c-0.5,0-1.1-0.2-1.5-0.6l-1-0.9c-0.6-0.6-1-0.9-1.3-1c0,0-0.1,0-0.1-0.1
		l0,0c-0.1,0-0.2-0.1-0.3-0.2h-0.3c-0.1,0-0.1,0-0.2,0l-0.2,0l-0.1,0.3c-0.1,0.2-0.1,0.5-0.1,1c0,0.4,0,0.8-0.4,1.1
		c-0.4,0.3-1.2,0.5-2.4,0.5c-2.7,0-4.7-2-7-5c-1.2-1.6-2-3.2-2.5-4.3c-0.3-0.6-0.5-1.1-0.6-1.5c-0.1-0.2-0.1-0.3-0.1-0.4l-0.1-0.2
		C6.2,12.5,6.3,12.3,6.4,12.2z"/>
</g>
</svg>
