<svg width="35" height="35" viewBox="0 0 35 35" fill="none" xmlns="http://www.w3.org/2000/svg">
<path d="M9.6051 23.4484L9.65386 23.2752L9.55664 23.1238L9.30467 22.7315C9.30466 22.7315 9.30466 22.7315 9.30466 22.7315C8.29782 21.1636 7.76536 19.3449 7.76536 17.4709C7.76536 12.0949 12.1397 7.72056 17.5157 7.72056C22.8918 7.72056 27.2661 12.0949 27.2661 17.4709C27.2661 22.847 22.8918 27.2213 17.5157 27.2213C15.7203 27.2213 13.9664 26.7295 12.4433 25.7997C12.4433 25.7997 12.4433 25.7997 12.4433 25.7997L12.0691 25.5712L11.9248 25.4831L11.761 25.5252L8.80621 26.2859L9.6051 23.4484ZM24.1312 20.6744L24.1312 20.6743C24.2106 20.3033 24.0222 19.9269 23.6776 19.768L23.6776 19.768L20.9969 18.5324C20.9969 18.5324 20.9969 18.5324 20.9969 18.5324C20.6534 18.3741 20.2462 18.4741 20.0152 18.7736L19.0064 20.0813C18.2534 19.8059 16.0878 18.8404 14.8662 16.5388L15.8284 15.4256L15.8284 15.4256C16.031 15.1912 16.0824 14.8617 15.9606 14.5766C15.9606 14.5766 15.9606 14.5766 15.9606 14.5766L14.8051 11.8732L14.8051 11.8731C14.6837 11.5893 14.4119 11.399 14.1036 11.3821L14.1036 11.3821L13.3104 11.3389C13.3104 11.3389 13.3104 11.3389 13.3104 11.3389C12.9582 11.3197 12.6118 11.4375 12.3445 11.6695L12.3445 11.6696C11.9405 12.0205 11.2456 12.7365 11.0282 13.7047L11.0282 13.7047C10.7122 15.1129 11.2108 16.7664 12.376 18.3552C13.5228 19.9192 15.6888 22.4614 19.5273 23.5468C20.8362 23.9169 21.895 23.669 22.7147 23.1446C23.3836 22.7168 23.8403 22.0332 24.0045 21.2659L24.1312 20.6744ZM14.8226 16.5892L14.8226 16.5891L14.8226 16.5892Z" stroke="black" stroke-width="0.8"/>
<path d="M4.87529 29.6446L4.68691 30.3136L5.36003 30.1403L11.4854 28.5636C13.3295 29.5673 15.4015 30.095 17.5158 30.095C24.477 30.095 30.1397 24.4322 30.1397 17.471C30.1397 10.5098 24.477 4.84703 17.5158 4.84703C10.5545 4.84703 4.89181 10.5098 4.89181 17.471C4.89181 19.6735 5.461 21.8199 6.54388 23.7183L4.87529 29.6446ZM0.4 34.6V0.4H34.6V34.6H0.4Z" stroke="black" stroke-width="0.8"/>
</svg>
